<?xml version="1.0" encoding="UTF-8" standalone="no"?>
<svg
   version="1.1"
   id="svg2"
   viewBox="0 0 54 32"
   inkscape:version="1.3 (0e150ed6c4, 2023-07-21)"
   sodipodi:docname="akonadi.svg"
   xmlns:inkscape="http://www.inkscape.org/namespaces/inkscape"
   xmlns:sodipodi="http://sodipodi.sourceforge.net/DTD/sodipodi-0.dtd"
   xmlns:xlink="http://www.w3.org/1999/xlink"
   xmlns="http://www.w3.org/2000/svg"
   xmlns:svg="http://www.w3.org/2000/svg"
   xmlns:rdf="http://www.w3.org/1999/02/22-rdf-syntax-ns#"
   xmlns:cc="http://creativecommons.org/ns#"
   xmlns:dc="http://purl.org/dc/elements/1.1/">
  <sodipodi:namedview
     pagecolor="#ffffff"
     bordercolor="#666666"
     borderopacity="1"
     objecttolerance="10"
     gridtolerance="10"
     guidetolerance="10"
     inkscape:pageopacity="0"
     inkscape:pageshadow="2"
     inkscape:window-width="1920"
     inkscape:window-height="1052"
     id="namedview12"
     showgrid="false"
     inkscape:zoom="7.375"
     inkscape:cx="12.61017"
     inkscape:cy="15.186441"
     inkscape:window-x="0"
     inkscape:window-y="0"
     inkscape:window-maximized="1"
     inkscape:current-layer="svg2"
     inkscape:showpageshadow="2"
     inkscape:pagecheckerboard="0"
     inkscape:deskcolor="#d1d1d1" />
  <metadata
     id="metadata18">
    <rdf:RDF>
      <cc:Work
         rdf:about="">
        <dc:format>image/svg+xml</dc:format>
        <dc:type
           rdf:resource="http://purl.org/dc/dcmitype/StillImage" />
        <dc:title />
      </cc:Work>
    </rdf:RDF>
  </metadata>
  <defs
     id="defs3051">
    <style
       id="current-color-scheme"
       type="text/css">&#10;      .ColorScheme-Text {&#10;        color:#31363b;&#10;      }&#10;      </style>
    <linearGradient
       id="linearGradient1">
      <stop
         id="stop00"
         offset="0.0"
         style="stop-color:#7c00b5;stop-opacity:1.0" />
      <stop
         id="stop01"
         offset="1.0"
         style="stop-color:#6916c5;stop-opacity:0.84958178" />
    </linearGradient>
    <linearGradient
       inkscape:collect="always"
       xlink:href="#linearGradient1"
       id="linearGradient3"
       x1="2"
       y1="11"
       x2="20"
       y2="11"
       gradientUnits="userSpaceOnUse" />
    <linearGradient
       inkscape:collect="always"
       xlink:href="#linearGradient1"
       id="linearGradient5"
       x1="3"
       y1="16"
       x2="29"
       y2="16"
       gradientUnits="userSpaceOnUse" />
  </defs>
  <g
     transform="matrix(3.7795275,0,0,3.7795275,0.03498229,-1090.5589)"
     id="22-22-akonadi">
    <path
       inkscape:connector-curvature="0"
       id="path825"
       transform="matrix(0.26458333,0,0,0.26458333,0,291.17916)"
       d="M 11,2 A 8.9999994,3.0000002 0 0 0 2,5 v 6 6 a 8.9999985,3.0000002 0 0 0 9,3 8.9999985,3.0000002 0 0 0 9,-3 V 11 5 A 8.9999994,3.0000002 0 0 0 11,2 Z m 0,1 A 7.9999994,1.9999999 0 0 1 19,5 7.9999994,1.9999999 0 0 1 11,7 7.9999994,1.9999999 0 0 1 3,5 7.9999994,1.9999999 0 0 1 11,3 Z M 3,6.3671875 A 8.9999994,3.0000002 0 0 0 11,8 8.9999994,3.0000002 0 0 0 19,6.3730469 v 4.6308591 a 8.4999998,3.0000001 0 0 1 -0.171875,0.164063 8.4999998,3.0000001 0 0 1 -0.369141,0.269531 8.4999998,3.0000001 0 0 1 -0.443359,0.255859 8.4999998,3.0000001 0 0 1 -0.513672,0.240235 8.4999998,3.0000001 0 0 1 -0.580078,0.21875 8.4999998,3.0000001 0 0 1 -0.638672,0.197265 8.4999998,3.0000001 0 0 1 -0.691406,0.175782 8.4999998,3.0000001 0 0 1 -0.736328,0.148437 8.4999998,3.0000001 0 0 1 -0.775391,0.123047 8.4999998,3.0000001 0 0 1 -0.80664,0.09375 8.4999998,3.0000001 0 0 1 -0.828126,0.06641 8.4999998,3.0000001 0 0 1 -0.84375,0.03516 A 8.4999998,3.0000001 0 0 1 11,13 8.4999998,3.0000001 0 0 1 10.152344,12.984375 8.4999998,3.0000001 0 0 1 9.3105469,12.939453 8.4999998,3.0000001 0 0 1 8.4882812,12.865234 8.4999998,3.0000001 0 0 1 7.6894531,12.763672 8.4999998,3.0000001 0 0 1 6.9257812,12.632812 8.4999998,3.0000001 0 0 1 6.2011719,12.476562 8.4999998,3.0000001 0 0 1 5.5234375,12.294922 8.4999998,3.0000001 0 0 1 4.9023438,12.089844 8.4999998,3.0000001 0 0 1 4.3417969,11.865234 8.4999998,3.0000001 0 0 1 3.8476562,11.621094 8.4999998,3.0000001 0 0 1 3.4238281,11.361328 8.4999998,3.0000001 0 0 1 3.078125,11.087891 8.4999998,3.0000001 0 0 1 3,11.003906 Z M 3,12.367188 A 8.9999985,3.0000001 0 0 0 11,14 8.9999985,3.0000001 0 0 0 19,12.373047 v 4.630859 a 8.4999998,3.0000002 0 0 1 -0.171875,0.164063 8.4999998,3.0000002 0 0 1 -0.369141,0.269531 8.4999998,3.0000002 0 0 1 -0.443359,0.255859 8.4999998,3.0000002 0 0 1 -0.513672,0.240235 8.4999998,3.0000002 0 0 1 -0.580078,0.21875 8.4999998,3.0000002 0 0 1 -0.638672,0.197265 8.4999998,3.0000002 0 0 1 -0.691406,0.175782 8.4999998,3.0000002 0 0 1 -0.736328,0.148437 8.4999998,3.0000002 0 0 1 -0.775391,0.123047 8.4999998,3.0000002 0 0 1 -0.80664,0.09375 8.4999998,3.0000002 0 0 1 -0.828126,0.06641 8.4999998,3.0000002 0 0 1 -0.84375,0.03516 A 8.4999998,3.0000002 0 0 1 11,19 8.4999998,3.0000002 0 0 1 10.152344,18.984375 8.4999998,3.0000002 0 0 1 9.3105469,18.939453 8.4999998,3.0000002 0 0 1 8.4882812,18.865234 8.4999998,3.0000002 0 0 1 7.6894531,18.763672 8.4999998,3.0000002 0 0 1 6.9257812,18.632812 8.4999998,3.0000002 0 0 1 6.2011719,18.476562 8.4999998,3.0000002 0 0 1 5.5234375,18.294922 8.4999998,3.0000002 0 0 1 4.9023438,18.089844 8.4999998,3.0000002 0 0 1 4.3417969,17.865234 8.4999998,3.0000002 0 0 1 3.8476562,17.621094 8.4999998,3.0000002 0 0 1 3.4238281,17.361328 8.4999998,3.0000002 0 0 1 3.078125,17.087891 8.4999998,3.0000002 0 0 1 3,17.003906 Z"
       style="opacity:0.97000002;fill:url(#linearGradient3);fill-opacity:1;stroke-width:0.99999994" />
    <rect
       y="291.17917"
       x="0"
       height="5.8208332"
       width="5.8208332"
       id="rect818"
       style="fill:#ffffff;fill-opacity:0;stroke-width:0.26458332" />
  </g>
  <g
     style="clip-rule:evenodd;fill-rule:evenodd;stroke-linejoin:round;stroke-miterlimit:1.41420996"
     id="akonadi"
     transform="translate(22.034981,-0.03923003)">
    <path
       inkscape:connector-curvature="0"
       id="path2-8"
       style="fill:url(#linearGradient5);fill-opacity:1"
       d="M 3,6.5 C 3,4.568 8.825,3 16,3 23.175,3 29,4.568 29,6.5 v 19 C 29,27.432 23.175,29 16,29 8.825,29 3,27.432 3,25.5 Z M 28,20.848 C 26.038,22.111 21.402,23 16,23 10.598,23 5.962,22.111 4,20.848 V 25 c 0,1.656 5.377,3 12,3 6.623,0 12,-1.344 12,-3 z m 0,-7 C 26.038,15.111 21.402,16 16,16 10.598,16 5.962,15.111 4,13.848 V 19 c 0,1.656 5.377,3 12,3 6.623,0 12,-1.344 12,-3 z m 0,-6 C 26.038,9.111 21.402,10 16,10 10.598,10 5.962,9.111 4,7.848 V 12 c 0,1.656 5.377,3 12,3 6.623,0 12,-1.344 12,-3 z M 4,6.5 C 4,7.88 9.377,9 16,9 22.623,9 28,7.88 28,6.5 28,5.12 22.623,4 16,4 9.377,4 4,5.12 4,6.5 Z" />
    <rect
       y="0"
       x="0"
       height="32"
       width="32"
       id="rect817-4"
       style="fill:#ffffff;fill-opacity:0;stroke-width:1.00213218" />
  </g>
  <path
     style="opacity:0.5;fill:#7700a5;stroke-width:0"
     d="m 15.657963,28.953282 3.812897,-1.710457 0.01645,-6.652443 0.178827,-6.261586 -5.035293,-2.010544 -5.9526867,0.224932 -4.4711086,1.113993 -1.9282723,1.658542 0.079978,7.778685 0.092045,4.791752 4.2293557,1.237346 6.3734975,0.550649 z"
     id="path5"
     sodipodi:nodetypes="ccccccccccccc" />
  <path
     style="opacity:0.5;fill:#7700a5;stroke-width:0"
     d="M 50.172273,26.414104 50.81226,5.7837038 45.409304,4.0140609 34.972127,3.2041595 l -5.67718,1.3066158 -3.586252,1.4091755 -0.242908,3.585652 0.558677,16.7246182 5.854194,1.97345 10.307725,-0.197522 z"
     id="path6"
     sodipodi:nodetypes="ccccccccccc" />
</svg>
