<?xml version="1.0" encoding="UTF-8" standalone="no"?>
<svg
   version="1.1"
   id="svg2"
   viewBox="0 0 54 32"
   inkscape:version="1.3 (0e150ed6c4, 2023-07-21)"
   sodipodi:docname="amarok.svg"
   width="54"
   height="32"
   xmlns:inkscape="http://www.inkscape.org/namespaces/inkscape"
   xmlns:sodipodi="http://sodipodi.sourceforge.net/DTD/sodipodi-0.dtd"
   xmlns:xlink="http://www.w3.org/1999/xlink"
   xmlns="http://www.w3.org/2000/svg"
   xmlns:svg="http://www.w3.org/2000/svg"
   xmlns:rdf="http://www.w3.org/1999/02/22-rdf-syntax-ns#"
   xmlns:cc="http://creativecommons.org/ns#"
   xmlns:dc="http://purl.org/dc/elements/1.1/">
  <sodipodi:namedview
     pagecolor="#ffffff"
     bordercolor="#666666"
     borderopacity="1"
     objecttolerance="10"
     gridtolerance="10"
     guidetolerance="10"
     inkscape:pageopacity="0"
     inkscape:pageshadow="2"
     inkscape:window-width="1920"
     inkscape:window-height="1052"
     id="namedview12"
     showgrid="true"
     inkscape:zoom="11.313709"
     inkscape:cx="13.523417"
     inkscape:cy="27.577163"
     inkscape:window-x="0"
     inkscape:window-y="0"
     inkscape:window-maximized="1"
     inkscape:current-layer="22-22-amarok"
     fit-margin-top="0"
     fit-margin-left="0"
     fit-margin-right="0"
     fit-margin-bottom="0"
     showguides="true"
     inkscape:guide-bbox="true"
     inkscape:snap-bbox="true"
     inkscape:bbox-nodes="true"
     inkscape:showpageshadow="2"
     inkscape:pagecheckerboard="0"
     inkscape:deskcolor="#d1d1d1" />
  <metadata
     id="metadata18">
    <rdf:RDF>
      <cc:Work
         rdf:about="">
        <dc:format>image/svg+xml</dc:format>
        <dc:type
           rdf:resource="http://purl.org/dc/dcmitype/StillImage" />
        <dc:title />
      </cc:Work>
    </rdf:RDF>
  </metadata>
  <defs
     id="defs3051">
    <style
       id="current-color-scheme"
       type="text/css">&#10;      .ColorScheme-Text {&#10;        color:#31363b;&#10;      }&#10;      </style>
    <linearGradient
       id="linearGradient1">
      <stop
         id="stop00"
         offset="0.0"
         style="stop-color:#7c00b5;stop-opacity:1.0" />
      <stop
         id="stop01"
         offset="1.0"
         style="stop-color:#6916c5;stop-opacity:0.84958178" />
    </linearGradient>
    <linearGradient
       inkscape:collect="always"
       xlink:href="#linearGradient1"
       id="linearGradient3"
       x1="2.9908943"
       y1="15.950309"
       x2="28.838955"
       y2="15.950309"
       gradientUnits="userSpaceOnUse" />
    <linearGradient
       inkscape:collect="always"
       xlink:href="#linearGradient1"
       id="linearGradient5"
       x1="3"
       y1="16"
       x2="29"
       y2="16"
       gradientUnits="userSpaceOnUse" />
    <linearGradient
       inkscape:collect="always"
       xlink:href="#linearGradient1"
       id="linearGradient7"
       x1="0.053271294"
       y1="21.160181"
       x2="22.215145"
       y2="21.160181"
       gradientUnits="userSpaceOnUse"
       gradientTransform="matrix(0.80723024,0,0,0.78532072,1.9667135,4.3504438)" />
    <linearGradient
       inkscape:collect="always"
       xlink:href="#linearGradient1"
       id="linearGradient9"
       x1="7"
       y1="10"
       x2="15"
       y2="10"
       gradientUnits="userSpaceOnUse" />
    <linearGradient
       inkscape:collect="always"
       xlink:href="#linearGradient1"
       id="linearGradient11"
       x1="2"
       y1="11"
       x2="20"
       y2="11"
       gradientUnits="userSpaceOnUse" />
  </defs>
  <g
     id="22-22-amarok"
     transform="translate(0,10)">
    <g
       id="g846">
      <path
         style="opacity:1;fill:url(#linearGradient11);fill-opacity:1;stroke:none"
         d="m 11,2 a 9,9 0 0 0 -9,9 9,9 0 0 0 9,9 9,9 0 0 0 9,-9 9,9 0 0 0 -6,-8.4746094 V 3.5898438 A 8,8 0 0 1 19,11 8,8 0 0 1 11,19 8,8 0 0 1 3,11 8,8 0 0 1 11,3 8,8 0 0 1 12,3.0703125 V 2.0664062 A 9,9 0 0 0 11,2 Z"
         id="path823"
         inkscape:connector-curvature="0" />
      <path
         style="opacity:1;fill:url(#linearGradient9);fill-opacity:1;stroke:none;stroke-width:1.33333337"
         d="m 14,3 v 7.361328 A 4,4 0 0 0 11,9 a 4,4 0 0 0 -4,4 4,4 0 0 0 4,4 4,4 0 0 0 4,-4 V 3 Z m -3,7 a 3,3 0 0 1 3,3 3,3 0 0 1 -3,3 3,3 0 0 1 -3,-3 3,3 0 0 1 3,-3 z"
         id="path833"
         inkscape:connector-curvature="0" />
    </g>
    <rect
       y="0"
       x="0"
       height="22"
       width="22"
       id="rect830"
       style="opacity:0.6;fill:#808000;fill-opacity:0;stroke:none" />
    <ellipse
       style="opacity:0.5;fill:url(#linearGradient7);stroke-width:0"
       id="path5"
       cx="10.954583"
       cy="20.967974"
       rx="8.9448681"
       ry="8.7935066"
       transform="translate(0,-10)" />
  </g>
  <g
     id="amarok"
     transform="translate(22)">
    <path
       id="path846"
       d="M 16,3 A 13,13 0 0 0 3,16 13,13 0 0 0 16,29 13,13 0 0 0 29,16 13,13 0 0 0 21,4.0117188 V 5.1054688 8 15.691406 A 6,6 0 0 0 16,13 a 6,6 0 0 0 -6,6 6,6 0 0 0 6,6 6,6 0 0 0 6,-6 V 5.6191406 A 12,12 0 0 1 28,16 12,12 0 0 1 16,28 12,12 0 0 1 4,16 12,12 0 0 1 16,4 12,12 0 0 1 18,4.1875 V 3.1640625 A 13,13 0 0 0 16,3 Z m 0,11 a 5,5 0 0 1 5,5 5,5 0 0 1 -5,5 5,5 0 0 1 -5,-5 5,5 0 0 1 5,-5 z"
       style="opacity:1;fill:url(#linearGradient5);fill-opacity:1;stroke:none"
       inkscape:connector-curvature="0" />
    <rect
       y="0"
       x="0"
       height="32"
       width="32"
       id="rect862"
       style="opacity:1;fill:#808000;fill-opacity:0;stroke:none" />
    <ellipse
       style="opacity:0.5;fill:url(#linearGradient3);stroke-width:0"
       id="path1"
       cx="15.914925"
       cy="15.950309"
       rx="12.92403"
       ry="13.033273" />
  </g>
</svg>
