<?xml version="1.0" encoding="UTF-8" standalone="no"?>
<svg
   width="54"
   height="32"
   id="svg3613"
   version="1.1"
   sodipodi:docname="bookmarks.svg"
   inkscape:version="1.3 (0e150ed6c4, 2023-07-21)"
   xml:space="preserve"
   xmlns:inkscape="http://www.inkscape.org/namespaces/inkscape"
   xmlns:sodipodi="http://sodipodi.sourceforge.net/DTD/sodipodi-0.dtd"
   xmlns="http://www.w3.org/2000/svg"
   xmlns:svg="http://www.w3.org/2000/svg"
   xmlns:rdf="http://www.w3.org/1999/02/22-rdf-syntax-ns#"
   xmlns:cc="http://creativecommons.org/ns#"
   xmlns:dc="http://purl.org/dc/elements/1.1/"><sodipodi:namedview
     pagecolor="#ffffff"
     bordercolor="#666666"
     borderopacity="1"
     objecttolerance="10"
     gridtolerance="10"
     guidetolerance="10"
     inkscape:pageopacity="0"
     inkscape:pageshadow="2"
     inkscape:window-width="1920"
     inkscape:window-height="1052"
     id="namedview12"
     showgrid="true"
     inkscape:zoom="9.0874206"
     inkscape:cx="22.503635"
     inkscape:cy="14.745658"
     inkscape:window-x="0"
     inkscape:window-y="0"
     inkscape:window-maximized="1"
     inkscape:current-layer="22-22-bookmarks"
     inkscape:showpageshadow="2"
     inkscape:pagecheckerboard="0"
     inkscape:deskcolor="#d1d1d1"><inkscape:grid
       type="xygrid"
       id="grid822"
       originx="0"
       originy="0"
       spacingy="1"
       spacingx="1"
       units="px"
       visible="true" /></sodipodi:namedview><metadata
     id="metadata13"><rdf:RDF><cc:Work
         rdf:about=""><dc:format>image/svg+xml</dc:format><dc:type
           rdf:resource="http://purl.org/dc/dcmitype/StillImage" /><dc:title /></cc:Work></rdf:RDF></metadata><defs
     id="defs3615"><style
       type="text/css"
       id="current-color-scheme">&#10;      .ColorScheme-Text {&#10;        color:#31363b;&#10;      }&#10;      .ColorScheme-Background{&#10;        color:#E9E8E8;&#10;      }&#10;      .ColorScheme-ViewText {&#10;        color:#31363b;&#10;      }&#10;      .ColorScheme-ViewBackground{&#10;        color:#ffffff;&#10;      }&#10;      .ColorScheme-ViewHover {&#10;        color:#000000;&#10;      }&#10;      .ColorScheme-ViewFocus{&#10;        color:#5a5a5a;&#10;      }&#10;      .ColorScheme-ButtonText {&#10;        color:#31363b;&#10;      }&#10;      .ColorScheme-ButtonBackground{&#10;        color:#E9E8E8;&#10;      }&#10;      .ColorScheme-ButtonHover {&#10;        color:#1489ff;&#10;      }&#10;      .ColorScheme-ButtonFocus{&#10;        color:#2B74C7;&#10;      }&#10;</style><linearGradient
       id="_lgradient_1"
       x1="0"
       y1="0.5"
       x2="1"
       y2="0.5"
       gradientTransform="matrix(19.206691,0,0,28.000107,6.2711919,2.3832384)"
       gradientUnits="userSpaceOnUse"><stop
         offset="0%"
         stop-opacity="1"
         style="stop-color:rgb(242,55,239)"
         id="stop9" /><stop
         offset="98.69565217391305%"
         stop-opacity="1"
         style="stop-color:rgb(252,82,82)"
         id="stop11" /></linearGradient><linearGradient
       id="linearGradient1"><stop
         id="stop00"
         offset="0.0"
         style="stop-color:#7c00b5;stop-opacity:1.0" /><stop
         id="stop01"
         offset="1.0"
         style="stop-color:#6916c5;stop-opacity:0.84958178" /></linearGradient><linearGradient
       id="paint0_linear_5_77"
       x1="4.83829"
       y1="18.5064"
       x2="16.7922"
       y2="30.398"
       gradientUnits="userSpaceOnUse"><stop
         stop-color="#F9D423"
         id="stop2" /><stop
         offset="0.515624"
         stop-color="#FF4E50"
         id="stop3" /><stop
         offset="0.991304"
         stop-color="#8A2387"
         id="stop4" /></linearGradient><linearGradient
       id="paint1_linear_5_77"
       x1="4.67622"
       y1="2.27552"
       x2="33.0253"
       y2="25.6486"
       gradientUnits="userSpaceOnUse"><stop
         stop-color="#F9D423"
         id="stop5" /><stop
         offset="0.515624"
         stop-color="#FF4E50"
         id="stop6" /><stop
         offset="0.991304"
         stop-color="#8A2387"
         id="stop7" /></linearGradient><linearGradient
       id="paint0_linear_5_77-3"
       x1="4.8382902"
       y1="18.506399"
       x2="16.7922"
       y2="30.398001"
       gradientUnits="userSpaceOnUse"><stop
         stop-color="#F9D423"
         id="stop2-6" /><stop
         offset="0.515624"
         stop-color="#FF4E50"
         id="stop3-7" /><stop
         offset="0.991304"
         stop-color="#8A2387"
         id="stop4-5" /></linearGradient><linearGradient
       id="paint1_linear_5_77-3"
       x1="4.6762199"
       y1="2.2755201"
       x2="33.025299"
       y2="25.6486"
       gradientUnits="userSpaceOnUse"><stop
         stop-color="#F9D423"
         id="stop5-5" /><stop
         offset="0.515624"
         stop-color="#FF4E50"
         id="stop6-6" /><stop
         offset="0.991304"
         stop-color="#8A2387"
         id="stop7-2" /></linearGradient></defs><g
     style="clip-rule:evenodd;fill-rule:evenodd;stroke-linejoin:round;stroke-miterlimit:1.41420996"
     id="bookmarks"
     transform="translate(22)"><rect
       y="-0.19046536"
       x="-0.18267386"
       height="32"
       width="32"
       id="rect820"
       style="fill:#2020ff;fill-opacity:0" /><g
       style="fill:none"
       id="g1"
       transform="translate(-0.38267386,-0.1904604)"><path
         opacity="0.4"
         d="M 16.1877,25.2701 7.09923,29.8097 C 6.41289,30.1823 5.55676,29.9335 5.17288,29.25 5.06077,29.0352 5.00148,28.7963 5,28.5536 V 18.3923 c 0,1.0074 0.56803,1.6293 2.06218,2.3258 z"
         fill="url(#paint0_linear_5_77)"
         id="path1"
         style="fill:url(#paint0_linear_5_77)" /><path
         fill-rule="evenodd"
         clip-rule="evenodd"
         d="m 11.8534,2 h 8.6438 C 24.2882,2 27.363,3.49247 27.4,7.31072 V 28.5536 c -0.0015,0.2388 -0.0609,0.4736 -0.1729,0.684 -0.18,0.3433 -0.4908,0.5982 -0.861,0.7061 -0.3703,0.1078 -0.7682,0.0595 -1.1024,-0.134 l -9.076,-4.5396 -9.12552,-4.552 C 5.56803,20.0216 5,19.3997 5,18.3923 V 7.31072 C 5,3.49247 8.07475,2 11.8534,2 Z m -0.9385,10.6712 h 10.5332 c 0.607,0 1.099,-0.4956 1.099,-1.1069 0,-0.6114 -0.492,-1.107 -1.099,-1.107 H 10.9149 c -0.6069,0 -1.09898,0.4956 -1.09898,1.107 0,0.6113 0.49208,1.1069 1.09898,1.1069 z"
         fill="url(#paint1_linear_5_77)"
         id="path2"
         style="fill:url(#paint1_linear_5_77)" /></g></g><g
     style="clip-rule:evenodd;fill-rule:evenodd;stroke-linejoin:round;stroke-miterlimit:1.41421"
     id="22-22-bookmarks"
     transform="translate(1.5653043,4.8477818)"><rect
       y="-0.4390876"
       x="0.56041282"
       height="22"
       width="22"
       id="rect817"
       style="fill:#ffffff;fill-opacity:0;stroke-width:1.00426" /><g
       style="fill:none"
       id="g2"
       transform="matrix(0.625,0,0,0.64285736,1.4354128,0.27519747)"><path
         opacity="0.4"
         d="M 16.1877,25.2701 7.09923,29.8097 C 6.41289,30.1823 5.55676,29.9335 5.17288,29.25 5.06077,29.0352 5.00148,28.7963 5,28.5536 V 18.3923 c 0,1.0074 0.56803,1.6293 2.06218,2.3258 z"
         fill="url(#paint0_linear_5_77)"
         id="path1-1"
         style="fill:url(#paint0_linear_5_77-3)" /><path
         fill-rule="evenodd"
         clip-rule="evenodd"
         d="m 11.8534,2 h 8.6438 C 24.2882,2 27.363,3.49247 27.4,7.31072 V 28.5536 c -0.0015,0.2388 -0.0609,0.4736 -0.1729,0.684 -0.18,0.3433 -0.4908,0.5982 -0.861,0.7061 -0.3703,0.1078 -0.7682,0.0595 -1.1024,-0.134 l -9.076,-4.5396 -9.12552,-4.552 C 5.56803,20.0216 5,19.3997 5,18.3923 V 7.31072 C 5,3.49247 8.07475,2 11.8534,2 Z m -0.9385,10.6712 h 10.5332 c 0.607,0 1.099,-0.4956 1.099,-1.1069 0,-0.6114 -0.492,-1.107 -1.099,-1.107 H 10.9149 c -0.6069,0 -1.09898,0.4956 -1.09898,1.107 0,0.6113 0.49208,1.1069 1.09898,1.1069 z"
         fill="url(#paint1_linear_5_77)"
         id="path2-2"
         style="fill:url(#paint1_linear_5_77-3)" /></g></g></svg>
