<?xml version="1.0" encoding="UTF-8" standalone="no"?>
<svg
   version="1.1"
   id="svg2"
   viewBox="0 0 54 32"
   inkscape:version="1.3 (0e150ed6c4, 2023-07-21)"
   sodipodi:docname="cantata.svg"
   xml:space="preserve"
   xmlns:inkscape="http://www.inkscape.org/namespaces/inkscape"
   xmlns:sodipodi="http://sodipodi.sourceforge.net/DTD/sodipodi-0.dtd"
   xmlns="http://www.w3.org/2000/svg"
   xmlns:svg="http://www.w3.org/2000/svg"
   xmlns:rdf="http://www.w3.org/1999/02/22-rdf-syntax-ns#"
   xmlns:cc="http://creativecommons.org/ns#"
   xmlns:dc="http://purl.org/dc/elements/1.1/"><sodipodi:namedview
     pagecolor="#ffffff"
     bordercolor="#666666"
     borderopacity="1"
     objecttolerance="10"
     gridtolerance="10"
     guidetolerance="10"
     inkscape:pageopacity="0"
     inkscape:pageshadow="2"
     inkscape:window-width="1920"
     inkscape:window-height="1052"
     id="namedview14"
     showgrid="false"
     inkscape:zoom="4.916429"
     inkscape:cx="16.577073"
     inkscape:cy="32.950745"
     inkscape:window-x="0"
     inkscape:window-y="0"
     inkscape:window-maximized="1"
     inkscape:current-layer="svg2"
     inkscape:showpageshadow="2"
     inkscape:pagecheckerboard="0"
     inkscape:deskcolor="#d1d1d1" /><metadata
     id="metadata20"><rdf:RDF><cc:Work
         rdf:about=""><dc:format>image/svg+xml</dc:format><dc:type
           rdf:resource="http://purl.org/dc/dcmitype/StillImage" /><dc:title /></cc:Work></rdf:RDF></metadata><defs
     id="defs3051"><style
       id="current-color-scheme"
       type="text/css">&#10;      .ColorScheme-Text {&#10;        color:#31363b;&#10;      }&#10;      </style><linearGradient
       id="linearGradient1"><stop
         id="stop00"
         offset="0.0"
         style="stop-color:#7c00b5;stop-opacity:1.0" /><stop
         id="stop01"
         offset="1.0"
         style="stop-color:#6916c5;stop-opacity:0.84958178" /></linearGradient><linearGradient
       id="paint0_linear_59_216"
       x1="64"
       y1="118"
       x2="64"
       y2="10"
       gradientUnits="userSpaceOnUse"><stop
         stop-color="#5570FF"
         id="stop3" /><stop
         offset="1"
         stop-color="#4DD3FF"
         id="stop4" /></linearGradient><linearGradient
       id="paint1_linear_59_216"
       x1="70.2814"
       y1="70.1162"
       x2="70.2814"
       y2="39.74"
       gradientUnits="userSpaceOnUse"><stop
         stop-color="#5558FF"
         id="stop5" /><stop
         offset="1"
         stop-color="#00C0FF"
         id="stop6" /></linearGradient><linearGradient
       id="paint2_linear_59_216"
       x1="48.9311"
       y1="55.6039"
       x2="48.9311"
       y2="37"
       gradientUnits="userSpaceOnUse"><stop
         stop-color="#5558FF"
         id="stop7" /><stop
         offset="1"
         stop-color="#00C0FF"
         id="stop8" /></linearGradient><linearGradient
       id="paint0_linear_59_216-7"
       x1="64"
       y1="118"
       x2="64"
       y2="10"
       gradientUnits="userSpaceOnUse"><stop
         stop-color="#5570FF"
         id="stop3-5" /><stop
         offset="1"
         stop-color="#4DD3FF"
         id="stop4-3" /></linearGradient><linearGradient
       id="paint1_linear_59_216-5"
       x1="70.281403"
       y1="70.116203"
       x2="70.281403"
       y2="39.740002"
       gradientUnits="userSpaceOnUse"><stop
         stop-color="#5558FF"
         id="stop5-6" /><stop
         offset="1"
         stop-color="#00C0FF"
         id="stop6-2" /></linearGradient><linearGradient
       id="paint2_linear_59_216-9"
       x1="48.931099"
       y1="55.603901"
       x2="48.931099"
       y2="37"
       gradientUnits="userSpaceOnUse"><stop
         stop-color="#5558FF"
         id="stop7-1" /><stop
         offset="1"
         stop-color="#00C0FF"
         id="stop8-2" /></linearGradient></defs><g
     style="clip-rule:evenodd;fill-rule:evenodd;stroke-linejoin:round;stroke-miterlimit:1.41421"
     id="cantata"
     transform="translate(28.224205,-14.848374)"><rect
       y="15.316326"
       x="-6.277442"
       height="32"
       width="32"
       id="rect838"
       style="fill:#ffffff;fill-opacity:0" /><g
       style="fill:none"
       id="g2"
       transform="matrix(0.23584906,0,0,0.23148148,-5.371782,16.501511)"><path
         opacity="0.4"
         d="M 11,38 C 11,22.536 23.536,10 39,10 h 50 c 15.464,0 28,12.536 28,28 v 52 c 0,15.464 -12.536,28 -28,28 H 39 C 23.536,118 11,105.464 11,90 Z"
         fill="url(#paint0_linear_59_216)"
         id="path1-0"
         style="fill:url(#paint0_linear_59_216-7)" /><path
         d="m 65.8858,65.275 c 0,0.0012 0.0012,0.0021 0.0023,0.0016 L 85.8648,57.286 c 0.6568,-0.2628 1.3714,0.221 1.3714,0.9284 v 10.8965 c 0,0.7899 -0.8918,1.2893 -1.6352,1.0221 -1.1153,-0.4007 -2.3115,-0.5563 -3.5061,-0.4467 -1.805,0.1655 -3.5037,0.9271 -4.828,2.1647 -1.3244,1.2376 -2.1992,2.8808 -2.4866,4.6705 -0.2873,1.7897 0.0292,3.6241 0.8996,5.2141 0.8704,1.5899 2.2452,2.845 3.9077,3.5672 1.6626,0.7223 3.5182,0.8707 5.2743,0.4219 1.7562,-0.4489 3.313,-1.4695 4.4251,-2.9009 1.1121,-1.4314 1.7161,-3.1922 1.7169,-5.0048 V 53.8162 c 0,-2.871 0,-5.2773 -0.201,-7.1964 -0.0281,-0.2644 -0.0616,-0.5282 -0.1005,-0.7912 -0.1959,-1.3111 -0.5375,-2.5319 -1.2031,-3.5542 -0.4056,-0.6283 -0.9356,-1.1668 -1.5573,-1.5824 l -0.0176,-0.0126 c -1.7784,-1.1805 -3.7753,-1.0976 -5.8324,-0.5727 -1.9894,0.5074 -4.456,1.5398 -7.4802,2.8057 l -5.2597,2.2004 c -1.4192,0.5927 -2.6198,1.0976 -3.5618,1.6176 -1.0047,0.5526 -1.8662,1.2056 -2.5143,2.1802 -0.648,0.9746 -0.9193,2.022 -1.0424,3.1624 -0.1155,1.07 -0.1155,2.3736 -0.1155,3.9109 V 74.132 c 0,0.79 -0.8918,1.2893 -1.6352,1.0221 -1.1152,-0.4007 -2.3115,-0.5563 -3.5061,-0.4467 -1.805,0.1655 -3.5036,0.9271 -4.828,2.1647 -1.3244,1.2376 -2.1992,2.8808 -2.4865,4.6705 -0.2874,1.7897 0.0291,3.6241 0.8995,5.2141 0.8704,1.5899 2.2453,2.845 3.9078,3.5672 1.6625,0.7223 3.5181,0.8707 5.2743,0.4219 1.7561,-0.4489 3.313,-1.4695 4.425,-2.9009 1.1121,-1.4314 1.7161,-3.1922 1.7169,-5.0048 z"
         fill="url(#paint1_linear_59_216)"
         id="path2-36-9"
         style="fill:url(#paint1_linear_59_216-5)" /><path
         opacity="0.4"
         d="m 53.3268,38.8839 c 0,-0.4997 -0.1985,-0.9788 -0.5518,-1.3321 C 52.4217,37.1985 51.9425,37 51.4429,37 c -0.4996,0 -0.9788,0.1985 -1.3321,0.5518 -0.3533,0.3533 -0.5518,0.8324 -0.5518,1.3321 v 12.6422 c 0,0.79 -0.8917,1.2893 -1.6351,1.0222 -1.1153,-0.4008 -2.3115,-0.5564 -3.5061,-0.4468 -1.8051,0.1655 -3.5037,0.9271 -4.828,2.1647 -1.3244,1.2376 -2.1992,2.8808 -2.4866,4.6705 -0.2873,1.7897 0.0292,3.6241 0.8996,5.2141 0.8704,1.5899 2.2452,2.845 3.9077,3.5672 1.6626,0.7223 3.5182,0.8707 5.2743,0.4219 1.7562,-0.4489 3.313,-1.4694 4.4251,-2.9008 1.1121,-1.4314 1.7161,-3.1923 1.7169,-5.0049 V 48.3857 c 0,-0.8154 0.9458,-1.3138 1.6877,-0.9756 1.3196,0.6015 2.7088,0.893 3.9638,0.893 0.4997,0 0.9788,-0.1984 1.3321,-0.5517 0.3533,-0.3533 0.5518,-0.8325 0.5518,-1.3321 0,-0.4997 -0.1985,-0.9788 -0.5518,-1.3321 -0.3533,-0.3533 -0.8324,-0.5518 -1.3321,-0.5518 -1.3654,-0.0333 -2.6807,-0.5212 -3.7375,-1.3865 -1.0902,-0.8967 -1.914,-2.2606 -1.914,-4.265 z"
         fill="url(#paint2_linear_59_216)"
         id="path3-3"
         style="fill:url(#paint2_linear_59_216-9)" /></g></g><g
     style="clip-rule:evenodd;fill-rule:evenodd;stroke-linejoin:round;stroke-miterlimit:1.41421"
     id="22-22-cantata"
     transform="translate(16.375678,-2.9824949)"><rect
       y="8.4987669"
       x="-14.819479"
       height="22"
       width="22"
       id="rect817"
       style="fill:#ffffff;fill-opacity:0;stroke-width:0.741406" /><g
       style="clip-rule:evenodd;fill:none;fill-rule:evenodd;stroke-linejoin:round;stroke-miterlimit:1.41421"
       id="g1"
       transform="matrix(0.16981132,0,0,0.16666667,-14.687403,8.8320997)"><path
         opacity="0.4"
         d="M 11,38 C 11,22.536 23.536,10 39,10 h 50 c 15.464,0 28,12.536 28,28 v 52 c 0,15.464 -12.536,28 -28,28 H 39 C 23.536,118 11,105.464 11,90 Z"
         fill="url(#paint0_linear_59_216)"
         id="path1"
         style="fill:url(#paint0_linear_59_216)" /><path
         d="m 65.8858,65.275 c 0,0.0012 0.0012,0.0021 0.0023,0.0016 L 85.8648,57.286 c 0.6568,-0.2628 1.3714,0.221 1.3714,0.9284 v 10.8965 c 0,0.7899 -0.8918,1.2893 -1.6352,1.0221 -1.1153,-0.4007 -2.3115,-0.5563 -3.5061,-0.4467 -1.805,0.1655 -3.5037,0.9271 -4.828,2.1647 -1.3244,1.2376 -2.1992,2.8808 -2.4866,4.6705 -0.2873,1.7897 0.0292,3.6241 0.8996,5.2141 0.8704,1.5899 2.2452,2.845 3.9077,3.5672 1.6626,0.7223 3.5182,0.8707 5.2743,0.4219 1.7562,-0.4489 3.313,-1.4695 4.4251,-2.9009 1.1121,-1.4314 1.7161,-3.1922 1.7169,-5.0048 V 53.8162 c 0,-2.871 0,-5.2773 -0.201,-7.1964 -0.0281,-0.2644 -0.0616,-0.5282 -0.1005,-0.7912 -0.1959,-1.3111 -0.5375,-2.5319 -1.2031,-3.5542 -0.4056,-0.6283 -0.9356,-1.1668 -1.5573,-1.5824 l -0.0176,-0.0126 c -1.7784,-1.1805 -3.7753,-1.0976 -5.8324,-0.5727 -1.9894,0.5074 -4.456,1.5398 -7.4802,2.8057 l -5.2597,2.2004 c -1.4192,0.5927 -2.6198,1.0976 -3.5618,1.6176 -1.0047,0.5526 -1.8662,1.2056 -2.5143,2.1802 -0.648,0.9746 -0.9193,2.022 -1.0424,3.1624 -0.1155,1.07 -0.1155,2.3736 -0.1155,3.9109 V 74.132 c 0,0.79 -0.8918,1.2893 -1.6352,1.0221 -1.1152,-0.4007 -2.3115,-0.5563 -3.5061,-0.4467 -1.805,0.1655 -3.5036,0.9271 -4.828,2.1647 -1.3244,1.2376 -2.1992,2.8808 -2.4865,4.6705 -0.2874,1.7897 0.0291,3.6241 0.8995,5.2141 0.8704,1.5899 2.2453,2.845 3.9078,3.5672 1.6625,0.7223 3.5181,0.8707 5.2743,0.4219 1.7561,-0.4489 3.313,-1.4695 4.425,-2.9009 1.1121,-1.4314 1.7161,-3.1922 1.7169,-5.0048 z"
         fill="url(#paint1_linear_59_216)"
         id="path2-36"
         style="fill:url(#paint1_linear_59_216)" /><path
         opacity="0.4"
         d="m 53.3268,38.8839 c 0,-0.4997 -0.1985,-0.9788 -0.5518,-1.3321 C 52.4217,37.1985 51.9425,37 51.4429,37 c -0.4996,0 -0.9788,0.1985 -1.3321,0.5518 -0.3533,0.3533 -0.5518,0.8324 -0.5518,1.3321 v 12.6422 c 0,0.79 -0.8917,1.2893 -1.6351,1.0222 -1.1153,-0.4008 -2.3115,-0.5564 -3.5061,-0.4468 -1.8051,0.1655 -3.5037,0.9271 -4.828,2.1647 -1.3244,1.2376 -2.1992,2.8808 -2.4866,4.6705 -0.2873,1.7897 0.0292,3.6241 0.8996,5.2141 0.8704,1.5899 2.2452,2.845 3.9077,3.5672 1.6626,0.7223 3.5182,0.8707 5.2743,0.4219 1.7562,-0.4489 3.313,-1.4694 4.4251,-2.9008 1.1121,-1.4314 1.7161,-3.1923 1.7169,-5.0049 V 48.3857 c 0,-0.8154 0.9458,-1.3138 1.6877,-0.9756 1.3196,0.6015 2.7088,0.893 3.9638,0.893 0.4997,0 0.9788,-0.1984 1.3321,-0.5517 0.3533,-0.3533 0.5518,-0.8325 0.5518,-1.3321 0,-0.4997 -0.1985,-0.9788 -0.5518,-1.3321 -0.3533,-0.3533 -0.8324,-0.5518 -1.3321,-0.5518 -1.3654,-0.0333 -2.6807,-0.5212 -3.7375,-1.3865 -1.0902,-0.8967 -1.914,-2.2606 -1.914,-4.265 z"
         fill="url(#paint2_linear_59_216)"
         id="path3"
         style="fill:url(#paint2_linear_59_216)" /></g></g></svg>
