<?xml version="1.0" encoding="UTF-8" standalone="no"?>
<svg
   version="1.1"
   id="svg2"
   viewBox="0 0 54 32"
   inkscape:version="1.3 (0e150ed6c4, 2023-07-21)"
   sodipodi:docname="edit.svg"
   xml:space="preserve"
   xmlns:inkscape="http://www.inkscape.org/namespaces/inkscape"
   xmlns:sodipodi="http://sodipodi.sourceforge.net/DTD/sodipodi-0.dtd"
   xmlns="http://www.w3.org/2000/svg"
   xmlns:svg="http://www.w3.org/2000/svg"
   xmlns:rdf="http://www.w3.org/1999/02/22-rdf-syntax-ns#"
   xmlns:cc="http://creativecommons.org/ns#"
   xmlns:dc="http://purl.org/dc/elements/1.1/"><sodipodi:namedview
     pagecolor="#ffffff"
     bordercolor="#666666"
     borderopacity="1"
     objecttolerance="10"
     gridtolerance="10"
     guidetolerance="10"
     inkscape:pageopacity="0"
     inkscape:pageshadow="2"
     inkscape:window-width="1920"
     inkscape:window-height="1052"
     id="namedview12"
     showgrid="false"
     inkscape:zoom="3.6875"
     inkscape:cx="26.169492"
     inkscape:cy="16.813559"
     inkscape:window-x="0"
     inkscape:window-y="0"
     inkscape:window-maximized="1"
     inkscape:current-layer="svg2"
     inkscape:showpageshadow="2"
     inkscape:pagecheckerboard="0"
     inkscape:deskcolor="#d1d1d1" /><metadata
     id="metadata14"><rdf:RDF><cc:Work
         rdf:about=""><dc:format>image/svg+xml</dc:format><dc:type
           rdf:resource="http://purl.org/dc/dcmitype/StillImage" /><dc:title /></cc:Work></rdf:RDF></metadata><defs
     id="defs3051"><style
       id="current-color-scheme"
       type="text/css">&#10;      .ColorScheme-NegativeText {&#10;        color:#da4453;&#10;      }&#10;      </style><linearGradient
       id="paint0_linear_201_110"
       x1="56.8519"
       y1="2.38037"
       x2="-1.60953"
       y2="50.6927"
       gradientUnits="userSpaceOnUse"><stop
         stop-color="#FE7970"
         id="stop2" /><stop
         offset="1"
         stop-color="#DC3282"
         id="stop3" /></linearGradient><linearGradient
       id="paint1_linear_201_110"
       x1="32.0722"
       y1="14.8353"
       x2="31.8958"
       y2="57.0478"
       gradientUnits="userSpaceOnUse"><stop
         stop-color="#FE7970"
         id="stop4" /><stop
         offset="1"
         stop-color="#DC3282"
         id="stop5" /></linearGradient><linearGradient
       id="paint0_linear_201_110-6"
       x1="56.851898"
       y1="2.3803699"
       x2="-1.60953"
       y2="50.692699"
       gradientUnits="userSpaceOnUse"><stop
         stop-color="#FE7970"
         id="stop2-7" /><stop
         offset="1"
         stop-color="#DC3282"
         id="stop3-5" /></linearGradient><linearGradient
       id="paint1_linear_201_110-3"
       x1="32.072201"
       y1="14.8353"
       x2="31.8958"
       y2="57.047798"
       gradientUnits="userSpaceOnUse"><stop
         stop-color="#FE7970"
         id="stop4-5" /><stop
         offset="1"
         stop-color="#DC3282"
         id="stop5-6" /></linearGradient></defs><g
     style="clip-rule:evenodd;fill-rule:evenodd;stroke-linejoin:round;stroke-miterlimit:1.41421"
     id="edit-delete"
     transform="translate(4.2510924,7.2803066)"><rect
       y="-7.4850264"
       x="17.149288"
       height="32"
       width="32"
       id="rect817"
       style="fill:#ffffff;fill-opacity:0;stroke-width:0.929249" /><g
       style="fill:none"
       id="g1"
       transform="matrix(0.43999958,0,0,0.46666667,19.069291,-6.4183598)"><path
         opacity="0.4"
         d="M 57,22.3925 V 48.25 c -0.004,3.6455 -1.4539,7.1406 -4.0317,9.7183 C 50.3905,60.5461 46.8955,61.996 43.25,62 H 20.75 C 17.1045,61.996 13.6094,60.5461 11.0317,57.9683 8.4539,55.3906 7.00397,51.8955 7,48.25 V 15.75 C 7.00397,12.1045 8.4539,8.60948 11.0317,6.03171 13.6094,3.45395 17.1045,2.00402 20.75,2.00005 h 15.8575 c 1.8064,-0.00488 3.5958,0.34858 5.2646,1.0399 1.6689,0.69132 3.1841,1.70678 4.4579,2.9876 L 52.9725,12.67 c 1.2808,1.2738 2.2962,2.789 2.9876,4.4579 0.6913,1.6688 1.0447,3.4583 1.0399,5.2646 z"
         fill="url(#paint0_linear_201_110)"
         id="path1"
         style="fill:url(#paint0_linear_201_110)" /><path
         d="M 31.1513,28.7885 27.6836,25.3183 C 27.2657,24.9004 26.7695,24.5689 26.2234,24.3427 25.6772,24.1164 25.0921,24 24.501,24 c -0.5912,0 -1.1764,0.1164 -1.7225,0.3426 -0.546,0.2261 -1.0422,0.5578 -1.4601,0.9757 -0.4179,0.4179 -0.7494,0.914 -0.9757,1.4602 -0.2262,0.5461 -0.3427,1.1312 -0.3426,1.7224 -10e-5,0.591 0.1164,1.1763 0.3426,1.7224 0.2263,0.546 0.5578,1.0423 0.9757,1.4602 l 3.4701,3.4677 c 0.469,0.4687 0.469,1.2288 0,1.6975 l -3.4702,3.4678 C 20.4743,41.1605 20,42.3054 20,43.4991 c 10e-5,1.1936 0.4742,2.3385 1.3183,3.1826 0.8441,0.8441 1.989,1.3182 3.1826,1.3183 1.1937,0 2.3386,-0.4743 3.1826,-1.3183 l 3.4678,-3.4701 c 0.4687,-0.469 1.2289,-0.469 1.6975,-10e-5 l 3.4678,3.4701 c 0.8441,0.8441 1.9889,1.3183 3.1826,1.3183 1.1938,0 2.3385,-0.4742 3.1826,-1.3183 0.844,-0.844 1.3183,-1.9889 1.3183,-3.1826 0,-1.1938 -0.4742,-2.3385 -1.3183,-3.1826 l -3.4702,-3.4677 c -0.4689,-0.4687 -0.469,-1.2288 0,-1.6975 l 3.4702,-3.4677 c 0.8441,-0.8441 1.3183,-1.9889 1.3183,-3.1826 0,-1.1937 -0.4742,-2.3385 -1.3183,-3.1826 C 41.8377,24.4742 40.693,24 39.4992,24 c -1.1937,0 -2.3385,0.4742 -3.1826,1.3183 l -3.4678,3.4701 c -0.4687,0.469 -1.2288,0.4689 -1.6975,10e-5 z"
         fill="url(#paint1_linear_201_110)"
         id="path2-3"
         style="fill:url(#paint1_linear_201_110)" /></g></g><g
     style="clip-rule:evenodd;fill-rule:evenodd;stroke-linejoin:round;stroke-miterlimit:1.41420996"
     id="22-22-edit-delete"
     transform="translate(0,10)"><rect
       y="-5.916461"
       x="1.3246741"
       height="22"
       width="22"
       id="rect817-9"
       style="fill:#ffffff;fill-opacity:0;stroke-width:1.06106" /><g
       style="fill:none"
       id="g2"
       transform="matrix(0.27999973,0,0,0.3,3.3646761,-4.5164603)"><path
         opacity="0.4"
         d="M 57,22.3925 V 48.25 c -0.004,3.6455 -1.4539,7.1406 -4.0317,9.7183 C 50.3905,60.5461 46.8955,61.996 43.25,62 H 20.75 C 17.1045,61.996 13.6094,60.5461 11.0317,57.9683 8.4539,55.3906 7.00397,51.8955 7,48.25 V 15.75 C 7.00397,12.1045 8.4539,8.60948 11.0317,6.03171 13.6094,3.45395 17.1045,2.00402 20.75,2.00005 h 15.8575 c 1.8064,-0.00488 3.5958,0.34858 5.2646,1.0399 1.6689,0.69132 3.1841,1.70678 4.4579,2.9876 L 52.9725,12.67 c 1.2808,1.2738 2.2962,2.789 2.9876,4.4579 0.6913,1.6688 1.0447,3.4583 1.0399,5.2646 z"
         fill="url(#paint0_linear_201_110)"
         id="path1-9"
         style="fill:url(#paint0_linear_201_110-6)" /><path
         d="M 31.1513,28.7885 27.6836,25.3183 C 27.2657,24.9004 26.7695,24.5689 26.2234,24.3427 25.6772,24.1164 25.0921,24 24.501,24 c -0.5912,0 -1.1764,0.1164 -1.7225,0.3426 -0.546,0.2261 -1.0422,0.5578 -1.4601,0.9757 -0.4179,0.4179 -0.7494,0.914 -0.9757,1.4602 -0.2262,0.5461 -0.3427,1.1312 -0.3426,1.7224 -10e-5,0.591 0.1164,1.1763 0.3426,1.7224 0.2263,0.546 0.5578,1.0423 0.9757,1.4602 l 3.4701,3.4677 c 0.469,0.4687 0.469,1.2288 0,1.6975 l -3.4702,3.4678 C 20.4743,41.1605 20,42.3054 20,43.4991 c 10e-5,1.1936 0.4742,2.3385 1.3183,3.1826 0.8441,0.8441 1.989,1.3182 3.1826,1.3183 1.1937,0 2.3386,-0.4743 3.1826,-1.3183 l 3.4678,-3.4701 c 0.4687,-0.469 1.2289,-0.469 1.6975,-10e-5 l 3.4678,3.4701 c 0.8441,0.8441 1.9889,1.3183 3.1826,1.3183 1.1938,0 2.3385,-0.4742 3.1826,-1.3183 0.844,-0.844 1.3183,-1.9889 1.3183,-3.1826 0,-1.1938 -0.4742,-2.3385 -1.3183,-3.1826 l -3.4702,-3.4677 c -0.4689,-0.4687 -0.469,-1.2288 0,-1.6975 l 3.4702,-3.4677 c 0.8441,-0.8441 1.3183,-1.9889 1.3183,-3.1826 0,-1.1937 -0.4742,-2.3385 -1.3183,-3.1826 C 41.8377,24.4742 40.693,24 39.4992,24 c -1.1937,0 -2.3385,0.4742 -3.1826,1.3183 l -3.4678,3.4701 c -0.4687,0.469 -1.2288,0.4689 -1.6975,10e-5 z"
         fill="url(#paint1_linear_201_110)"
         id="path2-3-1"
         style="fill:url(#paint1_linear_201_110-3)" /></g></g></svg>
