<?xml version="1.0" encoding="UTF-8" standalone="no"?>
<svg
   viewBox="0 0 22 22"
   version="1.1"
   id="svg3869"
   height="22"
   width="22"
   sodipodi:docname="kalarm.svg"
   inkscape:version="1.3 (0e150ed6c4, 2023-07-21)"
   xml:space="preserve"
   xmlns:inkscape="http://www.inkscape.org/namespaces/inkscape"
   xmlns:sodipodi="http://sodipodi.sourceforge.net/DTD/sodipodi-0.dtd"
   xmlns="http://www.w3.org/2000/svg"
   xmlns:svg="http://www.w3.org/2000/svg"
   xmlns:rdf="http://www.w3.org/1999/02/22-rdf-syntax-ns#"
   xmlns:cc="http://creativecommons.org/ns#"
   xmlns:dc="http://purl.org/dc/elements/1.1/"><sodipodi:namedview
     pagecolor="#ffffff"
     bordercolor="#666666"
     borderopacity="1"
     objecttolerance="10"
     gridtolerance="10"
     guidetolerance="10"
     inkscape:pageopacity="0"
     inkscape:pageshadow="2"
     inkscape:window-width="1920"
     inkscape:window-height="1052"
     id="namedview17"
     showgrid="false"
     inkscape:zoom="5.3636365"
     inkscape:cx="12.025423"
     inkscape:cy="15.101694"
     inkscape:window-x="0"
     inkscape:window-y="0"
     inkscape:window-maximized="1"
     inkscape:current-layer="svg3869"
     inkscape:showpageshadow="2"
     inkscape:pagecheckerboard="0"
     inkscape:deskcolor="#d1d1d1" /><metadata
     id="metadata16"><rdf:RDF><cc:Work
         rdf:about=""><dc:format>image/svg+xml</dc:format><dc:type
           rdf:resource="http://purl.org/dc/dcmitype/StillImage" /><dc:title /></cc:Work></rdf:RDF></metadata><defs
     id="defs3871"><style
       id="current-color-scheme"
       type="text/css">&#10;      .ColorScheme-Text {&#10;        color:#31363b;&#10;      }&#10;      .ColorScheme-Background {&#10;        color:#eff0f1;&#10;      }&#10;      .ColorScheme-Highlight {&#10;        color:#3daee9;&#10;      }&#10;      .ColorScheme-ViewText {&#10;        color:#31363b;&#10;      }&#10;      .ColorScheme-ViewBackground {&#10;        color:#fcfcfc;&#10;      }&#10;      .ColorScheme-ViewHover {&#10;        color:#93cee9;&#10;      }&#10;      .ColorScheme-ViewFocus{&#10;        color:#3daee9;&#10;      }&#10;      .ColorScheme-ButtonText {&#10;        color:#31363b;&#10;      }&#10;      .ColorScheme-ButtonBackground {&#10;        color:#eff0f1;&#10;      }&#10;      .ColorScheme-ButtonHover {&#10;        color:#93cee9;&#10;      }&#10;      .ColorScheme-ButtonFocus{&#10;        color:#3daee9;&#10;      }&#10;      </style><linearGradient
       id="linearGradient1"><stop
         id="stop00"
         offset="0.0"
         style="stop-color:#7c00b5;stop-opacity:1.0" /><stop
         id="stop01"
         offset="1.0"
         style="stop-color:#6916c5;stop-opacity:0.84958178" /></linearGradient><linearGradient
       id="paint0_linear_26_106"
       x1="21.3292"
       y1="1.12925"
       x2="1.10196"
       y2="21.1892"
       gradientUnits="userSpaceOnUse"><stop
         stop-color="#FE7970"
         id="stop2" /><stop
         offset="1"
         stop-color="#DC3282"
         id="stop3" /></linearGradient><linearGradient
       id="paint1_linear_26_106"
       x1="22.9396"
       y1="2.74076"
       x2="2.71237"
       y2="22.7996"
       gradientUnits="userSpaceOnUse"><stop
         stop-color="#FE7970"
         id="stop4" /><stop
         offset="1"
         stop-color="#DC3282"
         id="stop5" /></linearGradient><linearGradient
       id="paint0_linear_302_195"
       x1="12"
       y1="22"
       x2="12"
       y2="6.74853"
       gradientUnits="userSpaceOnUse"><stop
         stop-color="#02AA93"
         id="stop2-5" /><stop
         offset="1"
         stop-color="#67FF80"
         id="stop3-3" /></linearGradient><linearGradient
       id="paint1_linear_302_195"
       x1="15.8371"
       y1="10.2092"
       x2="15.8371"
       y2="2"
       gradientUnits="userSpaceOnUse"><stop
         stop-color="#00B59C"
         id="stop4-5" /><stop
         offset="1"
         stop-color="#9CFFAC"
         id="stop5-6" /></linearGradient><linearGradient
       id="paint0_linear_348_170"
       x1="5.88129"
       y1="21"
       x2="5.88129"
       y2="3"
       gradientUnits="userSpaceOnUse"><stop
         stop-color="#5558FF"
         id="stop2-1" /><stop
         offset="1"
         stop-color="#00C0FF"
         id="stop3-2" /></linearGradient><linearGradient
       id="paint1_linear_348_170"
       x1="18.1188"
       y1="21"
       x2="18.1188"
       y2="3"
       gradientUnits="userSpaceOnUse"><stop
         stop-color="#5558FF"
         id="stop4-7" /><stop
         offset="1"
         stop-color="#00C0FF"
         id="stop5-0" /></linearGradient></defs><g
     style="clip-rule:evenodd;fill-rule:evenodd;stroke-linejoin:round;stroke-miterlimit:1.41421"
     id="kalarm"
     transform="translate(-20.041269,16.565596)"><rect
       y="-16.433857"
       x="20.053574"
       height="22"
       width="22"
       id="rect822"
       style="fill:#ffffff;fill-opacity:0;stroke-width:0.91742" /><g
       style="fill:none"
       id="g2"
       transform="matrix(1.0799989,0,0,0.9,18.093575,-16.233857)"><path
         d="M 19.9762,13.8879 8.56267,6.85593 c -0.2557,-0.15667 -0.5829,-0.14167 -0.8223,0.04333 -1.0843,0.83505 -2.0531,1.68176 -2.6995,2.39346 0,0 -0.5568,0.57003 -0.7978,0.93168 -0.3891,0.4934 -0.5764,1.1384 -0.5764,1.7651 0,0.7034 0.2052,1.3684 0.6139,1.9001 0.0928,0.095 0.4461,0.5134 0.7799,0.855 1.9473,2.1268 7.03043,5.6403 9.70393,6.7054 0.3891,0.1716 1.4279,0.53 1.9668,0.55 0.5194,0 1.0209,-0.1133 1.5028,-0.3617 0.5927,-0.3417 1.0567,-0.8717 1.3172,-1.5001 0.1677,-0.4366 0.4266,-1.7467 0.4266,-1.785 0.1677,-0.9351 0.2931,-2.2485 0.3549,-3.7819 0.0114,-0.275 -0.127,-0.5417 -0.3565,-0.6834 z"
         fill="url(#paint0_linear_302_195)"
         id="path1-6"
         style="fill:url(#paint0_linear_302_195)" /><path
         opacity="0.4"
         d="M 19.2128,10.1004 C 19.7159,10.412 20.3493,10.0137 20.3249,9.41537 20.2646,8.01196 20.1604,6.77523 20.0334,5.85519 20.0139,5.83519 19.755,4.20344 19.4571,3.65174 18.9377,2.62669 17.9184,2 16.8227,2 H 16.7315 C 16.0249,2.01833 14.5221,2.64503 14.5221,2.68336 13.765,2.99838 12.7767,3.53174 11.7135,4.17344 11.2348,4.46345 11.2234,5.17515 11.7021,5.47017 Z"
         fill="url(#paint1_linear_302_195)"
         id="path2-7"
         style="fill:url(#paint1_linear_302_195)" /></g></g><g
     style="clip-rule:evenodd;fill-rule:evenodd;stroke-linejoin:round;stroke-miterlimit:1.41421"
     id="kalarm-disabled"
     transform="translate(50.211874,16.803756)"><rect
       y="-17.543089"
       x="-22.681307"
       height="22"
       width="22"
       id="rect822-0"
       style="fill:#ffffff;fill-opacity:0;stroke-width:1.23084" /><g
       style="fill:none"
       id="g3"
       transform="matrix(0.8999955,0,0,1,-22.481298,-18.543089)"><path
         d="M 2,6.6 C 2,4.9026 2,4.0548 2.56861,3.5274 3.13722,3 4.05126,3 5.88129,3 7.71131,3 8.62536,3 9.19397,3.5274 9.76258,4.0548 9.76257,4.9026 9.76257,6.6 v 10.8 c 0,1.6974 10e-6,2.5452 -0.5686,3.0726 C 8.62536,21 7.71131,21 5.88129,21 4.05126,21 3.13722,21 2.56861,20.4726 2,19.9452 2,19.0974 2,17.4 Z"
         fill="url(#paint0_linear_348_170)"
         id="path1-2"
         style="fill:url(#paint0_linear_348_170)" /><path
         opacity="0.4"
         d="m 14.2375,6.6 c 0,-1.6974 0,-2.5452 0.5687,-3.0726 C 15.3748,3 16.2888,3 18.1188,3 c 1.8301,0 2.7441,0 3.3127,0.5274 0.5686,0.5274 0.5686,1.3752 0.5686,3.0726 v 10.8 c 0,1.6974 0,2.5452 -0.5686,3.0726 C 20.8629,21 19.9489,21 18.1188,21 c -1.83,0 -2.744,0 -3.3126,-0.5274 C 14.2375,19.9452 14.2375,19.0974 14.2375,17.4 Z"
         fill="url(#paint1_linear_348_170)"
         id="path2-9"
         style="fill:url(#paint1_linear_348_170)" /></g></g><g
     style="clip-rule:evenodd;fill-rule:evenodd;stroke-linejoin:round;stroke-miterlimit:1.41420996"
     id="kalarm-partdisabled"
     transform="translate(-22)"><rect
       y="-0.17527235"
       x="-5.265522"
       height="22"
       width="22"
       id="rect822-0-6"
       style="fill:#ffffff;fill-opacity:0;stroke-width:1.23084" /><g
       style="fill:none"
       id="g1"
       transform="matrix(0.81818182,0,0,0.81818182,-4.0837038,1.0065466)"><path
         fill-rule="evenodd"
         clip-rule="evenodd"
         d="M 2.6104,2.6104 C 1,4.223 1,6.8146 1,12 c 0,5.1854 0,7.7781 1.6104,9.3885 L 21.3896,2.6115 C 19.777,1 17.1843,1 12,1 6.8146,1 4.2219,1 2.6104,2.6104 Z"
         fill="url(#paint0_linear_26_106)"
         id="path1"
         style="fill:url(#paint0_linear_26_106)" /><path
         opacity="0.5"
         d="M 2.6115,21.3896 C 4.2219,23 6.8146,23 12,23 c 5.1854,0 7.7781,0 9.3896,-1.6104 C 23,19.777 23,17.1854 23,12 23,6.81461 23,4.22301 21.3896,2.61151 Z"
         fill="url(#paint1_linear_26_106)"
         id="path2-3"
         style="fill:url(#paint1_linear_26_106)" /></g></g></svg>
