<?xml version="1.0" encoding="UTF-8" standalone="no"?>
<svg
   version="1.1"
   width="54"
   height="32.000011"
   id="svg2"
   viewBox="0 0 54 32.000011"
   sodipodi:docname="keyboard.svg"
   inkscape:version="1.3 (0e150ed6c4, 2023-07-21)"
   xml:space="preserve"
   xmlns:inkscape="http://www.inkscape.org/namespaces/inkscape"
   xmlns:sodipodi="http://sodipodi.sourceforge.net/DTD/sodipodi-0.dtd"
   xmlns="http://www.w3.org/2000/svg"
   xmlns:svg="http://www.w3.org/2000/svg"
   xmlns:rdf="http://www.w3.org/1999/02/22-rdf-syntax-ns#"
   xmlns:cc="http://creativecommons.org/ns#"
   xmlns:dc="http://purl.org/dc/elements/1.1/"><sodipodi:namedview
     pagecolor="#ffffff"
     bordercolor="#666666"
     borderopacity="1"
     objecttolerance="10"
     gridtolerance="10"
     guidetolerance="10"
     inkscape:pageopacity="0"
     inkscape:pageshadow="2"
     inkscape:window-width="1920"
     inkscape:window-height="1052"
     id="namedview12"
     showgrid="false"
     inkscape:zoom="9.1400099"
     inkscape:cx="26.422291"
     inkscape:cy="27.461677"
     inkscape:window-x="0"
     inkscape:window-y="0"
     inkscape:window-maximized="1"
     inkscape:current-layer="svg2"
     inkscape:showpageshadow="2"
     inkscape:pagecheckerboard="0"
     inkscape:deskcolor="#d1d1d1" /><defs
     id="defs4"><style
       type="text/css"
       id="current-color-scheme">&#10;      .ColorScheme-Text {&#10;        color:#31363b;&#10;      }&#10;      .ColorScheme-Background {&#10;        color:#eff0f1;&#10;      }&#10;      .ColorScheme-Highlight {&#10;        color:#3daee9;&#10;      }&#10;      .ColorScheme-ViewText {&#10;        color:#31363b;&#10;      }&#10;      .ColorScheme-ViewBackground {&#10;        color:#fcfcfc;&#10;      }&#10;      .ColorScheme-ViewHover {&#10;        color:#93cee9;&#10;      }&#10;      .ColorScheme-ViewFocus{&#10;        color:#3daee9;&#10;      }&#10;      .ColorScheme-ButtonText {&#10;        color:#31363b;&#10;      }&#10;      .ColorScheme-ButtonBackground {&#10;        color:#eff0f1;&#10;      }&#10;      .ColorScheme-ButtonHover {&#10;        color:#93cee9;&#10;      }&#10;      .ColorScheme-ButtonFocus{&#10;        color:#3daee9;&#10;      }&#10;      </style><linearGradient
       id="linearGradient1"><stop
         id="stop00"
         offset="0.0"
         style="stop-color:#7c00b5;stop-opacity:1.0" /><stop
         id="stop01"
         offset="1.0"
         style="stop-color:#6916c5;stop-opacity:0.84958178" /></linearGradient><linearGradient
       id="paint0_linear_8_508"
       x1="12"
       y1="4"
       x2="12"
       y2="19.4"
       gradientUnits="userSpaceOnUse"><stop
         stop-color="#DC18FC"
         id="stop2" /><stop
         offset="1"
         stop-color="#8E1EFF"
         id="stop3" /></linearGradient><linearGradient
       id="paint1_linear_8_508"
       x1="12"
       y1="7.29999"
       x2="12"
       y2="16.925"
       gradientUnits="userSpaceOnUse"><stop
         stop-color="#DC18FC"
         id="stop4" /><stop
         offset="1"
         stop-color="#8E1EFF"
         id="stop5" /></linearGradient><linearGradient
       id="paint0_linear_8_508-3"
       x1="12"
       y1="4"
       x2="12"
       y2="19.4"
       gradientUnits="userSpaceOnUse"><stop
         stop-color="#DC18FC"
         id="stop2-6" /><stop
         offset="1"
         stop-color="#8E1EFF"
         id="stop3-7" /></linearGradient><linearGradient
       id="paint1_linear_8_508-5"
       x1="12"
       y1="7.2999902"
       x2="12"
       y2="16.924999"
       gradientUnits="userSpaceOnUse"><stop
         stop-color="#DC18FC"
         id="stop4-3" /><stop
         offset="1"
         stop-color="#8E1EFF"
         id="stop5-5" /></linearGradient></defs><metadata
     id="metadata7"><rdf:RDF><cc:Work
         rdf:about=""><dc:format>image/svg+xml</dc:format><dc:type
           rdf:resource="http://purl.org/dc/dcmitype/StillImage" /><dc:title /></cc:Work></rdf:RDF></metadata><g
     style="clip-rule:evenodd;fill-rule:evenodd;stroke-linecap:square;stroke-linejoin:round;stroke-miterlimit:1.5"
     id="keyboard-layout"
     transform="translate(22,-3.2259082e-6)"><rect
       y="0"
       x="0"
       height="32"
       width="32"
       id="rect835"
       style="fill:#ffffff;fill-opacity:0" /><g
       style="clip-rule:evenodd;fill:none;fill-rule:evenodd;stroke-linecap:round;stroke-linejoin:round;stroke-miterlimit:1.5"
       id="g1"
       transform="matrix(1.2727273,0,0,1.2987013,0.7272724,0.80519479)"
       inkscape:transform-center-x="2.4692868"
       inkscape:transform-center-y="3.9928769"><path
         opacity="0.4"
         d="M 16.4,4 H 7.6 C 4.4892,4 2.9327,4 1.9669,4.9669 1,5.9327 1,7.4892 1,10.6 v 2.2 c 0,3.1108 0,4.6673 0.9669,5.6331 C 2.9327,19.4 4.4892,19.4 7.6,19.4 h 8.8 c 3.1108,0 4.6673,0 5.6331,-0.9669 C 23,17.4673 23,15.9108 23,12.8 V 10.6 C 23,7.4892 23,5.9327 22.0331,4.9669 21.0673,4 19.5108,4 16.4,4 Z"
         fill="url(#paint0_linear_8_508)"
         id="path1"
         style="fill:url(#paint0_linear_8_508)" /><path
         d="m 5.39999,9.49999 c 0.29174,0 0.57153,-0.11589 0.77782,-0.32218 C 6.3841,8.97152 6.49999,8.69173 6.49999,8.39999 6.49999,8.10825 6.3841,7.82846 6.17781,7.62217 5.97152,7.41588 5.69173,7.29999 5.39999,7.29999 c -0.29174,0 -0.57153,0.11589 -0.77782,0.32218 -0.20629,0.20629 -0.32218,0.48608 -0.32218,0.77782 0,0.29174 0.11589,0.57153 0.32218,0.77782 0.20629,0.20629 0.48608,0.32218 0.77782,0.32218 z m 0,3.30001 c 0.29174,0 0.57153,-0.1159 0.77782,-0.3222 C 6.3841,12.2715 6.49999,11.9917 6.49999,11.7 6.49999,11.4082 6.3841,11.1285 6.17781,10.9222 5.97152,10.7159 5.69173,10.6 5.39999,10.6 c -0.29174,0 -0.57153,0.1159 -0.77782,0.3222 -0.20629,0.2063 -0.32218,0.486 -0.32218,0.7778 0,0.2917 0.11589,0.5715 0.32218,0.7778 C 4.82846,12.6841 5.10825,12.8 5.39999,12.8 Z m 3.3,0 c 0.29174,0 0.57153,-0.1159 0.77782,-0.3222 C 9.6841,12.2715 9.79999,11.9917 9.79999,11.7 9.79999,11.4082 9.6841,11.1285 9.47781,10.9222 9.27152,10.7159 8.99173,10.6 8.69999,10.6 c -0.29174,0 -0.57153,0.1159 -0.77782,0.3222 -0.20629,0.2063 -0.32218,0.486 -0.32218,0.7778 0,0.2917 0.11589,0.5715 0.32218,0.7778 C 8.12846,12.6841 8.40825,12.8 8.69999,12.8 Z m 0,-3.30001 c 0.29174,0 0.57153,-0.11589 0.77782,-0.32218 C 9.6841,8.97152 9.79999,8.69173 9.79999,8.39999 9.79999,8.10825 9.6841,7.82846 9.47781,7.62217 9.27152,7.41588 8.99173,7.29999 8.69999,7.29999 c -0.29174,0 -0.57153,0.11589 -0.77782,0.32218 -0.20629,0.20629 -0.32218,0.48608 -0.32218,0.77782 0,0.29174 0.11589,0.57153 0.32218,0.77782 0.20629,0.20629 0.48608,0.32218 0.77782,0.32218 z m 3.30001,0 c 0.2917,0 0.5715,-0.11589 0.7778,-0.32218 C 12.9841,8.97152 13.1,8.69173 13.1,8.39999 13.1,8.10825 12.9841,7.82846 12.7778,7.62217 12.5715,7.41588 12.2917,7.29999 12,7.29999 c -0.2918,0 -0.5715,0.11589 -0.7778,0.32218 C 11.0159,7.82846 10.9,8.10825 10.9,8.39999 c 0,0.29174 0.1159,0.57153 0.3222,0.77782 C 11.4285,9.3841 11.7082,9.49999 12,9.49999 Z M 12,12.8 c 0.2917,0 0.5715,-0.1159 0.7778,-0.3222 C 12.9841,12.2715 13.1,11.9917 13.1,11.7 13.1,11.4082 12.9841,11.1285 12.7778,10.9222 12.5715,10.7159 12.2917,10.6 12,10.6 c -0.2918,0 -0.5715,0.1159 -0.7778,0.3222 C 11.0159,11.1285 10.9,11.4082 10.9,11.7 c 0,0.2917 0.1159,0.5715 0.3222,0.7778 C 11.4285,12.6841 11.7082,12.8 12,12.8 Z m 3.3,-3.30001 c 0.2917,0 0.5715,-0.11589 0.7778,-0.32218 C 16.2841,8.97152 16.4,8.69173 16.4,8.39999 16.4,8.10825 16.2841,7.82846 16.0778,7.62217 15.8715,7.41588 15.5917,7.29999 15.3,7.29999 c -0.2917,0 -0.5715,0.11589 -0.7778,0.32218 C 14.3159,7.82846 14.2,8.10825 14.2,8.39999 c 0,0.29174 0.1159,0.57153 0.3222,0.77782 0.2063,0.20629 0.4861,0.32218 0.7778,0.32218 z m 0,3.30001 c 0.2917,0 0.5715,-0.1159 0.7778,-0.3222 C 16.2841,12.2715 16.4,11.9917 16.4,11.7 16.4,11.4082 16.2841,11.1285 16.0778,10.9222 15.8715,10.7159 15.5917,10.6 15.3,10.6 c -0.2917,0 -0.5715,0.1159 -0.7778,0.3222 C 14.3159,11.1285 14.2,11.4082 14.2,11.7 c 0,0.2917 0.1159,0.5715 0.3222,0.7778 C 14.7285,12.6841 15.0083,12.8 15.3,12.8 Z m 3.3,-3.30001 c 0.2917,0 0.5715,-0.11589 0.7778,-0.32218 C 19.5841,8.97152 19.7,8.69173 19.7,8.39999 19.7,8.10825 19.5841,7.82846 19.3778,7.62217 19.1715,7.41588 18.8917,7.29999 18.6,7.29999 c -0.2918,0 -0.5715,0.11589 -0.7778,0.32218 C 17.6159,7.82846 17.5,8.10825 17.5,8.39999 c 0,0.29174 0.1159,0.57153 0.3222,0.77782 0.2063,0.20629 0.486,0.32218 0.7778,0.32218 z m 0,3.30001 c 0.2917,0 0.5715,-0.1159 0.7778,-0.3222 C 19.5841,12.2715 19.7,11.9917 19.7,11.7 19.7,11.4082 19.5841,11.1285 19.3778,10.9222 19.1715,10.7159 18.8917,10.6 18.6,10.6 c -0.2918,0 -0.5715,0.1159 -0.7778,0.3222 C 17.6159,11.1285 17.5,11.4082 17.5,11.7 c 0,0.2917 0.1159,0.5715 0.3222,0.7778 0.2063,0.2063 0.486,0.3222 0.7778,0.3222 z m -0.275,3.3 c 0,0.2188 -0.0869,0.4286 -0.2416,0.5834 C 17.9286,16.8381 17.7188,16.925 17.5,16.925 H 6.49999 C 6.28118,16.925 6.07134,16.8381 5.91662,16.6834 5.76191,16.5286 5.67499,16.3188 5.67499,16.1 c 0,-0.2188 0.08692,-0.4287 0.24163,-0.5834 C 6.07134,15.3619 6.28118,15.275 6.49999,15.275 H 17.5 c 0.2188,0 0.4286,0.0869 0.5834,0.2416 0.1547,0.1547 0.2416,0.3646 0.2416,0.5834 z"
         fill="url(#paint1_linear_8_508)"
         id="path2"
         style="fill:url(#paint1_linear_8_508)" /></g></g><g
     style="clip-rule:evenodd;fill-rule:evenodd;stroke-linecap:round;stroke-linejoin:round;stroke-miterlimit:1.5"
     id="22-22-keyboard-layout"
     transform="translate(0,10.000011)"><rect
       y="-5.0178256"
       x="0.22954936"
       height="22"
       width="22"
       id="rect830"
       style="fill:#ffffff;fill-opacity:0" /><g
       style="clip-rule:evenodd;fill:none;fill-rule:evenodd;stroke-linecap:round;stroke-linejoin:round;stroke-miterlimit:1.5"
       id="g2"
       transform="matrix(0.81818182,0,0,0.77922078,1.4113676,-3.1347089)"
       inkscape:transform-center-x="1.5873991"
       inkscape:transform-center-y="2.3957262"><path
         opacity="0.4"
         d="M 16.4,4 H 7.6 C 4.4892,4 2.9327,4 1.9669,4.9669 1,5.9327 1,7.4892 1,10.6 v 2.2 c 0,3.1108 0,4.6673 0.9669,5.6331 C 2.9327,19.4 4.4892,19.4 7.6,19.4 h 8.8 c 3.1108,0 4.6673,0 5.6331,-0.9669 C 23,17.4673 23,15.9108 23,12.8 V 10.6 C 23,7.4892 23,5.9327 22.0331,4.9669 21.0673,4 19.5108,4 16.4,4 Z"
         fill="url(#paint0_linear_8_508)"
         id="path1-2"
         style="fill:url(#paint0_linear_8_508-3)" /><path
         d="m 5.39999,9.49999 c 0.29174,0 0.57153,-0.11589 0.77782,-0.32218 C 6.3841,8.97152 6.49999,8.69173 6.49999,8.39999 6.49999,8.10825 6.3841,7.82846 6.17781,7.62217 5.97152,7.41588 5.69173,7.29999 5.39999,7.29999 c -0.29174,0 -0.57153,0.11589 -0.77782,0.32218 -0.20629,0.20629 -0.32218,0.48608 -0.32218,0.77782 0,0.29174 0.11589,0.57153 0.32218,0.77782 0.20629,0.20629 0.48608,0.32218 0.77782,0.32218 z m 0,3.30001 c 0.29174,0 0.57153,-0.1159 0.77782,-0.3222 C 6.3841,12.2715 6.49999,11.9917 6.49999,11.7 6.49999,11.4082 6.3841,11.1285 6.17781,10.9222 5.97152,10.7159 5.69173,10.6 5.39999,10.6 c -0.29174,0 -0.57153,0.1159 -0.77782,0.3222 -0.20629,0.2063 -0.32218,0.486 -0.32218,0.7778 0,0.2917 0.11589,0.5715 0.32218,0.7778 C 4.82846,12.6841 5.10825,12.8 5.39999,12.8 Z m 3.3,0 c 0.29174,0 0.57153,-0.1159 0.77782,-0.3222 C 9.6841,12.2715 9.79999,11.9917 9.79999,11.7 9.79999,11.4082 9.6841,11.1285 9.47781,10.9222 9.27152,10.7159 8.99173,10.6 8.69999,10.6 c -0.29174,0 -0.57153,0.1159 -0.77782,0.3222 -0.20629,0.2063 -0.32218,0.486 -0.32218,0.7778 0,0.2917 0.11589,0.5715 0.32218,0.7778 C 8.12846,12.6841 8.40825,12.8 8.69999,12.8 Z m 0,-3.30001 c 0.29174,0 0.57153,-0.11589 0.77782,-0.32218 C 9.6841,8.97152 9.79999,8.69173 9.79999,8.39999 9.79999,8.10825 9.6841,7.82846 9.47781,7.62217 9.27152,7.41588 8.99173,7.29999 8.69999,7.29999 c -0.29174,0 -0.57153,0.11589 -0.77782,0.32218 -0.20629,0.20629 -0.32218,0.48608 -0.32218,0.77782 0,0.29174 0.11589,0.57153 0.32218,0.77782 0.20629,0.20629 0.48608,0.32218 0.77782,0.32218 z m 3.30001,0 c 0.2917,0 0.5715,-0.11589 0.7778,-0.32218 C 12.9841,8.97152 13.1,8.69173 13.1,8.39999 13.1,8.10825 12.9841,7.82846 12.7778,7.62217 12.5715,7.41588 12.2917,7.29999 12,7.29999 c -0.2918,0 -0.5715,0.11589 -0.7778,0.32218 C 11.0159,7.82846 10.9,8.10825 10.9,8.39999 c 0,0.29174 0.1159,0.57153 0.3222,0.77782 C 11.4285,9.3841 11.7082,9.49999 12,9.49999 Z M 12,12.8 c 0.2917,0 0.5715,-0.1159 0.7778,-0.3222 C 12.9841,12.2715 13.1,11.9917 13.1,11.7 13.1,11.4082 12.9841,11.1285 12.7778,10.9222 12.5715,10.7159 12.2917,10.6 12,10.6 c -0.2918,0 -0.5715,0.1159 -0.7778,0.3222 C 11.0159,11.1285 10.9,11.4082 10.9,11.7 c 0,0.2917 0.1159,0.5715 0.3222,0.7778 C 11.4285,12.6841 11.7082,12.8 12,12.8 Z m 3.3,-3.30001 c 0.2917,0 0.5715,-0.11589 0.7778,-0.32218 C 16.2841,8.97152 16.4,8.69173 16.4,8.39999 16.4,8.10825 16.2841,7.82846 16.0778,7.62217 15.8715,7.41588 15.5917,7.29999 15.3,7.29999 c -0.2917,0 -0.5715,0.11589 -0.7778,0.32218 C 14.3159,7.82846 14.2,8.10825 14.2,8.39999 c 0,0.29174 0.1159,0.57153 0.3222,0.77782 0.2063,0.20629 0.4861,0.32218 0.7778,0.32218 z m 0,3.30001 c 0.2917,0 0.5715,-0.1159 0.7778,-0.3222 C 16.2841,12.2715 16.4,11.9917 16.4,11.7 16.4,11.4082 16.2841,11.1285 16.0778,10.9222 15.8715,10.7159 15.5917,10.6 15.3,10.6 c -0.2917,0 -0.5715,0.1159 -0.7778,0.3222 C 14.3159,11.1285 14.2,11.4082 14.2,11.7 c 0,0.2917 0.1159,0.5715 0.3222,0.7778 C 14.7285,12.6841 15.0083,12.8 15.3,12.8 Z m 3.3,-3.30001 c 0.2917,0 0.5715,-0.11589 0.7778,-0.32218 C 19.5841,8.97152 19.7,8.69173 19.7,8.39999 19.7,8.10825 19.5841,7.82846 19.3778,7.62217 19.1715,7.41588 18.8917,7.29999 18.6,7.29999 c -0.2918,0 -0.5715,0.11589 -0.7778,0.32218 C 17.6159,7.82846 17.5,8.10825 17.5,8.39999 c 0,0.29174 0.1159,0.57153 0.3222,0.77782 0.2063,0.20629 0.486,0.32218 0.7778,0.32218 z m 0,3.30001 c 0.2917,0 0.5715,-0.1159 0.7778,-0.3222 C 19.5841,12.2715 19.7,11.9917 19.7,11.7 19.7,11.4082 19.5841,11.1285 19.3778,10.9222 19.1715,10.7159 18.8917,10.6 18.6,10.6 c -0.2918,0 -0.5715,0.1159 -0.7778,0.3222 C 17.6159,11.1285 17.5,11.4082 17.5,11.7 c 0,0.2917 0.1159,0.5715 0.3222,0.7778 0.2063,0.2063 0.486,0.3222 0.7778,0.3222 z m -0.275,3.3 c 0,0.2188 -0.0869,0.4286 -0.2416,0.5834 C 17.9286,16.8381 17.7188,16.925 17.5,16.925 H 6.49999 C 6.28118,16.925 6.07134,16.8381 5.91662,16.6834 5.76191,16.5286 5.67499,16.3188 5.67499,16.1 c 0,-0.2188 0.08692,-0.4287 0.24163,-0.5834 C 6.07134,15.3619 6.28118,15.275 6.49999,15.275 H 17.5 c 0.2188,0 0.4286,0.0869 0.5834,0.2416 0.1547,0.1547 0.2416,0.3646 0.2416,0.5834 z"
         fill="url(#paint1_linear_8_508)"
         id="path2-9"
         style="fill:url(#paint1_linear_8_508-5)" /></g></g></svg>
