<?xml version="1.0" encoding="UTF-8" standalone="no"?>
<!-- Created with Inkscape (http://www.inkscape.org/) -->

<svg
   width="22"
   height="22"
   id="svg3869"
   version="1.1"
   inkscape:version="1.3 (0e150ed6c4, 2023-07-21)"
   sodipodi:docname="kget.svg"
   viewBox="0 0 22 22"
   xml:space="preserve"
   xmlns:inkscape="http://www.inkscape.org/namespaces/inkscape"
   xmlns:sodipodi="http://sodipodi.sourceforge.net/DTD/sodipodi-0.dtd"
   xmlns="http://www.w3.org/2000/svg"
   xmlns:svg="http://www.w3.org/2000/svg"
   xmlns:rdf="http://www.w3.org/1999/02/22-rdf-syntax-ns#"
   xmlns:cc="http://creativecommons.org/ns#"
   xmlns:dc="http://purl.org/dc/elements/1.1/"><sodipodi:namedview
     id="base"
     pagecolor="#ffffff"
     bordercolor="#666666"
     borderopacity="1.0"
     inkscape:pageopacity="0.0"
     inkscape:pageshadow="2"
     inkscape:zoom="8"
     inkscape:cx="14.6875"
     inkscape:cy="14.875"
     inkscape:document-units="px"
     inkscape:current-layer="22-22-kget"
     showgrid="true"
     fit-margin-top="0"
     fit-margin-left="0"
     fit-margin-right="0"
     fit-margin-bottom="0"
     inkscape:window-width="1920"
     inkscape:window-height="1052"
     inkscape:window-x="0"
     inkscape:window-y="0"
     inkscape:window-maximized="1"
     inkscape:showpageshadow="false"
     viewbox-height="32"
     borderlayer="true"
     inkscape:pagecheckerboard="0"
     inkscape:deskcolor="#d1d1d1"><inkscape:grid
       type="xygrid"
       id="grid4132"
       originx="0"
       originy="-1.4782812e-05"
       spacingy="1"
       spacingx="1"
       units="px"
       visible="true" /></sodipodi:namedview><defs
     id="defs3871"><style
       type="text/css"
       id="current-color-scheme">&#10;      .ColorScheme-Text {&#10;        color:#31363b;&#10;      }&#10;      .ColorScheme-Background {&#10;        color:#eff0f1;&#10;      }&#10;      .ColorScheme-Highlight {&#10;        color:#3daee9;&#10;      }&#10;      .ColorScheme-ViewText {&#10;        color:#31363b;&#10;      }&#10;      .ColorScheme-ViewBackground {&#10;        color:#fcfcfc;&#10;      }&#10;      .ColorScheme-ViewHover {&#10;        color:#93cee9;&#10;      }&#10;      .ColorScheme-ViewFocus{&#10;        color:#3daee9;&#10;      }&#10;      .ColorScheme-ButtonText {&#10;        color:#31363b;&#10;      }&#10;      .ColorScheme-ButtonBackground {&#10;        color:#eff0f1;&#10;      }&#10;      .ColorScheme-ButtonHover {&#10;        color:#93cee9;&#10;      }&#10;      .ColorScheme-ButtonFocus{&#10;        color:#3daee9;&#10;      }&#10;      </style><linearGradient
       id="linearGradient1"><stop
         id="stop00"
         offset="0.0"
         style="stop-color:#7c00b5;stop-opacity:1.0" /><stop
         id="stop01"
         offset="1.0"
         style="stop-color:#6916c5;stop-opacity:0.84958178" /></linearGradient><linearGradient
       id="paint0_linear_343_523"
       x1="22"
       y1="22.5"
       x2="5.3581"
       y2="5.67166"
       gradientUnits="userSpaceOnUse"><stop
         stop-color="#731FFF"
         id="stop3" /><stop
         offset="0.905415"
         stop-color="#EB1AFF"
         id="stop4" /></linearGradient><linearGradient
       id="paint1_linear_343_523"
       x1="22"
       y1="22.5"
       x2="16.4361"
       y2="9.99736"
       gradientUnits="userSpaceOnUse"><stop
         stop-color="#731FFF"
         id="stop5" /><stop
         offset="0.905415"
         stop-color="#EB1AFF"
         id="stop6" /></linearGradient><linearGradient
       id="paint2_linear_343_523"
       x1="22"
       y1="22.4998"
       x2="8.79556"
       y2="6.06548"
       gradientUnits="userSpaceOnUse"><stop
         stop-color="#731FFF"
         id="stop7" /><stop
         offset="0.905415"
         stop-color="#EB1AFF"
         id="stop8" /></linearGradient><linearGradient
       id="paint0_linear_343_523-6"
       x1="22"
       y1="22.5"
       x2="5.3580999"
       y2="5.6716599"
       gradientUnits="userSpaceOnUse"><stop
         stop-color="#731FFF"
         id="stop3-7" /><stop
         offset="0.905415"
         stop-color="#EB1AFF"
         id="stop4-5" /></linearGradient><linearGradient
       id="paint1_linear_343_523-3"
       x1="22"
       y1="22.5"
       x2="16.4361"
       y2="9.9973602"
       gradientUnits="userSpaceOnUse"><stop
         stop-color="#731FFF"
         id="stop5-5" /><stop
         offset="0.905415"
         stop-color="#EB1AFF"
         id="stop6-6" /></linearGradient><linearGradient
       id="paint2_linear_343_523-2"
       x1="22"
       y1="22.4998"
       x2="8.7955599"
       y2="6.0654802"
       gradientUnits="userSpaceOnUse"><stop
         stop-color="#731FFF"
         id="stop7-9" /><stop
         offset="0.905415"
         stop-color="#EB1AFF"
         id="stop8-1" /></linearGradient></defs><metadata
     id="metadata3874"><rdf:RDF><cc:Work
         rdf:about=""><dc:format>image/svg+xml</dc:format><dc:type
           rdf:resource="http://purl.org/dc/dcmitype/StillImage" /><dc:title /></cc:Work></rdf:RDF></metadata><g
     inkscape:label="Capa 1"
     inkscape:groupmode="layer"
     id="layer1"
     transform="translate(-326,-534.36218)"><g
       style="clip-rule:evenodd;fill-rule:evenodd;stroke-linejoin:round;stroke-miterlimit:1.41420996"
       id="22-22-kget"
       transform="translate(326.07031,534.36218)"><rect
         y="0.092106819"
         x="0.032655716"
         height="22"
         width="22"
         id="rect830"
         style="fill:#ffffff;fill-opacity:0;stroke-width:0.940508" /><g
         style="clip-rule:evenodd;fill:none;fill-rule:evenodd;stroke-linejoin:round;stroke-miterlimit:1.41421"
         id="g1"
         transform="translate(-0.96734387,-1.4078931)"><path
           opacity="0.5"
           d="M 2,12.5 C 2,7.786 2,5.429 3.464,3.964 4.93,2.5 7.286,2.5 12,2.5 c 4.714,0 7.071,0 8.535,1.464 C 22,5.43 22,7.786 22,12.5 c 0,4.714 0,7.071 -1.465,8.535 C 19.072,22.5 16.714,22.5 12,22.5 7.286,22.5 4.929,22.5 3.464,21.035 2,19.572 2,17.214 2,12.5 Z"
           fill="url(#paint0_linear_343_523)"
           id="path1"
           style="fill:url(#paint0_linear_343_523)" /><path
           d="M 3.465,21.035 C 4.929,22.5 7.286,22.5 12,22.5 c 4.715,0 7.072,0 8.536,-1.465 1.357,-1.357 1.457,-3.48 1.464,-7.535 h -3.16 c -0.905,0 -1.358,0 -1.755,0.183 -0.398,0.183 -0.693,0.527 -1.282,1.214 l -0.605,0.706 c -0.59,0.687 -0.884,1.031 -1.282,1.214 C 13.518,17 13.066,17 12.161,17 H 11.84 C 10.935,17 10.482,17 10.084,16.817 9.687,16.634 9.392,16.29 8.803,15.603 L 8.197,14.897 C 7.608,14.21 7.314,13.866 6.916,13.683 6.518,13.5 6.066,13.5 5.16,13.5 H 2 c 0.007,4.055 0.107,6.178 1.465,7.535 z"
           fill="url(#paint1_linear_343_523)"
           id="path2-3"
           style="fill:url(#paint1_linear_343_523)" /><path
           d="M 12.53,6.46983 C 12.3894,6.32938 12.1988,6.25049 12,6.25049 c -0.1988,0 -0.3894,0.07889 -0.53,0.21934 l -3.3,3.3 C 8.09631,9.83849 8.03721,9.92129 7.99622,10.0133 c -0.04099,0.092 -0.06303,0.1913 -0.06481,0.292 -0.00178,0.1007 0.01675,0.2007 0.05447,0.2941 0.03772,0.0934 0.09386,0.1782 0.16508,0.2495 0.07122,0.0712 0.15605,0.1273 0.24944,0.1651 0.09339,0.0377 0.19342,0.0562 0.29412,0.0544 0.10071,-0.0018 0.20002,-0.0238 0.29202,-0.0648 0.092,-0.041 0.1748,-0.1001 0.24346,-0.1738 L 10.2257,9.83409 C 10.6037,9.45611 11.25,9.72381 11.25,10.2584 v 6.1294 c 0,0.3349 -0.2755,0.616 -0.608,0.576 -0.2149,-0.0259 -0.3911,-0.0704 -0.558,-0.147 -0.397,-0.183 -0.692,-0.527 -1.281,-1.214 L 8.197,14.8968 C 7.608,14.2098 7.314,13.8658 6.916,13.6828 6.518,13.4998 6.066,13.4998 5.16,13.4998 H 2.60104 c -0.33178,0 -0.60077,0.2706 -0.5991,0.6024 0.01844,3.666 0.17395,5.6445 1.46306,6.9326 1.464,1.465 3.821,1.465 8.535,1.465 4.715,0 7.072,0 8.536,-1.465 1.2882,-1.2881 1.4436,-3.2666 1.4621,-6.9326 0.0016,-0.3318 -0.2674,-0.6024 -0.5991,-0.6024 H 18.84 c -0.905,0 -1.358,0 -1.755,0.183 -0.398,0.183 -0.693,0.527 -1.282,1.214 l -0.605,0.706 c -0.59,0.687 -0.884,1.031 -1.282,1.214 -0.1665,0.0766 -0.3428,0.1212 -0.558,0.147 -0.3325,0.04 -0.608,-0.2411 -0.608,-0.576 v -6.1284 c 0,-0.53459 0.6463,-0.80229 1.0243,-0.42431 L 14.77,10.8308 c 0.0692,0.0716 0.152,0.1287 0.2435,0.168 0.0915,0.0393 0.19,0.0599 0.2896,0.0607 0.0995,8e-4 0.1983,-0.0182 0.2904,-0.0559 0.0922,-0.0378 0.1759,-0.0935 0.2463,-0.164 0.0704,-0.0704 0.126,-0.1542 0.1637,-0.2464 0.0377,-0.0922 0.0566,-0.1909 0.0557,-0.2905 -9e-4,-0.0996 -0.0217,-0.198 -0.061,-0.2895 C 15.9588,9.92171 15.9017,9.83898 15.83,9.76983 Z"
           fill="url(#paint2_linear_343_523)"
           id="path3"
           style="fill:url(#paint2_linear_343_523)" /></g></g><g
       style="clip-rule:evenodd;fill-rule:evenodd;stroke-linejoin:round;stroke-miterlimit:1.41420996"
       id="kget"
       transform="translate(348,524.36219)"><rect
         y="0"
         x="0.10233305"
         height="32"
         width="32"
         id="rect822"
         style="fill:#ffffff;fill-opacity:0;stroke-width:0.975707" /><g
         style="clip-rule:evenodd;fill:none;fill-rule:evenodd;stroke-linejoin:round;stroke-miterlimit:1.41421"
         id="g2"
         transform="matrix(1.4,0,0,1.4,-0.69766695,-1.5)"><path
           opacity="0.5"
           d="M 2,12.5 C 2,7.786 2,5.429 3.464,3.964 4.93,2.5 7.286,2.5 12,2.5 c 4.714,0 7.071,0 8.535,1.464 C 22,5.43 22,7.786 22,12.5 c 0,4.714 0,7.071 -1.465,8.535 C 19.072,22.5 16.714,22.5 12,22.5 7.286,22.5 4.929,22.5 3.464,21.035 2,19.572 2,17.214 2,12.5 Z"
           fill="url(#paint0_linear_343_523)"
           id="path1-7"
           style="fill:url(#paint0_linear_343_523-6)" /><path
           d="M 3.465,21.035 C 4.929,22.5 7.286,22.5 12,22.5 c 4.715,0 7.072,0 8.536,-1.465 1.357,-1.357 1.457,-3.48 1.464,-7.535 h -3.16 c -0.905,0 -1.358,0 -1.755,0.183 -0.398,0.183 -0.693,0.527 -1.282,1.214 l -0.605,0.706 c -0.59,0.687 -0.884,1.031 -1.282,1.214 C 13.518,17 13.066,17 12.161,17 H 11.84 C 10.935,17 10.482,17 10.084,16.817 9.687,16.634 9.392,16.29 8.803,15.603 L 8.197,14.897 C 7.608,14.21 7.314,13.866 6.916,13.683 6.518,13.5 6.066,13.5 5.16,13.5 H 2 c 0.007,4.055 0.107,6.178 1.465,7.535 z"
           fill="url(#paint1_linear_343_523)"
           id="path2-3-0"
           style="fill:url(#paint1_linear_343_523-3)" /><path
           d="M 12.53,6.46983 C 12.3894,6.32938 12.1988,6.25049 12,6.25049 c -0.1988,0 -0.3894,0.07889 -0.53,0.21934 l -3.3,3.3 C 8.09631,9.83849 8.03721,9.92129 7.99622,10.0133 c -0.04099,0.092 -0.06303,0.1913 -0.06481,0.292 -0.00178,0.1007 0.01675,0.2007 0.05447,0.2941 0.03772,0.0934 0.09386,0.1782 0.16508,0.2495 0.07122,0.0712 0.15605,0.1273 0.24944,0.1651 0.09339,0.0377 0.19342,0.0562 0.29412,0.0544 0.10071,-0.0018 0.20002,-0.0238 0.29202,-0.0648 0.092,-0.041 0.1748,-0.1001 0.24346,-0.1738 L 10.2257,9.83409 C 10.6037,9.45611 11.25,9.72381 11.25,10.2584 v 6.1294 c 0,0.3349 -0.2755,0.616 -0.608,0.576 -0.2149,-0.0259 -0.3911,-0.0704 -0.558,-0.147 -0.397,-0.183 -0.692,-0.527 -1.281,-1.214 L 8.197,14.8968 C 7.608,14.2098 7.314,13.8658 6.916,13.6828 6.518,13.4998 6.066,13.4998 5.16,13.4998 H 2.60104 c -0.33178,0 -0.60077,0.2706 -0.5991,0.6024 0.01844,3.666 0.17395,5.6445 1.46306,6.9326 1.464,1.465 3.821,1.465 8.535,1.465 4.715,0 7.072,0 8.536,-1.465 1.2882,-1.2881 1.4436,-3.2666 1.4621,-6.9326 0.0016,-0.3318 -0.2674,-0.6024 -0.5991,-0.6024 H 18.84 c -0.905,0 -1.358,0 -1.755,0.183 -0.398,0.183 -0.693,0.527 -1.282,1.214 l -0.605,0.706 c -0.59,0.687 -0.884,1.031 -1.282,1.214 -0.1665,0.0766 -0.3428,0.1212 -0.558,0.147 -0.3325,0.04 -0.608,-0.2411 -0.608,-0.576 v -6.1284 c 0,-0.53459 0.6463,-0.80229 1.0243,-0.42431 L 14.77,10.8308 c 0.0692,0.0716 0.152,0.1287 0.2435,0.168 0.0915,0.0393 0.19,0.0599 0.2896,0.0607 0.0995,8e-4 0.1983,-0.0182 0.2904,-0.0559 0.0922,-0.0378 0.1759,-0.0935 0.2463,-0.164 0.0704,-0.0704 0.126,-0.1542 0.1637,-0.2464 0.0377,-0.0922 0.0566,-0.1909 0.0557,-0.2905 -9e-4,-0.0996 -0.0217,-0.198 -0.061,-0.2895 C 15.9588,9.92171 15.9017,9.83898 15.83,9.76983 Z"
           fill="url(#paint2_linear_343_523)"
           id="path3-9"
           style="fill:url(#paint2_linear_343_523-2)" /></g></g></g></svg>
