<?xml version="1.0" encoding="UTF-8" standalone="no"?>
<!-- Created with Inkscape (http://www.inkscape.org/) -->

<svg
   width="32"
   height="32"
   id="svg3869"
   version="1.1"
   inkscape:version="1.3 (0e150ed6c4, 2023-07-21)"
   sodipodi:docname="kgpg.svg"
   viewBox="0 0 32 32"
   xml:space="preserve"
   xmlns:inkscape="http://www.inkscape.org/namespaces/inkscape"
   xmlns:sodipodi="http://sodipodi.sourceforge.net/DTD/sodipodi-0.dtd"
   xmlns="http://www.w3.org/2000/svg"
   xmlns:svg="http://www.w3.org/2000/svg"
   xmlns:rdf="http://www.w3.org/1999/02/22-rdf-syntax-ns#"
   xmlns:cc="http://creativecommons.org/ns#"
   xmlns:dc="http://purl.org/dc/elements/1.1/"><sodipodi:namedview
     id="base"
     pagecolor="#ffffff"
     bordercolor="#666666"
     borderopacity="1.0"
     inkscape:pageopacity="0.0"
     inkscape:pageshadow="2"
     inkscape:zoom="8"
     inkscape:cx="18.0625"
     inkscape:cy="20.625"
     inkscape:document-units="px"
     inkscape:current-layer="kgpg"
     showgrid="true"
     fit-margin-top="0"
     fit-margin-left="0"
     fit-margin-right="0"
     fit-margin-bottom="0"
     inkscape:window-width="1920"
     inkscape:window-height="1052"
     inkscape:window-x="0"
     inkscape:window-y="0"
     inkscape:window-maximized="1"
     inkscape:showpageshadow="false"
     inkscape:pagecheckerboard="0"
     inkscape:deskcolor="#d1d1d1"><inkscape:grid
       type="xygrid"
       id="grid4132"
       originx="0.053056717"
       originy="0.18025336"
       spacingy="1"
       spacingx="1"
       units="px"
       visible="true" /></sodipodi:namedview><defs
     id="defs3871"><style
       type="text/css"
       id="current-color-scheme">&#10;      .ColorScheme-Text {&#10;        color:#31363b;&#10;      }&#10;      .ColorScheme-Background {&#10;        color:#eff0f1;&#10;      }&#10;      .ColorScheme-Highlight {&#10;        color:#3daee9;&#10;      }&#10;      .ColorScheme-ViewText {&#10;        color:#31363b;&#10;      }&#10;      .ColorScheme-ViewBackground {&#10;        color:#fcfcfc;&#10;      }&#10;      .ColorScheme-ViewHover {&#10;        color:#93cee9;&#10;      }&#10;      .ColorScheme-ViewFocus{&#10;        color:#3daee9;&#10;      }&#10;      .ColorScheme-ButtonText {&#10;        color:#31363b;&#10;      }&#10;      .ColorScheme-ButtonBackground {&#10;        color:#eff0f1;&#10;      }&#10;      .ColorScheme-ButtonHover {&#10;        color:#93cee9;&#10;      }&#10;      .ColorScheme-ButtonFocus{&#10;        color:#3daee9;&#10;      }&#10;      </style><linearGradient
       id="linearGradient1"><stop
         id="stop00"
         offset="0.0"
         style="stop-color:#7c00b5;stop-opacity:1.0" /><stop
         id="stop01"
         offset="1.0"
         style="stop-color:#6916c5;stop-opacity:0.84958178" /></linearGradient><linearGradient
       id="paint0_linear_8_552"
       x1="3.04651"
       y1="16"
       x2="19.2481"
       y2="16"
       gradientUnits="userSpaceOnUse"><stop
         stop-color="#5570FF"
         id="stop2" /><stop
         offset="1"
         stop-color="#4DD3FF"
         id="stop3" /></linearGradient><linearGradient
       id="paint1_linear_8_552"
       x1="6.30233"
       y1="8.9999905"
       x2="16.6124"
       y2="8.9999905"
       gradientUnits="userSpaceOnUse"><stop
         stop-color="#5570FF"
         id="stop4" /><stop
         offset="1"
         stop-color="#4DD3FF"
         id="stop5" /></linearGradient></defs><metadata
     id="metadata3874"><rdf:RDF><cc:Work
         rdf:about=""><dc:format>image/svg+xml</dc:format><dc:type
           rdf:resource="http://purl.org/dc/dcmitype/StillImage" /></cc:Work></rdf:RDF></metadata><g
     inkscape:label="Capa 1"
     inkscape:groupmode="layer"
     id="layer1"
     transform="translate(-325.94694,-534.18191)"><g
       style="clip-rule:evenodd;fill-rule:evenodd;stroke-linejoin:round;stroke-miterlimit:1.41421"
       id="kgpg"
       transform="translate(326,534.36218)"><rect
         ry="1.6993699"
         y="-0.18027076"
         x="-0.053056717"
         height="32"
         width="32"
         id="rect817"
         style="fill:#ffff00;fill-opacity:0;stroke-width:1.6869;stroke-miterlimit:1.41421;stroke-dasharray:none" /><g
         style="fill:none"
         id="g1"
         transform="matrix(1.25,0,0,1.2440403,0.94694328,1.2022557)"><path
           opacity="0.4"
           d="M 1,16 C 1,12.7007 1,11.0498 1.9669,10.0255 2.9327,9 4.4892,9 7.6,9 h 8.8 c 3.1108,0 4.6673,0 5.6331,1.0255 C 23,11.0498 23,12.7007 23,16 c 0,3.2993 0,4.9502 -0.9669,5.9745 C 21.0673,23 19.5108,23 16.4,23 H 7.6 C 4.4892,23 2.9327,23 1.9669,21.9745 1,20.9502 1,19.2993 1,16 Z"
           fill="url(#paint0_linear_8_552)"
           id="path1"
           style="fill:url(#paint0_linear_8_552)" /><path
           d="m 7.85185,17 c 0.27504,0 0.53882,-0.107 0.7333,-0.2975 0.19448,-0.1906 0.30374,-0.4489 0.30374,-0.7184 0,-0.2694 -0.10926,-0.5278 -0.30374,-0.7183 -0.19448,-0.1905 -0.45826,-0.2975 -0.7333,-0.2975 -0.27504,0 -0.53881,0.107 -0.73329,0.2975 -0.19449,0.1905 -0.30375,0.4489 -0.30375,0.7183 0,0.2695 0.10926,0.5278 0.30375,0.7184 C 7.31304,16.893 7.57681,17 7.85185,17 Z M 12,17 c 0.275,0 0.5388,-0.107 0.7333,-0.2975 0.1945,-0.1906 0.3037,-0.4489 0.3037,-0.7184 0,-0.2694 -0.1092,-0.5278 -0.3037,-0.7183 C 12.5388,15.0753 12.275,14.9683 12,14.9683 c -0.275,0 -0.5388,0.107 -0.7333,0.2975 -0.1945,0.1905 -0.3037,0.4489 -0.3037,0.7183 0,0.2695 0.1092,0.5278 0.3037,0.7184 C 11.4612,16.893 11.725,17 12,17 Z m 5.1852,-1.0159 c 0,0.2695 -0.1093,0.5278 -0.3038,0.7184 C 16.687,16.893 16.4232,17 16.1481,17 c -0.275,0 -0.5388,-0.107 -0.7332,-0.2975 -0.1945,-0.1906 -0.3038,-0.4489 -0.3038,-0.7184 0,-0.2694 0.1093,-0.5278 0.3038,-0.7183 0.1944,-0.1905 0.4582,-0.2975 0.7332,-0.2975 0.2751,0 0.5389,0.107 0.7333,0.2975 0.1945,0.1905 0.3038,0.4489 0.3038,0.7183 z M 6.55556,7.85714 c 0,-1.41448 0.5736,-2.77104 1.59464,-3.77123 1.02103,-1.0002 2.4058,-1.5621 3.8498,-1.5621 1.444,0 2.8288,0.5619 3.8498,1.5621 1.021,1.00019 1.5946,2.35675 1.5946,3.77123 v 1.28879 c 0,0.41361 0.384,0.74891 0.7975,0.76118 C 18.6791,9.9201 19,9.57156 19,9.13413 V 7.85714 C 19,6.03852 18.2625,4.29437 16.9497,3.00841 15.637,1.72245 13.8565,1 12,1 10.1435,1 8.36301,1.72245 7.05025,3.00841 5.7375,4.29437 5,6.03852 5,7.85714 V 9.1405 C 5,9.57604 5.36795,9.91992 5.80326,9.90588 6.21885,9.89247 6.55556,9.55634 6.55556,9.14054 Z"
           fill="url(#paint1_linear_8_552)"
           stroke="url(#paint2_linear_8_552)"
           id="path2"
           style="fill:url(#paint1_linear_8_552);stroke:url(#paint1_linear_8_552)" /></g></g></g></svg>
