<?xml version="1.0" encoding="UTF-8" standalone="no"?>
<!-- Created with Inkscape (http://www.inkscape.org/) -->

<svg
   width="22"
   height="22"
   id="svg3869"
   version="1.1"
   inkscape:version="1.3 (0e150ed6c4, 2023-07-21)"
   sodipodi:docname="konv_message.svg"
   viewBox="0 0 22 22"
   xml:space="preserve"
   xmlns:inkscape="http://www.inkscape.org/namespaces/inkscape"
   xmlns:sodipodi="http://sodipodi.sourceforge.net/DTD/sodipodi-0.dtd"
   xmlns="http://www.w3.org/2000/svg"
   xmlns:svg="http://www.w3.org/2000/svg"
   xmlns:rdf="http://www.w3.org/1999/02/22-rdf-syntax-ns#"
   xmlns:cc="http://creativecommons.org/ns#"
   xmlns:dc="http://purl.org/dc/elements/1.1/"><defs
     id="defs3871"><style
       type="text/css"
       id="current-color-scheme">&#10;      .ColorScheme-Text {&#10;        color:#31363b;&#10;      }&#10;      .ColorScheme-Background {&#10;        color:#eff0f1;&#10;      }&#10;      .ColorScheme-Highlight {&#10;        color:#3daee9;&#10;      }&#10;      .ColorScheme-ViewText {&#10;        color:#31363b;&#10;      }&#10;      .ColorScheme-ViewBackground {&#10;        color:#fcfcfc;&#10;      }&#10;      .ColorScheme-ViewHover {&#10;        color:#93cee9;&#10;      }&#10;      .ColorScheme-ViewFocus{&#10;        color:#3daee9;&#10;      }&#10;      .ColorScheme-ButtonText {&#10;        color:#31363b;&#10;      }&#10;      .ColorScheme-ButtonBackground {&#10;        color:#eff0f1;&#10;      }&#10;      .ColorScheme-ButtonHover {&#10;        color:#93cee9;&#10;      }&#10;      .ColorScheme-ButtonFocus{&#10;        color:#3daee9;&#10;      }&#10;      </style><linearGradient
       id="paint0_linear_26_79"
       x1="32"
       y1="25"
       x2="33"
       y2="57.5"
       gradientUnits="userSpaceOnUse"><stop
         stop-color="#FFE600"
         id="stop2" /><stop
         offset="0.81623"
         stop-color="#FCF39F"
         id="stop3" /></linearGradient><linearGradient
       id="paint1_linear_26_79"
       x1="32"
       y1="38.6665"
       x2="32"
       y2="20"
       gradientUnits="userSpaceOnUse"><stop
         stop-color="#FDA700"
         id="stop4" /><stop
         offset="1"
         stop-color="#FFDE00"
         id="stop5" /></linearGradient></defs><sodipodi:namedview
     id="base"
     pagecolor="#ffffff"
     bordercolor="#666666"
     borderopacity="1.0"
     inkscape:pageopacity="0.0"
     inkscape:pageshadow="2"
     inkscape:zoom="11.313708"
     inkscape:cx="11.00435"
     inkscape:cy="9.7227187"
     inkscape:document-units="px"
     inkscape:current-layer="konv_message"
     showgrid="true"
     fit-margin-top="0"
     fit-margin-left="0"
     fit-margin-right="0"
     fit-margin-bottom="0"
     inkscape:window-width="1920"
     inkscape:window-height="1052"
     inkscape:window-x="0"
     inkscape:window-y="0"
     inkscape:window-maximized="1"
     inkscape:showpageshadow="false"
     inkscape:pagecheckerboard="0"
     inkscape:deskcolor="#d1d1d1"><inkscape:grid
       type="xygrid"
       id="grid4132"
       originx="0"
       originy="0"
       spacingy="1"
       spacingx="1"
       units="px"
       visible="true" /></sodipodi:namedview><metadata
     id="metadata3874"><rdf:RDF><cc:Work
         rdf:about=""><dc:format>image/svg+xml</dc:format><dc:type
           rdf:resource="http://purl.org/dc/dcmitype/StillImage" /><dc:title /></cc:Work></rdf:RDF></metadata><g
     inkscape:label="Capa 1"
     inkscape:groupmode="layer"
     id="layer1"
     transform="translate(-326,-534.3622)"><g
       style="clip-rule:evenodd;fill-rule:evenodd;stroke-linejoin:round;stroke-miterlimit:1.41420996"
       id="konv_message"
       transform="translate(326,534.3622)"><rect
         y="0.15002221"
         x="-0.62377304"
         height="22"
         width="22"
         id="rect822"
         style="fill:#ffffff;fill-opacity:0;stroke-width:0.902566" /><g
         style="fill:none"
         id="g1"
         transform="matrix(0.32142857,0,0,0.30641728,0.09051226,1.4243531)"><path
           opacity="0.4"
           fill-rule="evenodd"
           clip-rule="evenodd"
           d="M 47.1667,4 H 16.8333 C 13.431,4.00432 10.1694,5.35779 7.76357,7.76357 5.35779,10.1694 4.00432,13.431 4,16.8333 v 21 c 0.00432,3.4023 1.35779,6.664 3.76357,9.0698 2.40583,2.4058 5.66743,3.7592 9.06973,3.7636 h 3.3554 l 9.5666,7.9986 c 0.6296,0.5263 1.4241,0.8146 2.2447,0.8146 0.8206,0 1.6151,-0.2883 2.2447,-0.8146 l 9.5666,-7.9986 h 3.3554 c 3.4023,-0.0044 6.6639,-1.3578 9.0697,-3.7636 2.4058,-2.4058 3.7593,-5.6675 3.7636,-9.0698 v -21 C 59.9957,13.431 58.6422,10.1694 56.2364,7.76357 53.8306,5.35779 50.569,4.00432 47.1667,4 Z"
           fill="url(#paint0_linear_26_79)"
           id="path1"
           style="fill:url(#paint0_linear_26_79)" /><path
           fill-rule="evenodd"
           clip-rule="evenodd"
           d="m 21.5,27 h 7 c 0.9283,0 1.8185,-0.3687 2.4749,-1.0251 C 31.6313,25.3185 32,24.4283 32,23.5 32,22.5717 31.6313,21.6815 30.9749,21.0251 30.3185,20.3687 29.4283,20 28.5,20 h -7 c -0.9283,0 -1.8185,0.3687 -2.4749,1.0251 C 18.3687,21.6815 18,22.5717 18,23.5 c 0,0.9283 0.3687,1.8185 1.0251,2.4749 C 19.6815,26.6313 20.5717,27 21.5,27 Z m -2.4749,5.6916 c 0.6564,-0.6563 1.5466,-1.0251 2.4749,-1.0251 h 21 c 0.9283,0 1.8185,0.3688 2.4749,1.0251 C 45.6312,33.348 46,34.2382 46,35.1665 c 0,0.9283 -0.3688,1.8185 -1.0251,2.4749 -0.6564,0.6564 -1.5466,1.0251 -2.4749,1.0251 h -21 c -0.9283,0 -1.8185,-0.3687 -2.4749,-1.0251 C 18.3687,36.985 18,36.0948 18,35.1665 c 0,-0.9283 0.3687,-1.8185 1.0251,-2.4749 z"
           fill="url(#paint1_linear_26_79)"
           id="path2-3"
           style="fill:url(#paint1_linear_26_79)" /></g></g></g></svg>
