<?xml version="1.0" encoding="UTF-8" standalone="no"?>
<!-- Created with Inkscape (http://www.inkscape.org/) -->

<svg
   id="svg4153"
   version="1.1"
   inkscape:version="1.3 (0e150ed6c4, 2023-07-21)"
   width="32"
   height="32"
   sodipodi:docname="korgac.svg"
   viewBox="0 0 32 32"
   xml:space="preserve"
   xmlns:inkscape="http://www.inkscape.org/namespaces/inkscape"
   xmlns:sodipodi="http://sodipodi.sourceforge.net/DTD/sodipodi-0.dtd"
   xmlns="http://www.w3.org/2000/svg"
   xmlns:svg="http://www.w3.org/2000/svg"
   xmlns:rdf="http://www.w3.org/1999/02/22-rdf-syntax-ns#"
   xmlns:cc="http://creativecommons.org/ns#"
   xmlns:dc="http://purl.org/dc/elements/1.1/"><sodipodi:namedview
     pagecolor="#ffffff"
     bordercolor="#666666"
     borderopacity="1"
     objecttolerance="10"
     gridtolerance="10000"
     guidetolerance="10"
     inkscape:pageopacity="0"
     inkscape:pageshadow="2"
     inkscape:window-width="1920"
     inkscape:window-height="1052"
     id="namedview4155"
     inkscape:document-units="px"
     showgrid="true"
     inkscape:showpageshadow="false"
     borderlayer="true"
     inkscape:zoom="8.0009132"
     inkscape:cx="5.0619222"
     inkscape:cy="14.248374"
     inkscape:window-x="0"
     inkscape:window-y="0"
     inkscape:window-maximized="1"
     inkscape:current-layer="22-22-korgac"
     fit-margin-top="0"
     fit-margin-left="0"
     fit-margin-right="0"
     fit-margin-bottom="0"
     inkscape:pagecheckerboard="false"
     inkscape:deskcolor="#d1d1d1"><inkscape:grid
       type="xygrid"
       id="grid818"
       originx="0"
       originy="0"
       spacingy="1"
       spacingx="1"
       units="px"
       visible="true" /></sodipodi:namedview><metadata
     id="metadata4159"><rdf:RDF><cc:Work
         rdf:about=""><dc:format>image/svg+xml</dc:format><dc:type
           rdf:resource="http://purl.org/dc/dcmitype/StillImage" /><dc:title /></cc:Work></rdf:RDF></metadata><defs
     id="defs4157"><style
       type="text/css"
       id="current-color-scheme">&#10;      .ColorScheme-Text {&#10;        color:#31363b;&#10;      }&#10;      .ColorScheme-Background {&#10;        color:#eff0f1;&#10;      }&#10;      .ColorScheme-Highlight {&#10;        color:#3daee9;&#10;      }&#10;      .ColorScheme-ViewText {&#10;        color:#31363b;&#10;      }&#10;      .ColorScheme-ViewBackground {&#10;        color:#fcfcfc;&#10;      }&#10;      .ColorScheme-ViewHover {&#10;        color:#93cee9;&#10;      }&#10;      .ColorScheme-ViewFocus{&#10;        color:#3daee9;&#10;      }&#10;      .ColorScheme-ButtonText {&#10;        color:#31363b;&#10;      }&#10;      .ColorScheme-ButtonBackground {&#10;        color:#eff0f1;&#10;      }&#10;      .ColorScheme-ButtonHover {&#10;        color:#93cee9;&#10;      }&#10;      .ColorScheme-ButtonFocus{&#10;        color:#3daee9;&#10;      }&#10;      </style><linearGradient
       id="linearGradient1"><stop
         id="stop00"
         offset="0.0"
         style="stop-color:#7c00b5;stop-opacity:1.0" /><stop
         id="stop01"
         offset="1.0"
         style="stop-color:#6916c5;stop-opacity:0.84958178" /></linearGradient><linearGradient
       id="paint0_linear_8_192"
       x1="12.0003"
       y1="1"
       x2="12.0003"
       y2="8.7"
       gradientUnits="userSpaceOnUse"><stop
         stop-color="#DC18FC"
         id="stop3" /><stop
         offset="1"
         stop-color="#8E1EFF"
         id="stop4" /></linearGradient><linearGradient
       id="paint1_linear_8_192"
       x1="12.0002"
       y1="8.70001"
       x2="12.0002"
       y2="23"
       gradientUnits="userSpaceOnUse"><stop
         stop-color="#DC18FC"
         id="stop5" /><stop
         offset="1"
         stop-color="#8E1EFF"
         id="stop6" /></linearGradient><linearGradient
       id="paint2_linear_8_192"
       x1="12.0003"
       y1="12"
       x2="12.0003"
       y2="18.6"
       gradientUnits="userSpaceOnUse"><stop
         stop-color="#DC18FC"
         id="stop7" /><stop
         offset="1"
         stop-color="#8E1EFF"
         id="stop8" /></linearGradient><linearGradient
       id="paint0_linear_8_192-6"
       x1="12.0003"
       y1="1"
       x2="12.0003"
       y2="8.6999998"
       gradientUnits="userSpaceOnUse"><stop
         stop-color="#DC18FC"
         id="stop3-7" /><stop
         offset="1"
         stop-color="#8E1EFF"
         id="stop4-5" /></linearGradient><linearGradient
       id="paint1_linear_8_192-3"
       x1="12.0002"
       y1="8.7000103"
       x2="12.0002"
       y2="23"
       gradientUnits="userSpaceOnUse"><stop
         stop-color="#DC18FC"
         id="stop5-5" /><stop
         offset="1"
         stop-color="#8E1EFF"
         id="stop6-6" /></linearGradient><linearGradient
       id="paint2_linear_8_192-2"
       x1="12.0003"
       y1="12"
       x2="12.0003"
       y2="18.6"
       gradientUnits="userSpaceOnUse"><stop
         stop-color="#DC18FC"
         id="stop7-9" /><stop
         offset="1"
         stop-color="#8E1EFF"
         id="stop8-1" /></linearGradient></defs><inkscape:clipboard
     style="opacity:0.01000001;fill:#00000f;fill-opacity:0;stroke-width:1;stroke-linecap:butt;stroke-linejoin:miter;stroke-miterlimit:4;stroke-dasharray:none;stroke-dashoffset:0;stroke-opacity:1;stroke:none"
     min="0,0"
     max="22,22" /><g
     style="clip-rule:evenodd;fill-rule:evenodd;stroke-linejoin:round;stroke-miterlimit:1.41420996"
     id="22-22-korgac"
     transform="translate(-22,10)"><rect
       y="-4.1080503"
       x="-2.8723333"
       height="22"
       width="22"
       id="rect817"
       style="fill:#ffffff;fill-opacity:0;stroke-width:1.07719" /><g
       style="clip-rule:evenodd;fill:none;fill-rule:evenodd;stroke-linejoin:round;stroke-miterlimit:1.41421"
       id="g2"
       transform="matrix(0.81817069,0,0,0.81818182,-1.6905044,-2.9262323)"><path
         d="m 6.43431,1 c 0.4576,0 0.8283,0.3564 0.8283,0.7964 v 1.606 c 0.7348,-0.0132 1.5587,-0.0132 2.486,-0.0132 h 4.41649 c 0.9262,0 1.7501,0 2.4849,0.0143 V 1.7975 C 16.65,1.3575 17.0207,1 17.4783,1 c 0.4576,0 0.8283,0.3564 0.8283,0.7964 V 3.475 c 1.5895,0.1221 2.6334,0.4224 3.399,1.1605 0.7678,0.737 1.0802,1.7402 1.2067,3.2692 L 23.0003,8.7 H 1.00031 V 7.9036 c 0.1276,-1.529 0.44,-2.5322 1.2067,-3.2692 0.7667,-0.737 1.80949,-1.0384 3.399,-1.1605 V 1.7964 C 5.60601,1.3564 5.97671,1 6.43431,1 Z"
         fill="url(#paint0_linear_8_192)"
         id="path1-7"
         style="fill:url(#paint0_linear_8_192-6)" /><path
         opacity="0.45"
         d="M 23.0003,14.2 V 12 c 0,-0.9229 -0.0044,-2.56849 -0.0187,-3.29999 H 1.01133 C 0.997029,9.43151 1.00033,11.0771 1.00033,12 v 2.2 c 0,4.1481 0,6.2227 1.2892,7.5108 C 3.57763,23 5.65113,23 9.80033,23 h 4.39997 c 4.147,0 6.2216,0 7.5108,-1.2892 1.2892,-1.2881 1.2892,-3.3627 1.2892,-7.5108 z"
         fill="url(#paint1_linear_8_192)"
         id="path2-3-0"
         style="fill:url(#paint1_linear_8_192-3)" /><path
         d="m 18.6003,17.5 c 0,0.2917 -0.1159,0.5715 -0.3222,0.7778 -0.2062,0.2063 -0.486,0.3222 -0.7778,0.3222 -0.2917,0 -0.5715,-0.1159 -0.7778,-0.3222 -0.2063,-0.2063 -0.3222,-0.4861 -0.3222,-0.7778 0,-0.2917 0.1159,-0.5715 0.3222,-0.7778 0.2063,-0.2063 0.4861,-0.3222 0.7778,-0.3222 0.2918,0 0.5716,0.1159 0.7778,0.3222 0.2063,0.2063 0.3222,0.4861 0.3222,0.7778 z m 0,-4.4 c 0,0.2917 -0.1159,0.5715 -0.3222,0.7778 -0.2062,0.2063 -0.486,0.3222 -0.7778,0.3222 -0.2917,0 -0.5715,-0.1159 -0.7778,-0.3222 -0.2063,-0.2063 -0.3222,-0.4861 -0.3222,-0.7778 0,-0.2917 0.1159,-0.5715 0.3222,-0.7778 C 16.9288,12.1159 17.2086,12 17.5003,12 c 0.2918,0 0.5716,0.1159 0.7778,0.3222 0.2063,0.2063 0.3222,0.4861 0.3222,0.7778 z m -5.5,4.4 c 0,0.2917 -0.1159,0.5715 -0.3222,0.7778 -0.2062,0.2063 -0.486,0.3222 -0.7778,0.3222 -0.2917,0 -0.5715,-0.1159 -0.7778,-0.3222 -0.2063,-0.2063 -0.3222,-0.4861 -0.3222,-0.7778 0,-0.2917 0.1159,-0.5715 0.3222,-0.7778 0.2063,-0.2063 0.4861,-0.3222 0.7778,-0.3222 0.2918,0 0.5716,0.1159 0.7778,0.3222 0.2063,0.2063 0.3222,0.4861 0.3222,0.7778 z m 0,-4.4 c 0,0.2917 -0.1159,0.5715 -0.3222,0.7778 -0.2062,0.2063 -0.486,0.3222 -0.7778,0.3222 -0.2917,0 -0.5715,-0.1159 -0.7778,-0.3222 -0.2063,-0.2063 -0.3222,-0.4861 -0.3222,-0.7778 0,-0.2917 0.1159,-0.5715 0.3222,-0.7778 C 11.4288,12.1159 11.7086,12 12.0003,12 c 0.2918,0 0.5716,0.1159 0.7778,0.3222 0.2063,0.2063 0.3222,0.4861 0.3222,0.7778 z m -5.49997,4.4 c 0,0.2917 -0.11589,0.5715 -0.32218,0.7778 C 7.07186,18.4841 6.79207,18.6 6.50033,18.6 6.20859,18.6 5.9288,18.4841 5.72251,18.2778 5.51622,18.0715 5.40033,17.7917 5.40033,17.5 c 0,-0.2917 0.11589,-0.5715 0.32218,-0.7778 C 5.9288,16.5159 6.20859,16.4 6.50033,16.4 c 0.29174,0 0.57153,0.1159 0.77782,0.3222 0.20629,0.2063 0.32218,0.4861 0.32218,0.7778 z m 0,-4.4 c 0,0.2917 -0.11589,0.5715 -0.32218,0.7778 C 7.07186,14.0841 6.79207,14.2 6.50033,14.2 6.20859,14.2 5.9288,14.0841 5.72251,13.8778 5.51622,13.6715 5.40033,13.3917 5.40033,13.1 c 0,-0.2917 0.11589,-0.5715 0.32218,-0.7778 C 5.9288,12.1159 6.20859,12 6.50033,12 c 0.29174,0 0.57153,0.1159 0.77782,0.3222 0.20629,0.2063 0.32218,0.4861 0.32218,0.7778 z"
         fill="url(#paint2_linear_8_192)"
         id="path3-9"
         style="fill:url(#paint2_linear_8_192-2)" /></g></g><g
     id="korgac"
     transform="translate(0.13550946,0.28396571)"><rect
       y="-0.0090703145"
       x="-0.45618731"
       height="32"
       width="32"
       id="rect897"
       style="fill:#ffff00;fill-opacity:0;stroke-linecap:butt;stroke-linejoin:miter;paint-order:markers stroke fill" /><g
       style="clip-rule:evenodd;fill:none;fill-rule:evenodd;stroke-linejoin:round;stroke-miterlimit:1.41421"
       id="g1"
       transform="matrix(1.27271,0,0,1.2727273,0.2711013,0.71820209)"><path
         d="m 6.43431,1 c 0.4576,0 0.8283,0.3564 0.8283,0.7964 v 1.606 c 0.7348,-0.0132 1.5587,-0.0132 2.486,-0.0132 h 4.41649 c 0.9262,0 1.7501,0 2.4849,0.0143 V 1.7975 C 16.65,1.3575 17.0207,1 17.4783,1 c 0.4576,0 0.8283,0.3564 0.8283,0.7964 V 3.475 c 1.5895,0.1221 2.6334,0.4224 3.399,1.1605 0.7678,0.737 1.0802,1.7402 1.2067,3.2692 L 23.0003,8.7 H 1.00031 V 7.9036 c 0.1276,-1.529 0.44,-2.5322 1.2067,-3.2692 0.7667,-0.737 1.80949,-1.0384 3.399,-1.1605 V 1.7964 C 5.60601,1.3564 5.97671,1 6.43431,1 Z"
         fill="url(#paint0_linear_8_192)"
         id="path1"
         style="fill:url(#paint0_linear_8_192)" /><path
         opacity="0.45"
         d="M 23.0003,14.2 V 12 c 0,-0.9229 -0.0044,-2.56849 -0.0187,-3.29999 H 1.01133 C 0.997029,9.43151 1.00033,11.0771 1.00033,12 v 2.2 c 0,4.1481 0,6.2227 1.2892,7.5108 C 3.57763,23 5.65113,23 9.80033,23 h 4.39997 c 4.147,0 6.2216,0 7.5108,-1.2892 1.2892,-1.2881 1.2892,-3.3627 1.2892,-7.5108 z"
         fill="url(#paint1_linear_8_192)"
         id="path2-3"
         style="fill:url(#paint1_linear_8_192)" /><path
         d="m 18.6003,17.5 c 0,0.2917 -0.1159,0.5715 -0.3222,0.7778 -0.2062,0.2063 -0.486,0.3222 -0.7778,0.3222 -0.2917,0 -0.5715,-0.1159 -0.7778,-0.3222 -0.2063,-0.2063 -0.3222,-0.4861 -0.3222,-0.7778 0,-0.2917 0.1159,-0.5715 0.3222,-0.7778 0.2063,-0.2063 0.4861,-0.3222 0.7778,-0.3222 0.2918,0 0.5716,0.1159 0.7778,0.3222 0.2063,0.2063 0.3222,0.4861 0.3222,0.7778 z m 0,-4.4 c 0,0.2917 -0.1159,0.5715 -0.3222,0.7778 -0.2062,0.2063 -0.486,0.3222 -0.7778,0.3222 -0.2917,0 -0.5715,-0.1159 -0.7778,-0.3222 -0.2063,-0.2063 -0.3222,-0.4861 -0.3222,-0.7778 0,-0.2917 0.1159,-0.5715 0.3222,-0.7778 C 16.9288,12.1159 17.2086,12 17.5003,12 c 0.2918,0 0.5716,0.1159 0.7778,0.3222 0.2063,0.2063 0.3222,0.4861 0.3222,0.7778 z m -5.5,4.4 c 0,0.2917 -0.1159,0.5715 -0.3222,0.7778 -0.2062,0.2063 -0.486,0.3222 -0.7778,0.3222 -0.2917,0 -0.5715,-0.1159 -0.7778,-0.3222 -0.2063,-0.2063 -0.3222,-0.4861 -0.3222,-0.7778 0,-0.2917 0.1159,-0.5715 0.3222,-0.7778 0.2063,-0.2063 0.4861,-0.3222 0.7778,-0.3222 0.2918,0 0.5716,0.1159 0.7778,0.3222 0.2063,0.2063 0.3222,0.4861 0.3222,0.7778 z m 0,-4.4 c 0,0.2917 -0.1159,0.5715 -0.3222,0.7778 -0.2062,0.2063 -0.486,0.3222 -0.7778,0.3222 -0.2917,0 -0.5715,-0.1159 -0.7778,-0.3222 -0.2063,-0.2063 -0.3222,-0.4861 -0.3222,-0.7778 0,-0.2917 0.1159,-0.5715 0.3222,-0.7778 C 11.4288,12.1159 11.7086,12 12.0003,12 c 0.2918,0 0.5716,0.1159 0.7778,0.3222 0.2063,0.2063 0.3222,0.4861 0.3222,0.7778 z m -5.49997,4.4 c 0,0.2917 -0.11589,0.5715 -0.32218,0.7778 C 7.07186,18.4841 6.79207,18.6 6.50033,18.6 6.20859,18.6 5.9288,18.4841 5.72251,18.2778 5.51622,18.0715 5.40033,17.7917 5.40033,17.5 c 0,-0.2917 0.11589,-0.5715 0.32218,-0.7778 C 5.9288,16.5159 6.20859,16.4 6.50033,16.4 c 0.29174,0 0.57153,0.1159 0.77782,0.3222 0.20629,0.2063 0.32218,0.4861 0.32218,0.7778 z m 0,-4.4 c 0,0.2917 -0.11589,0.5715 -0.32218,0.7778 C 7.07186,14.0841 6.79207,14.2 6.50033,14.2 6.20859,14.2 5.9288,14.0841 5.72251,13.8778 5.51622,13.6715 5.40033,13.3917 5.40033,13.1 c 0,-0.2917 0.11589,-0.5715 0.32218,-0.7778 C 5.9288,12.1159 6.20859,12 6.50033,12 c 0.29174,0 0.57153,0.1159 0.77782,0.3222 0.20629,0.2063 0.32218,0.4861 0.32218,0.7778 z"
         fill="url(#paint2_linear_8_192)"
         id="path3"
         style="fill:url(#paint2_linear_8_192)" /></g></g></svg>
