<?xml version="1.0" encoding="UTF-8" standalone="no"?>
<svg
   version="1.1"
   id="svg2"
   viewBox="0 0 22 22"
   inkscape:version="1.3 (0e150ed6c4, 2023-07-21)"
   sodipodi:docname="kruler.svg"
   xml:space="preserve"
   xmlns:inkscape="http://www.inkscape.org/namespaces/inkscape"
   xmlns:sodipodi="http://sodipodi.sourceforge.net/DTD/sodipodi-0.dtd"
   xmlns:xlink="http://www.w3.org/1999/xlink"
   xmlns="http://www.w3.org/2000/svg"
   xmlns:svg="http://www.w3.org/2000/svg"
   xmlns:rdf="http://www.w3.org/1999/02/22-rdf-syntax-ns#"
   xmlns:cc="http://creativecommons.org/ns#"
   xmlns:dc="http://purl.org/dc/elements/1.1/"><sodipodi:namedview
     pagecolor="#ffffff"
     bordercolor="#666666"
     borderopacity="1"
     objecttolerance="10"
     gridtolerance="10"
     guidetolerance="10"
     inkscape:pageopacity="0"
     inkscape:pageshadow="2"
     inkscape:window-width="1920"
     inkscape:window-height="1052"
     id="namedview7"
     showgrid="true"
     inkscape:zoom="11.317928"
     inkscape:cx="7.0242539"
     inkscape:cy="8.9238949"
     inkscape:window-x="0"
     inkscape:window-y="0"
     inkscape:window-maximized="1"
     inkscape:current-layer="kruler"
     inkscape:showpageshadow="2"
     inkscape:pagecheckerboard="0"
     inkscape:deskcolor="#d1d1d1"><inkscape:grid
       type="xygrid"
       id="grid815"
       originx="0"
       originy="0"
       spacingy="1"
       spacingx="1"
       units="px"
       visible="true" /></sodipodi:namedview><metadata
     id="metadata10"><rdf:RDF><cc:Work
         rdf:about=""><dc:format>image/svg+xml</dc:format><dc:type
           rdf:resource="http://purl.org/dc/dcmitype/StillImage" /><dc:title /></cc:Work></rdf:RDF></metadata><defs
     id="defs3051"><style
       id="current-color-scheme"
       type="text/css">&#10;      .ColorScheme-Text {&#10;        color:#4d4d4d;&#10;      }&#10;      </style><linearGradient
       id="linearGradient1"><stop
         id="stop00"
         offset="0.0"
         style="stop-color:#7c00b5;stop-opacity:1.0" /><stop
         id="stop01"
         offset="1.0"
         style="stop-color:#6916c5;stop-opacity:0.84958178" /></linearGradient><linearGradient
       id="paint0_linear_54_625"
       x1="4.9875"
       y1="20.3698"
       x2="23.8819"
       y2="2.95699"
       gradientUnits="userSpaceOnUse"><stop
         stop-color="#FE0844"
         id="stop2" /><stop
         offset="1"
         stop-color="#FEB302"
         id="stop3" /></linearGradient><linearGradient
       inkscape:collect="always"
       xlink:href="#paint0_linear_54_625"
       id="linearGradient2"
       gradientUnits="userSpaceOnUse"
       x1="4.9875"
       y1="20.3698"
       x2="23.8819"
       y2="2.95699" /><linearGradient
       inkscape:collect="always"
       xlink:href="#paint0_linear_54_625"
       id="linearGradient4"
       gradientUnits="userSpaceOnUse"
       x1="4.9875"
       y1="20.3698"
       x2="23.8819"
       y2="2.95699" /></defs><g
     id="kruler"><rect
       y="0.056096647"
       x="-0.16294509"
       height="22"
       width="22"
       id="rect894"
       style="fill:#ffffff;fill-opacity:0" /><g
       style="fill:none"
       id="g1"
       transform="matrix(0.81818182,0,0,0.81618136,1.0188731,0.92373705)"><path
         d="m 5.63158,22.8287 c -0.86842,0 -1.72719,-0.2122 -2.57632,-0.6368 C 2.20614,21.7673 1.52105,21.2077 1,20.513 c 0.50175,0 1.01316,-0.1977 1.53421,-0.5929 0.52105,-0.396 0.78158,-0.9703 0.78158,-1.7229 0,-0.9649 0.33772,-1.7851 1.01316,-2.4606 0.67544,-0.6754 1.49561,-1.0131 2.46052,-1.0131 0.96492,0 1.78509,0.3377 2.46053,1.0131 0.67544,0.6755 1.0132,1.4957 1.0132,2.4606 0,1.2737 -0.45355,2.364 -1.36057,3.271 -0.90702,0.907 -1.99737,1.3605 -3.27105,1.3605 z"
         fill="url(#paint0_linear_54_625)"
         id="path1"
         style="fill:url(#linearGradient2)" /><path
         opacity="0.4"
         d="M 9.10529,12.6972 12.2895,15.8814 22.6526,5.51822 C 22.8842,5.28664 23,5.01646 23,4.70769 23,4.39892 22.8842,4.12874 22.6526,3.89717 L 21.0895,2.33401 C 20.8579,2.10243 20.5831,1.99127 20.2651,2.00053 19.9462,2.01057 19.6807,2.12173 19.4684,2.33401 Z"
         fill="url(#paint1_linear_54_625)"
         id="path2"
         style="fill:url(#linearGradient4)" /></g></g></svg>
