<?xml version="1.0" encoding="UTF-8" standalone="no"?>
<svg
   id="svg4153"
   version="1.1"
   width="22"
   height="22"
   viewBox="0 0 22 22"
   sodipodi:docname="ktorrent.svg"
   inkscape:version="1.3 (0e150ed6c4, 2023-07-21)"
   xmlns:inkscape="http://www.inkscape.org/namespaces/inkscape"
   xmlns:sodipodi="http://sodipodi.sourceforge.net/DTD/sodipodi-0.dtd"
   xmlns:xlink="http://www.w3.org/1999/xlink"
   xmlns="http://www.w3.org/2000/svg"
   xmlns:svg="http://www.w3.org/2000/svg"
   xmlns:rdf="http://www.w3.org/1999/02/22-rdf-syntax-ns#"
   xmlns:cc="http://creativecommons.org/ns#"
   xmlns:dc="http://purl.org/dc/elements/1.1/"
   xmlns:serif="http://www.serif.com/">
  <sodipodi:namedview
     pagecolor="#ffffff"
     bordercolor="#666666"
     borderopacity="1"
     objecttolerance="10"
     gridtolerance="10"
     guidetolerance="10"
     inkscape:pageopacity="0"
     inkscape:pageshadow="2"
     inkscape:window-width="1920"
     inkscape:window-height="1052"
     id="namedview9"
     showgrid="false"
     inkscape:zoom="10.727273"
     inkscape:cx="14.076271"
     inkscape:cy="11"
     inkscape:window-x="0"
     inkscape:window-y="0"
     inkscape:window-maximized="1"
     inkscape:current-layer="22-22-ktorrent"
     inkscape:showpageshadow="2"
     inkscape:pagecheckerboard="0"
     inkscape:deskcolor="#d1d1d1" />
  <metadata
     id="metadata4159">
    <rdf:RDF>
      <cc:Work
         rdf:about="">
        <dc:format>image/svg+xml</dc:format>
        <dc:type
           rdf:resource="http://purl.org/dc/dcmitype/StillImage" />
        <dc:title />
      </cc:Work>
    </rdf:RDF>
  </metadata>
  <defs
     id="defs4157">
    <style
       type="text/css"
       id="current-color-scheme">&#10;      .ColorScheme-Text {&#10;        color:#31363b;&#10;      }&#10;      .ColorScheme-Background {&#10;        color:#eff0f1;&#10;      }&#10;      .ColorScheme-Highlight {&#10;        color:#3daee9;&#10;      }&#10;      .ColorScheme-ViewText {&#10;        color:#31363b;&#10;      }&#10;      .ColorScheme-ViewBackground {&#10;        color:#fcfcfc;&#10;      }&#10;      .ColorScheme-ViewHover {&#10;        color:#93cee9;&#10;      }&#10;      .ColorScheme-ViewFocus{&#10;        color:#3daee9;&#10;      }&#10;      .ColorScheme-ButtonText {&#10;        color:#31363b;&#10;      }&#10;      .ColorScheme-ButtonBackground {&#10;        color:#eff0f1;&#10;      }&#10;      .ColorScheme-ButtonHover {&#10;        color:#93cee9;&#10;      }&#10;      .ColorScheme-ButtonFocus{&#10;        color:#3daee9;&#10;      }&#10;      </style>
    <linearGradient
       id="linearGradient1">
      <stop
         id="stop00"
         offset="0.0"
         style="stop-color:#7c00b5;stop-opacity:1.0" />
      <stop
         id="stop01"
         offset="1.0"
         style="stop-color:#6916c5;stop-opacity:0.84958178" />
    </linearGradient>
    <linearGradient
       inkscape:collect="always"
       xlink:href="#linearGradient1"
       id="linearGradient3"
       x1="15"
       y1="11"
       x2="29"
       y2="11"
       gradientUnits="userSpaceOnUse" />
    <linearGradient
       inkscape:collect="always"
       xlink:href="#linearGradient1"
       id="linearGradient4"
       x1="3"
       y1="21"
       x2="17"
       y2="21"
       gradientUnits="userSpaceOnUse" />
    <linearGradient
       inkscape:collect="always"
       xlink:href="#linearGradient1"
       id="linearGradient5"
       x1="2"
       y1="11"
       x2="20"
       y2="11"
       gradientUnits="userSpaceOnUse" />
  </defs>
  <g
     style="clip-rule:evenodd;fill-rule:evenodd;stroke-linejoin:round;stroke-miterlimit:1.41420996"
     id="22-22-ktorrent">
    <path
       inkscape:connector-curvature="0"
       id="path2"
       style="fill:url(#linearGradient5)"
       d="M 18,20 H 4 C 2.896,20 2,19.104 2,18 v -1 c 0,-1.104 0.896,-2 2,-2 h 14 c 1.104,0 2,0.896 2,2 v 1 c 0,1.104 -0.896,2 -2,2 z m 0,-4 H 4 c -0.552,0 -1,0.448 -1,1 v 1 c 0,0.552 0.448,1 1,1 h 14 c 0.552,0 1,-0.448 1,-1 v -1 c 0,-0.552 -0.448,-1 -1,-1 z M 13.071,8 h 4.071 L 11.001,14.143 4.858,8 H 9.071 V 2 h 4 z m -1,1 V 3 h -2 V 9 H 7.272 L 11.001,12.729 14.728,9 Z" />
    <path
       style="opacity:0.5;fill:#7700a5;stroke-width:0"
       d="M 18.525403,19.459825 H 3.5429617 L 2.2588322,18.792916 2.6777377,16.245851 3.6875715,15.44392 H 18.445468 l 1.288653,1.616022 -0.388039,1.724906 z"
       id="path6" />
    <rect
       y="0"
       x="0"
       height="22"
       width="22"
       id="rect817"
       style="fill:#ffffff;fill-opacity:0;stroke-width:0.68477458" />
    <path
       style="opacity:0.5;fill:#7700a5;stroke-width:0"
       d="M 12.626019,2.5979792 9.4540721,2.6448426 9.758839,8.4460675 5.9912558,8.4460219 11.02419,13.500238 16.175424,8.4640982 12.823697,8.4891329 Z"
       id="path7" />
  </g>
  <g
     style="clip-rule:evenodd;fill-rule:evenodd;stroke-linejoin:round;stroke-miterlimit:1.41420996"
     id="ktorrent"
     transform="translate(22,-10)">
    <path
       inkscape:connector-curvature="0"
       style="fill:url(#linearGradient4)"
       d="m 13,22 h 4 l -7,7 -7,-7 h 4 v -9 h 6 z M 12,14 H 8 v 9 H 5.414 L 10,27.586 14.586,23 H 12 Z"
       id="path2-0" />
    <path
       style="clip-rule:evenodd;fill-rule:evenodd;stroke-linejoin:round;stroke-miterlimit:1.41420996;opacity:0.5;fill:#7700a5;stroke-width:0"
       d="m 34.469943,3.5339264 -4.896537,-0.00552 v 8.8911286 h -3.443741 l 5.874708,5.874708 5.659582,-5.659583 h -3.322303 z"
       id="path5"
       transform="translate(-22,10)" />
    <path
       inkscape:connector-curvature="0"
       style="fill:url(#linearGradient3)"
       d="m 25,10 h 4 l -7,-7 -7,7 h 4 v 9 h 6 z m -1,8 H 20 V 9 H 17.414 L 22,4.414 26.586,9 H 24 Z"
       serif:id="path2-0"
       id="path2-01" />
    <rect
       y="0"
       x="0"
       height="32"
       width="32"
       id="rect817-2"
       style="fill:#ffffff;fill-opacity:0;stroke-width:1.01072752" />
  </g>
</svg>
