<?xml version="1.0" encoding="UTF-8" standalone="no"?>
<svg
   id="svg4153"
   version="1.1"
   width="22"
   height="22"
   viewBox="0 0 22 22"
   sodipodi:docname="mail.svg"
   inkscape:version="1.3 (0e150ed6c4, 2023-07-21)"
   xml:space="preserve"
   xmlns:inkscape="http://www.inkscape.org/namespaces/inkscape"
   xmlns:sodipodi="http://sodipodi.sourceforge.net/DTD/sodipodi-0.dtd"
   xmlns="http://www.w3.org/2000/svg"
   xmlns:svg="http://www.w3.org/2000/svg"
   xmlns:rdf="http://www.w3.org/1999/02/22-rdf-syntax-ns#"
   xmlns:cc="http://creativecommons.org/ns#"
   xmlns:dc="http://purl.org/dc/elements/1.1/"><sodipodi:namedview
     pagecolor="#ffffff"
     bordercolor="#666666"
     borderopacity="1"
     objecttolerance="10"
     gridtolerance="10"
     guidetolerance="10"
     inkscape:pageopacity="0"
     inkscape:pageshadow="2"
     inkscape:window-width="1920"
     inkscape:window-height="1052"
     id="namedview12"
     showgrid="true"
     inkscape:zoom="7.5853273"
     inkscape:cx="-0.5932506"
     inkscape:cy="17.533851"
     inkscape:window-x="0"
     inkscape:window-y="0"
     inkscape:window-maximized="1"
     inkscape:current-layer="mail-unread"
     inkscape:showpageshadow="2"
     inkscape:pagecheckerboard="0"
     inkscape:deskcolor="#d1d1d1"><inkscape:grid
       type="xygrid"
       id="grid832"
       originx="0"
       originy="0"
       spacingy="1"
       spacingx="1"
       units="px"
       visible="true" /></sodipodi:namedview><metadata
     id="metadata4159"><rdf:RDF><cc:Work
         rdf:about=""><dc:format>image/svg+xml</dc:format><dc:type
           rdf:resource="http://purl.org/dc/dcmitype/StillImage" /><dc:title /></cc:Work></rdf:RDF></metadata><defs
     id="defs4157"><style
       type="text/css"
       id="current-color-scheme">&#10;      .ColorScheme-Text {&#10;        color:#31363b;&#10;      }&#10;      .ColorScheme-Background {&#10;        color:#eff0f1;&#10;      }&#10;      .ColorScheme-Highlight {&#10;        color:#3daee9;&#10;      }&#10;      .ColorScheme-ViewText {&#10;        color:#31363b;&#10;      }&#10;      .ColorScheme-ViewBackground {&#10;        color:#fcfcfc;&#10;      }&#10;      .ColorScheme-ViewHover {&#10;        color:#93cee9;&#10;      }&#10;      .ColorScheme-ViewFocus{&#10;        color:#3daee9;&#10;      }&#10;      .ColorScheme-ButtonText {&#10;        color:#31363b;&#10;      }&#10;      .ColorScheme-ButtonBackground {&#10;        color:#eff0f1;&#10;      }&#10;      .ColorScheme-ButtonHover {&#10;        color:#93cee9;&#10;      }&#10;      .ColorScheme-ButtonFocus{&#10;        color:#3daee9;&#10;      }&#10;      </style><linearGradient
       id="linearGradient1"><stop
         id="stop00"
         offset="0.0"
         style="stop-color:#7c00b5;stop-opacity:1.0" /><stop
         id="stop01"
         offset="1.0"
         style="stop-color:#6916c5;stop-opacity:0.84958178" /></linearGradient><linearGradient
       id="paint0_linear_26_123"
       x1="1.59528"
       y1="11.2847"
       x2="17.0444"
       y2="37.3792"
       gradientUnits="userSpaceOnUse"><stop
         stop-color="#F9D423"
         id="stop2" /><stop
         offset="0.515624"
         stop-color="#FF4E50"
         id="stop3" /><stop
         offset="0.991304"
         stop-color="#8A2387"
         id="stop4" /></linearGradient><linearGradient
       id="paint1_linear_26_123"
       x1="2.31849"
       y1="3.14217"
       x2="14.5841"
       y2="26.5056"
       gradientUnits="userSpaceOnUse"><stop
         stop-color="#F9D423"
         id="stop5" /><stop
         offset="0.515624"
         stop-color="#FF4E50"
         id="stop6" /><stop
         offset="0.991304"
         stop-color="#8A2387"
         id="stop7" /></linearGradient><linearGradient
       id="paint0_linear_8_530"
       x1="23.9424"
       y1="2.06802"
       x2="14.8926"
       y2="18.3166"
       gradientUnits="userSpaceOnUse"><stop
         stop-color="#FE7970"
         id="stop3-5" /><stop
         offset="1"
         stop-color="#DC3282"
         id="stop4-3" /></linearGradient><linearGradient
       id="paint1_linear_8_530"
       x1="19.4223"
       y1="6.58014"
       x2="18.458"
       y2="7.53564"
       gradientUnits="userSpaceOnUse"><stop
         stop-color="#FE7970"
         id="stop5-5" /><stop
         offset="1"
         stop-color="#DC3282"
         id="stop6-6" /></linearGradient><linearGradient
       id="paint2_linear_8_530"
       x1="22.9348"
       y1="3.11411"
       x2="5.4018"
       y2="24.365"
       gradientUnits="userSpaceOnUse"><stop
         stop-color="#FE7970"
         id="stop7-2" /><stop
         offset="1"
         stop-color="#DC3282"
         id="stop8" /></linearGradient></defs><g
     style="clip-rule:evenodd;fill-rule:evenodd;stroke-linejoin:round;stroke-miterlimit:1.41420996"
     id="mail-unread"><rect
       y="0.041579548"
       x="22.14393"
       height="22"
       width="22"
       id="rect817"
       style="fill:#ffffff;fill-opacity:0;stroke-width:1.29741" /><g
       style="clip-rule:evenodd;fill:none;fill-rule:evenodd;stroke-linejoin:round;stroke-miterlimit:1.41421"
       id="g2"
       transform="matrix(0.7826087,0,0,0.78947368,23.361322,1.9626329)"><path
         d="M 24,5 C 24,5.79565 23.6839,6.55871 23.1213,7.12132 22.5587,7.68393 21.7956,8 21,8 20.2043,8 19.4413,7.68393 18.8787,7.12132 18.3161,6.55871 18,5.79565 18,5 18,4.20435 18.3161,3.44129 18.8787,2.87868 19.4413,2.31607 20.2043,2 21,2 21.7956,2 22.5587,2.31607 23.1213,2.87868 23.6839,3.44129 24,4.20435 24,5 Z m -6.766,2.464 -1.537,1.28 c -1.026,0.856 -1.738,1.447 -2.34,1.834 -0.582,0.375 -0.977,0.5 -1.357,0.5 -0.38,0 -0.774,-0.125 -1.357,-0.5 C 10.042,10.192 9.32899,9.6 8.30299,8.744 L 5.92799,6.765 C 5.75985,6.62497 5.54296,6.55746 5.32504,6.57734 5.10712,6.59722 4.90603,6.70285 4.76599,6.871 4.62596,7.03915 4.55846,7.25604 4.57833,7.47395 4.59821,7.69187 4.70385,7.89297 4.87199,8.033 l 2.416,2.014 c 0.975,0.812 1.765,1.47 2.463,1.92 0.72601,0.466 1.43401,0.762 2.25001,0.762 0.814,0 1.522,-0.296 2.248,-0.763 0.698,-0.448 1.488,-1.107 2.463,-1.92 L 18.378,8.658 C 17.9265,8.33366 17.5387,7.9289 17.234,7.464 Z"
         fill="url(#paint0_linear_8_530)"
         id="path1-6"
         style="fill:url(#paint0_linear_8_530)" /><path
         d="m 18.454,6.58703 c 0.1311,-0.0236 0.266,-0.01512 0.3931,0.02474 0.1271,0.03986 0.2426,0.1099 0.3368,0.20415 0.0941,0.09424 0.1641,0.20987 0.2038,0.33702 0.0397,0.12715 0.0481,0.26202 0.0243,0.39309 -0.388,-0.2428 -0.7156,-0.57076 -0.958,-0.959 z"
         fill="url(#paint1_linear_8_530)"
         id="path2-7"
         style="fill:url(#paint1_linear_8_530)" /><path
         opacity="0.5"
         d="M 16.958,3.021 C 16.156,3 15.244,3 14.2,3 H 9.8 C 5.652,3 3.577,3 2.289,4.318 1,5.636 1,7.758 1,12 1,16.243 1,18.364 2.289,19.682 3.577,21 5.652,21 9.8,21 h 4.4 c 4.148,0 6.223,0 7.511,-1.318 C 23,18.364 23,16.242 23,12 23,10.933 23,10 22.98,9.18 22.3656,9.48855 21.6875,9.64883 21,9.648 c -2.485,0 -4.5,-2.06 -4.5,-4.603 0,-0.726 0.165,-1.413 0.458,-2.024 z"
         fill="url(#paint2_linear_8_530)"
         id="path3"
         style="fill:url(#paint2_linear_8_530)" /></g></g><g
     id="mail-unread-new"
     transform="translate(22,-21)"><rect
       y="20.84157"
       x="-22.193031"
       height="22"
       width="22"
       id="rect817-2"
       style="clip-rule:evenodd;fill:#ffffff;fill-opacity:0;fill-rule:evenodd;stroke-width:1.29741;stroke-linejoin:round;stroke-miterlimit:1.41421" /><g
       style="clip-rule:evenodd;fill:none;fill-rule:evenodd;stroke-linejoin:round;stroke-miterlimit:1.41421"
       id="g1"
       transform="matrix(0.64285714,0,0,0.59521448,-21.478745,22.555928)"><path
         opacity="0.4"
         d="m 30,21.117 c 0,3.906 -3.136,7.07 -7.042,7.084 H 22.944 9.07 C 5.178,28.201 2,25.051 2,21.145 v -0.014 c 0,0 0.0084,-6.1964 0.0196,-9.3128 0.0014,-0.5852 0.6734,-0.9128 1.1312,-0.5488 3.3264,2.639 9.275,7.4508 9.3492,7.5138 0.994,0.7966 2.254,1.246 3.542,1.246 1.288,0 2.548,-0.4494 3.542,-1.2614 0.0742,-0.049 5.8898,-4.7166 9.2666,-7.399 0.4592,-0.3654 1.134,-0.0378 1.1354,0.546 C 30,15.0074 30,21.117 30,21.117 Z"
         fill="url(#paint0_linear_26_123)"
         id="path1"
         style="fill:url(#paint0_linear_26_123)" /><path
         d="M 29.2666,6.7436 C 28.0542,4.4588 25.6686,3 23.0422,3 H 9.0702 C 6.4438,3 4.0582,4.4588 2.8458,6.7436 2.5742,7.2546 2.703,7.8916 3.1552,8.2528 l 10.395,8.3146 c 0.728,0.588 1.61,0.8806 2.492,0.8806 0.0056,0 0.0098,0 0.014,0 0.0042,0 0.0098,0 0.014,0 0.882,0 1.764,-0.2926 2.492,-0.8806 l 10.395,-8.3146 c 0.4522,-0.3612 0.581,-0.9982 0.3094,-1.5092 z"
         fill="url(#paint1_linear_26_123)"
         id="path2-3"
         style="fill:url(#paint1_linear_26_123)" /></g></g></svg>
