<?xml version="1.0" encoding="UTF-8" standalone="no"?>
<svg
   version="1.1"
   id="svg2"
   viewBox="0 0 54 32"
   inkscape:version="1.3 (0e150ed6c4, 2023-07-21)"
   sodipodi:docname="nepomuk.svg"
   xml:space="preserve"
   xmlns:inkscape="http://www.inkscape.org/namespaces/inkscape"
   xmlns:sodipodi="http://sodipodi.sourceforge.net/DTD/sodipodi-0.dtd"
   xmlns="http://www.w3.org/2000/svg"
   xmlns:svg="http://www.w3.org/2000/svg"
   xmlns:rdf="http://www.w3.org/1999/02/22-rdf-syntax-ns#"
   xmlns:cc="http://creativecommons.org/ns#"
   xmlns:dc="http://purl.org/dc/elements/1.1/"><sodipodi:namedview
     pagecolor="#ffffff"
     bordercolor="#666666"
     borderopacity="1"
     objecttolerance="10"
     gridtolerance="10"
     guidetolerance="10"
     inkscape:pageopacity="0"
     inkscape:pageshadow="2"
     inkscape:window-width="1920"
     inkscape:window-height="1052"
     id="namedview12"
     showgrid="false"
     inkscape:zoom="11.313708"
     inkscape:cx="15.070214"
     inkscape:cy="31.731418"
     inkscape:window-x="0"
     inkscape:window-y="0"
     inkscape:window-maximized="1"
     inkscape:current-layer="22-22-nepomuk"
     inkscape:showpageshadow="2"
     inkscape:pagecheckerboard="0"
     inkscape:deskcolor="#d1d1d1" /><metadata
     id="metadata18"><rdf:RDF><cc:Work
         rdf:about=""><dc:format>image/svg+xml</dc:format><dc:type
           rdf:resource="http://purl.org/dc/dcmitype/StillImage" /><dc:title /></cc:Work></rdf:RDF></metadata><defs
     id="defs3051"><style
       type="text/css"
       id="current-color-scheme">&#10;      .ColorScheme-Text {&#10;        color:#31363b;&#10;      }&#10;      .ColorScheme-Background {&#10;        color:#eff0f1;&#10;      }&#10;      .ColorScheme-Highlight {&#10;        color:#3daee9;&#10;      }&#10;      .ColorScheme-ViewText {&#10;        color:#31363b;&#10;      }&#10;      .ColorScheme-ViewBackground {&#10;        color:#fcfcfc;&#10;      }&#10;      .ColorScheme-ViewHover {&#10;        color:#93cee9;&#10;      }&#10;      .ColorScheme-ViewFocus{&#10;        color:#3daee9;&#10;      }&#10;      .ColorScheme-ButtonText {&#10;        color:#31363b;&#10;      }&#10;      .ColorScheme-ButtonBackground {&#10;        color:#eff0f1;&#10;      }&#10;      .ColorScheme-ButtonHover {&#10;        color:#93cee9;&#10;      }&#10;      .ColorScheme-ButtonFocus{&#10;        color:#3daee9;&#10;      }&#10;      </style><linearGradient
       id="linearGradient1"><stop
         id="stop00"
         offset="0.0"
         style="stop-color:#7c00b5;stop-opacity:1.0" /><stop
         id="stop01"
         offset="1.0"
         style="stop-color:#6916c5;stop-opacity:0.84958178" /></linearGradient><linearGradient
       id="paint0_linear_5_77"
       x1="2"
       y1="14.8189"
       x2="27.6379"
       y2="14.8189"
       gradientUnits="userSpaceOnUse"><stop
         stop-color="#02AA93"
         id="stop3" /><stop
         offset="1"
         stop-color="#67FF80"
         id="stop4" /></linearGradient><linearGradient
       id="paint1_linear_5_77"
       x1="25.1443"
       y1="27.6388"
       x2="29.8653"
       y2="27.6388"
       gradientUnits="userSpaceOnUse"><stop
         stop-color="#02AA93"
         id="stop5" /><stop
         offset="1"
         stop-color="#67FF80"
         id="stop6" /></linearGradient><linearGradient
       id="paint2_linear_5_77"
       x1="9"
       y1="15"
       x2="21"
       y2="15"
       gradientUnits="userSpaceOnUse"><stop
         stop-color="#02AA93"
         id="stop7" /><stop
         offset="1"
         stop-color="#67FF80"
         id="stop8" /></linearGradient><linearGradient
       id="paint0_linear_5_77-6"
       x1="2"
       y1="14.8189"
       x2="27.637899"
       y2="14.8189"
       gradientUnits="userSpaceOnUse"><stop
         stop-color="#02AA93"
         id="stop3-7" /><stop
         offset="1"
         stop-color="#67FF80"
         id="stop4-5" /></linearGradient><linearGradient
       id="paint1_linear_5_77-3"
       x1="25.1443"
       y1="27.6388"
       x2="29.865299"
       y2="27.6388"
       gradientUnits="userSpaceOnUse"><stop
         stop-color="#02AA93"
         id="stop5-5" /><stop
         offset="1"
         stop-color="#67FF80"
         id="stop6-6" /></linearGradient></defs><g
     style="clip-rule:evenodd;fill-rule:evenodd;stroke-linejoin:round;stroke-miterlimit:1.41420996"
     id="nepomuk"
     transform="translate(22)"><rect
       y="0.16569848"
       x="0.95912212"
       height="32"
       width="32"
       id="rect4506"
       style="fill:#ffffff;fill-opacity:0;stroke-width:0.858097" /><g
       style="clip-rule:evenodd;fill:none;fill-rule:evenodd;stroke-linejoin:round;stroke-miterlimit:1.41421"
       id="g1"
       transform="translate(1.0264721,0.16569849)"><path
         opacity="0.5"
         d="m 14.685,27.6371 c 1.6945,0.0178 3.3758,-0.3007 4.9465,-0.937 1.5708,-0.6362 2.9997,-1.5776 4.2043,-2.7696 1.2045,-1.192 2.1608,-2.6111 2.8134,-4.1751 0.6526,-1.5639 0.9886,-3.2418 0.9886,-4.9365 0,-1.6947 -0.336,-3.3725 -0.9886,-4.93649 C 25.9966,8.31843 25.0403,6.89938 23.8358,5.70734 22.6312,4.5153 21.2023,3.57393 19.6315,2.9377 18.0608,2.30146 16.3795,1.98299 14.685,2.0007 11.3086,2.03599 8.08244,3.40201 5.70734,5.80206 3.33224,8.20211 2,11.4423 2,14.8189 c 0,3.3766 1.33224,6.6168 3.70734,9.0169 2.3751,2.4 5.60126,3.7661 8.97766,3.8013 z"
         fill="url(#paint0_linear_5_77)"
         id="path1"
         style="fill:url(#paint0_linear_5_77)" /><path
         fill-rule="evenodd"
         clip-rule="evenodd"
         d="m 25.439,25.5737 c 0.1898,-0.1896 0.4471,-0.2961 0.7154,-0.2961 0.2682,0 0.5255,0.1065 0.7153,0.2961 l 2.699,2.6976 c 0.1899,0.1899 0.2966,0.4475 0.2966,0.7161 0,0.2685 -0.1067,0.5261 -0.2966,0.716 C 29.3788,29.8933 29.1212,30 28.8527,30 28.5841,30 28.3265,29.8933 28.1366,29.7034 L 25.4404,27.003 c -0.1896,-0.1898 -0.2961,-0.4471 -0.2961,-0.7153 0,-0.2683 0.1065,-0.5256 0.2961,-0.7154 z"
         fill="url(#paint1_linear_5_77)"
         id="path2-3"
         style="fill:url(#paint1_linear_5_77)" /></g></g><g
     style="clip-rule:evenodd;fill-rule:evenodd;stroke-linejoin:round;stroke-miterlimit:1.41421"
     id="22-22-nepomuk"
     transform="translate(0.07244943,0.0645996)"><rect
       y="4.0299945"
       x="0.13677675"
       height="22"
       width="22"
       id="rect817"
       style="fill:#ffffff;fill-opacity:0;stroke-width:0.970479" /><g
       style="clip-rule:evenodd;fill:none;fill-rule:evenodd;stroke-linejoin:round;stroke-miterlimit:1.41421"
       id="g2"
       transform="matrix(0.64596469,0,0,0.64285714,0.84484744,4.7442804)"><path
         opacity="0.5"
         d="m 14.685,27.6371 c 1.6945,0.0178 3.3758,-0.3007 4.9465,-0.937 1.5708,-0.6362 2.9997,-1.5776 4.2043,-2.7696 1.2045,-1.192 2.1608,-2.6111 2.8134,-4.1751 0.6526,-1.5639 0.9886,-3.2418 0.9886,-4.9365 0,-1.6947 -0.336,-3.3725 -0.9886,-4.93649 C 25.9966,8.31843 25.0403,6.89938 23.8358,5.70734 22.6312,4.5153 21.2023,3.57393 19.6315,2.9377 18.0608,2.30146 16.3795,1.98299 14.685,2.0007 11.3086,2.03599 8.08244,3.40201 5.70734,5.80206 3.33224,8.20211 2,11.4423 2,14.8189 c 0,3.3766 1.33224,6.6168 3.70734,9.0169 2.3751,2.4 5.60126,3.7661 8.97766,3.8013 z"
         fill="url(#paint0_linear_5_77)"
         id="path1-9"
         style="fill:url(#paint0_linear_5_77-6)" /><path
         fill-rule="evenodd"
         clip-rule="evenodd"
         d="m 25.439,25.5737 c 0.1898,-0.1896 0.4471,-0.2961 0.7154,-0.2961 0.2682,0 0.5255,0.1065 0.7153,0.2961 l 2.699,2.6976 c 0.1899,0.1899 0.2966,0.4475 0.2966,0.7161 0,0.2685 -0.1067,0.5261 -0.2966,0.716 C 29.3788,29.8933 29.1212,30 28.8527,30 28.5841,30 28.3265,29.8933 28.1366,29.7034 L 25.4404,27.003 c -0.1896,-0.1898 -0.2961,-0.4471 -0.2961,-0.7153 0,-0.2683 0.1065,-0.5256 0.2961,-0.7154 z"
         fill="url(#paint1_linear_5_77)"
         id="path2-3-1"
         style="fill:url(#paint1_linear_5_77-3)" /></g></g></svg>
