<?xml version="1.0" encoding="UTF-8" standalone="no"?>
<!-- Created with Inkscape (http://www.inkscape.org/) -->

<svg
   id="svg4153"
   version="1.1"
   inkscape:version="1.3 (0e150ed6c4, 2023-07-21)"
   width="32.000004"
   height="32"
   sodipodi:docname="plasmavault.svg"
   viewBox="0 0 32.000004 32"
   xml:space="preserve"
   xmlns:inkscape="http://www.inkscape.org/namespaces/inkscape"
   xmlns:sodipodi="http://sodipodi.sourceforge.net/DTD/sodipodi-0.dtd"
   xmlns:xlink="http://www.w3.org/1999/xlink"
   xmlns="http://www.w3.org/2000/svg"
   xmlns:svg="http://www.w3.org/2000/svg"
   xmlns:rdf="http://www.w3.org/1999/02/22-rdf-syntax-ns#"
   xmlns:cc="http://creativecommons.org/ns#"
   xmlns:dc="http://purl.org/dc/elements/1.1/"><sodipodi:namedview
     pagecolor="#ffffff"
     bordercolor="#666666"
     borderopacity="1"
     objecttolerance="10"
     gridtolerance="10000"
     guidetolerance="10"
     inkscape:pageopacity="0"
     inkscape:pageshadow="2"
     inkscape:window-width="1920"
     inkscape:window-height="1052"
     id="namedview4155"
     inkscape:document-units="px"
     showgrid="true"
     inkscape:showpageshadow="false"
     borderlayer="true"
     inkscape:zoom="11.313708"
     inkscape:cx="20.285127"
     inkscape:cy="19.798991"
     inkscape:window-x="0"
     inkscape:window-y="0"
     inkscape:window-maximized="1"
     inkscape:current-layer="svg4153"
     fit-margin-top="0"
     fit-margin-left="0"
     fit-margin-right="0"
     fit-margin-bottom="0"
     inkscape:pagecheckerboard="0"
     inkscape:deskcolor="#d1d1d1" /><metadata
     id="metadata4159"><rdf:RDF><cc:Work
         rdf:about=""><dc:format>image/svg+xml</dc:format><dc:type
           rdf:resource="http://purl.org/dc/dcmitype/StillImage" /><dc:title /></cc:Work></rdf:RDF></metadata><defs
     id="defs4157"><style
       type="text/css"
       id="current-color-scheme">&#10;      .ColorScheme-Text {&#10;        color:#31363b;&#10;      }&#10;      .ColorScheme-Background {&#10;        color:#eff0f1;&#10;      }&#10;      .ColorScheme-Highlight {&#10;        color:#3daee9;&#10;      }&#10;      .ColorScheme-ViewText {&#10;        color:#31363b;&#10;      }&#10;      .ColorScheme-ViewBackground {&#10;        color:#fcfcfc;&#10;      }&#10;      .ColorScheme-ViewHover {&#10;        color:#93cee9;&#10;      }&#10;      .ColorScheme-ViewFocus{&#10;        color:#3daee9;&#10;      }&#10;      .ColorScheme-ButtonText {&#10;        color:#31363b;&#10;      }&#10;      .ColorScheme-ButtonBackground {&#10;        color:#eff0f1;&#10;      }&#10;      .ColorScheme-ButtonHover {&#10;        color:#93cee9;&#10;      }&#10;      .ColorScheme-ButtonFocus{&#10;        color:#3daee9;&#10;      }&#10;      </style><linearGradient
       id="linearGradient1"><stop
         id="stop00"
         offset="0.0"
         style="stop-color:#7c00b5;stop-opacity:1.0" /><stop
         id="stop01"
         offset="1.0"
         style="stop-color:#6916c5;stop-opacity:0.84958178" /></linearGradient><linearGradient
       id="paint0_linear_8_851"
       x1="12"
       y1="21.8"
       x2="12"
       y2="2"
       gradientUnits="userSpaceOnUse"><stop
         stop-color="#02AA93"
         id="stop2" /><stop
         offset="1"
         stop-color="#67FF80"
         id="stop3" /></linearGradient><linearGradient
       id="paint1_linear_8_851"
       x1="19.7"
       y1="13.99"
       x2="19.7"
       y2="9.59"
       gradientUnits="userSpaceOnUse"><stop
         stop-color="#02AA93"
         id="stop4" /><stop
         offset="1"
         stop-color="#67FF80"
         id="stop5" /></linearGradient><linearGradient
       id="paint2_linear_8_851"
       x1="18.6"
       y1="12.89"
       x2="18.6"
       y2="10.69"
       gradientUnits="userSpaceOnUse"><stop
         stop-color="#02AA93"
         id="stop6" /><stop
         offset="1"
         stop-color="#67FF80"
         id="stop7" /></linearGradient><linearGradient
       inkscape:collect="always"
       xlink:href="#paint0_linear_8_851"
       id="linearGradient2"
       gradientUnits="userSpaceOnUse"
       x1="12"
       y1="21.8"
       x2="12"
       y2="2" /><linearGradient
       inkscape:collect="always"
       xlink:href="#paint1_linear_8_851"
       id="linearGradient3"
       gradientUnits="userSpaceOnUse"
       x1="19.7"
       y1="13.99"
       x2="19.7"
       y2="9.59" /><linearGradient
       inkscape:collect="always"
       xlink:href="#paint2_linear_8_851"
       id="linearGradient4"
       gradientUnits="userSpaceOnUse"
       x1="18.6"
       y1="12.89"
       x2="18.6"
       y2="10.69" /><linearGradient
       inkscape:collect="always"
       xlink:href="#paint0_linear_8_851"
       id="linearGradient5"
       gradientUnits="userSpaceOnUse"
       x1="12"
       y1="21.8"
       x2="12"
       y2="2" /><linearGradient
       inkscape:collect="always"
       xlink:href="#paint1_linear_8_851"
       id="linearGradient6"
       gradientUnits="userSpaceOnUse"
       x1="19.7"
       y1="13.99"
       x2="19.7"
       y2="9.59" /><linearGradient
       inkscape:collect="always"
       xlink:href="#paint2_linear_8_851"
       id="linearGradient7"
       gradientUnits="userSpaceOnUse"
       x1="18.6"
       y1="12.89"
       x2="18.6"
       y2="10.69" /></defs><inkscape:clipboard
     style="opacity:0.01000001;fill:#00000f;fill-opacity:0;stroke-width:1;stroke-linecap:butt;stroke-linejoin:miter;stroke-miterlimit:4;stroke-dasharray:none;stroke-dashoffset:0;stroke-opacity:1;stroke:none"
     min="0,0"
     max="22,22" /><g
     style="clip-rule:evenodd;fill-rule:evenodd;stroke-linejoin:round;stroke-miterlimit:1.41421"
     id="22-22-plasmavault"
     transform="translate(55.253982,0.74588685)"><rect
       ry="0.86131382"
       y="5.2800655"
       x="-15.369303"
       height="22"
       width="22"
       id="rect817-3"
       style="fill:#ffff00;fill-opacity:0;stroke-width:0.918392;stroke-miterlimit:1.41421;stroke-dasharray:none" /><g
       style="clip-rule:evenodd;fill:none;fill-rule:evenodd;stroke-linejoin:round;stroke-miterlimit:1.41421"
       id="g2"
       transform="matrix(0.81818182,0,0,0.80808081,-14.187485,6.6639041)"><path
         fill-rule="evenodd"
         clip-rule="evenodd"
         d="M 22.9961,7.91264 H 18.338 c -2.1678,0.00381 -3.9239,1.71602 -3.9278,3.82956 -0.0029,2.1184 1.7551,3.8382 3.9278,3.841 H 23 v 0.3366 C 23,19.6149 20.7599,21.8 16.9691,21.8 H 7.03191 C 3.24009,21.8 1,19.6149 1,15.9198 V 7.87164 C 1,4.17648 3.24009,2 7.03191,2 h 9.93329 c 3.7908,0 6.0309,2.17648 6.0309,5.87164 z M 6.21352,7.90406 h 6.20398 0.0039 0.0079 C 12.8937,7.90216 13.2692,7.53321 13.2672,7.07942 13.2653,6.62658 12.8859,6.2605 12.4214,6.26241 H 6.21352 C 5.75201,6.26431 5.37752,6.62944 5.37557,7.08038 5.37361,7.53321 5.74908,7.90216 6.21352,7.90406 Z"
         fill="url(#paint0_linear_8_851)"
         id="path1-2"
         style="fill:url(#linearGradient2)" /><path
         opacity="0.4"
         d="m 16.4412,12.2263 c 0.23,1.0463 1.1474,1.7825 2.1947,1.7633 h 3.5749 C 22.6466,13.9896 23,13.6287 23,13.1826 V 10.3979 C 22.9991,9.9528 22.6466,9.59095 22.2108,9.59 h -3.6591 c -1.1913,0.00383 -2.1535,0.9927 -2.1517,2.2113 0,0.1426 0.0141,0.2853 0.0412,0.425"
         fill="url(#paint1_linear_8_851)"
         id="path2-9"
         style="fill:url(#linearGradient3)" /><circle
         cx="18.6"
         cy="11.79"
         r="1.1"
         fill="url(#paint2_linear_8_851)"
         id="circle2-1"
         style="fill:url(#linearGradient4)" /></g></g><g
     id="plasmavault"
     transform="translate(-0.26000458,-0.088321)"><rect
       y="0"
       x="1.9073486e-06"
       height="32"
       width="32"
       id="rect869"
       style="opacity:1;fill:#00ffff;fill-opacity:0" /><g
       style="clip-rule:evenodd;fill:none;fill-rule:evenodd;stroke-linejoin:round;stroke-miterlimit:1.41421"
       id="g1"
       transform="matrix(1.2727273,0,0,1.2121212,0.72727431,1.5757577)"><path
         fill-rule="evenodd"
         clip-rule="evenodd"
         d="M 22.9961,7.91264 H 18.338 c -2.1678,0.00381 -3.9239,1.71602 -3.9278,3.82956 -0.0029,2.1184 1.7551,3.8382 3.9278,3.841 H 23 v 0.3366 C 23,19.6149 20.7599,21.8 16.9691,21.8 H 7.03191 C 3.24009,21.8 1,19.6149 1,15.9198 V 7.87164 C 1,4.17648 3.24009,2 7.03191,2 h 9.93329 c 3.7908,0 6.0309,2.17648 6.0309,5.87164 z M 6.21352,7.90406 h 6.20398 0.0039 0.0079 C 12.8937,7.90216 13.2692,7.53321 13.2672,7.07942 13.2653,6.62658 12.8859,6.2605 12.4214,6.26241 H 6.21352 C 5.75201,6.26431 5.37752,6.62944 5.37557,7.08038 5.37361,7.53321 5.74908,7.90216 6.21352,7.90406 Z"
         fill="url(#paint0_linear_8_851)"
         id="path1"
         style="fill:url(#linearGradient5)" /><path
         opacity="0.4"
         d="m 16.4412,12.2263 c 0.23,1.0463 1.1474,1.7825 2.1947,1.7633 h 3.5749 C 22.6466,13.9896 23,13.6287 23,13.1826 V 10.3979 C 22.9991,9.9528 22.6466,9.59095 22.2108,9.59 h -3.6591 c -1.1913,0.00383 -2.1535,0.9927 -2.1517,2.2113 0,0.1426 0.0141,0.2853 0.0412,0.425"
         fill="url(#paint1_linear_8_851)"
         id="path2"
         style="fill:url(#linearGradient6)" /><circle
         cx="18.6"
         cy="11.79"
         r="1.1"
         fill="url(#paint2_linear_8_851)"
         id="circle2"
         style="fill:url(#linearGradient7)" /></g></g></svg>
