<?xml version="1.0" encoding="UTF-8" standalone="no"?>
<svg
   viewBox="0 0 32 32"
   id="svg"
   version="1.1"
   inkscape:version="1.3 (0e150ed6c4, 2023-07-21)"
   width="32"
   height="32"
   sodipodi:docname="printer.svg"
   xml:space="preserve"
   xmlns:inkscape="http://www.inkscape.org/namespaces/inkscape"
   xmlns:sodipodi="http://sodipodi.sourceforge.net/DTD/sodipodi-0.dtd"
   xmlns="http://www.w3.org/2000/svg"
   xmlns:svg="http://www.w3.org/2000/svg"
   xmlns:rdf="http://www.w3.org/1999/02/22-rdf-syntax-ns#"
   xmlns:cc="http://creativecommons.org/ns#"
   xmlns:dc="http://purl.org/dc/elements/1.1/"><sodipodi:namedview
     pagecolor="#ffffff"
     bordercolor="#666666"
     borderopacity="1"
     objecttolerance="10"
     gridtolerance="10"
     guidetolerance="10"
     inkscape:pageopacity="0"
     inkscape:pageshadow="2"
     inkscape:window-width="1920"
     inkscape:window-height="1052"
     id="namedview32"
     showgrid="true"
     inkscape:zoom="8"
     inkscape:cx="30.0625"
     inkscape:cy="20"
     inkscape:window-x="0"
     inkscape:window-y="0"
     inkscape:window-maximized="1"
     inkscape:current-layer="22-22-printer"
     borderlayer="true"
     showguides="true"
     inkscape:guide-bbox="true"
     inkscape:snap-bbox="true"
     inkscape:showpageshadow="false"
     fit-margin-top="0"
     fit-margin-left="0"
     fit-margin-right="0"
     fit-margin-bottom="0"
     inkscape:pagecheckerboard="0"
     inkscape:deskcolor="#d1d1d1" /><defs
     id="defs81"><style
       id="current-color-scheme"
       type="text/css">&#10;      .ColorScheme-Text {&#10;        color:#7B7C7E;&#10;      }&#10;      .ColorScheme-Background{&#10;        color:#EFF0F1;&#10;      }&#10;      .ColorScheme-Highlight{&#10;        color:#3DAEE6;&#10;      }&#10;      .ColorScheme-ViewText {&#10;        color:#7B7C7E;&#10;      }&#10;      .ColorScheme-ViewBackground{&#10;        color:#FCFCFC;&#10;      }&#10;      .ColorScheme-ViewHover {&#10;        color:#3DAEE6;&#10;      }&#10;      .ColorScheme-ViewFocus{&#10;        color:#1E92FF;&#10;      }&#10;      .ColorScheme-ButtonText {&#10;        color:#7B7C7E;&#10;      }&#10;      .ColorScheme-ButtonBackground{&#10;        color:#EFF0F1;&#10;      }&#10;      .ColorScheme-ButtonHover {&#10;        color:#3DAEE6;&#10;      }&#10;      .ColorScheme-ButtonFocus{&#10;        color:#1E92FF;&#10;      }&#10;</style><style
       type="text/css"
       id="style3">&#10;      .ColorScheme-Text {&#10;        color:#31363b;&#10;      }&#10;      .ColorScheme-Background {&#10;        color:#eff0f1;&#10;      }&#10;      .ColorScheme-Highlight {&#10;        color:#3daee9;&#10;      }&#10;      .ColorScheme-ViewText {&#10;        color:#31363b;&#10;      }&#10;      .ColorScheme-ViewBackground {&#10;        color:#fcfcfc;&#10;      }&#10;      .ColorScheme-ViewHover {&#10;        color:#93cee9;&#10;      }&#10;      .ColorScheme-ViewFocus{&#10;        color:#3daee9;&#10;      }&#10;      .ColorScheme-ButtonText {&#10;        color:#31363b;&#10;      }&#10;      .ColorScheme-ButtonBackground {&#10;        color:#eff0f1;&#10;      }&#10;      .ColorScheme-ButtonHover {&#10;        color:#93cee9;&#10;      }&#10;      .ColorScheme-ButtonFocus{&#10;        color:#3daee9;&#10;      }&#10;      </style><linearGradient
       id="linearGradient1"><stop
         id="stop00"
         offset="0.0"
         style="stop-color:#7c00b5;stop-opacity:1.0" /><stop
         id="stop01"
         offset="1.0"
         style="stop-color:#6916c5;stop-opacity:0.84958178" /></linearGradient><linearGradient
       id="paint0_linear_8_790"
       x1="12"
       y1="23"
       x2="12"
       y2="1"
       gradientUnits="userSpaceOnUse"><stop
         stop-color="#5570FF"
         id="stop3" /><stop
         offset="1"
         stop-color="#4DD3FF"
         id="stop4" /></linearGradient><linearGradient
       id="paint1_linear_8_790"
       x1="12"
       y1="18.5197"
       x2="12"
       y2="5.40002"
       gradientUnits="userSpaceOnUse"><stop
         stop-color="#5570FF"
         id="stop5" /><stop
         offset="1"
         stop-color="#4DD3FF"
         id="stop6" /></linearGradient><linearGradient
       id="paint2_linear_8_790"
       x1="11.5875"
       y1="10.9"
       x2="11.5875"
       y2="8.70001"
       gradientUnits="userSpaceOnUse"><stop
         stop-color="#5570FF"
         id="stop7" /><stop
         offset="1"
         stop-color="#4DD3FF"
         id="stop8" /></linearGradient><linearGradient
       id="paint0_linear_8_790-6"
       x1="12"
       y1="23"
       x2="12"
       y2="1"
       gradientUnits="userSpaceOnUse"><stop
         stop-color="#5570FF"
         id="stop3-7" /><stop
         offset="1"
         stop-color="#4DD3FF"
         id="stop4-5" /></linearGradient><linearGradient
       id="paint1_linear_8_790-3"
       x1="12"
       y1="18.519699"
       x2="12"
       y2="5.4000201"
       gradientUnits="userSpaceOnUse"><stop
         stop-color="#5570FF"
         id="stop5-5" /><stop
         offset="1"
         stop-color="#4DD3FF"
         id="stop6-6" /></linearGradient><linearGradient
       id="paint2_linear_8_790-2"
       x1="11.5875"
       y1="10.9"
       x2="11.5875"
       y2="8.7000103"
       gradientUnits="userSpaceOnUse"><stop
         stop-color="#5570FF"
         id="stop7-9" /><stop
         offset="1"
         stop-color="#4DD3FF"
         id="stop8-1" /></linearGradient></defs><metadata
     id="metadata34"><rdf:RDF><cc:Work
         rdf:about=""><dc:format>image/svg+xml</dc:format><dc:type
           rdf:resource="http://purl.org/dc/dcmitype/StillImage" /><dc:title /></cc:Work></rdf:RDF></metadata><g
     style="clip-rule:evenodd;fill-rule:evenodd;stroke-linejoin:round;stroke-miterlimit:1.41420996"
     id="printer"><rect
       y="0.12941074"
       x="0.0060653687"
       height="32"
       width="32"
       id="rect817"
       style="fill:#ffffff;fill-opacity:0;stroke-width:1.01498" /><g
       style="clip-rule:evenodd;fill:none;fill-rule:evenodd;stroke-linejoin:round;stroke-miterlimit:1.41421"
       id="g1"
       transform="matrix(1.2727273,0,0,1.2727273,0.73333777,0.85668247)"><path
         d="M 17.6331,1.9669 C 16.6662,1 15.1108,1 12,1 8.88812,1 7.33272,1 6.36582,1.9669 6.0359,2.29683 5.8188,2.69585 5.67565,3.20208 5.51201,3.7808 6.01237,4.3038 6.61378,4.30124 6.90521,4.3 7.20824,4.3 7.52302,4.3 h 8.95618 c 0.3143,0 0.617,0 0.9082,0.00124 0.601,0.00256 1.1012,-0.51982 0.9374,-1.0981 C 18.1813,2.6964 17.9633,2.29706 17.6331,1.9669 Z M 17.6,15.85 c 0.5523,0 1.001,0.4485 0.9987,1.0007 -0.0106,2.5647 -0.1062,4.324 -0.9656,5.1824 C 16.6673,23 15.1108,23 12,23 8.88922,23 7.33272,23 6.36692,22.0331 5.50759,21.1747 5.41199,19.4154 5.40136,16.8507 5.39907,16.2985 5.84774,15.85 6.40002,15.85 Z"
         fill="url(#paint0_linear_8_790)"
         id="path1"
         style="fill:url(#paint0_linear_8_790)" /><path
         opacity="0.5"
         d="M 16.4,5.40002 H 7.6 c -3.1108,0 -4.6673,0 -5.6331,0.9669 C 1,7.33272 1,8.88922 1,12 c 0,3.1108 0,4.6673 0.9669,5.6331 0.33047,0.3312 0.73011,0.5488 1.23776,0.692 0.58273,0.1644 1.10683,-0.3437 1.1005,-0.9492 C 4.30144,17.0207 4.3004,16.653 4.30011,16.282 4.29993,16.0434 4.07978,15.8576 3.91109,15.6889 v 0 C 3.80795,15.5858 3.75,15.4459 3.75,15.3 3.75,15.1542 3.80795,15.0143 3.91109,14.9111 4.01424,14.808 4.15413,14.75 4.3,14.75 h 15.4 c 0.1459,0 0.2858,0.058 0.3889,0.1611 0.1032,0.1032 0.1611,0.2431 0.1611,0.3889 0,0.1459 -0.0579,0.2858 -0.1611,0.3889 v 0 c -0.1687,0.1687 -0.3888,0.3545 -0.389,0.5931 -3e-4,0.371 -0.0013,0.7386 -0.0051,1.0938 -0.0063,0.6055 0.5179,1.1136 1.1006,0.9492 0.5076,-0.1432 0.9078,-0.3608 1.2388,-0.6919 C 23,16.6673 23,15.1108 23,12 23,8.88922 23,7.33272 22.0331,6.36692 21.0673,5.40002 19.5108,5.40002 16.4,5.40002 Z"
         fill="url(#paint1_linear_8_790)"
         id="path2-3"
         style="fill:url(#paint1_linear_8_790)" /><path
         d="m 8.69995,10.625 c 0.2188,0 0.42865,-0.0869 0.58336,-0.2416 0.15472,-0.1547 0.24164,-0.3646 0.24164,-0.58339 0,-0.2188 -0.08692,-0.42864 -0.24164,-0.58336 C 9.1286,9.06193 8.91875,8.97501 8.69995,8.97501 h -3.3 c -0.2188,0 -0.42864,0.08692 -0.58336,0.24164 -0.15472,0.15472 -0.24164,0.36456 -0.24164,0.58336 0,0.21879 0.08692,0.42869 0.24164,0.58339 0.15472,0.1547 0.36456,0.2416 0.58336,0.2416 z M 18.6,9.80001 c 0,0.29179 -0.1159,0.57149 -0.3222,0.77779 C 18.0715,10.7841 17.7917,10.9 17.5,10.9 17.2082,10.9 16.9284,10.7841 16.7221,10.5778 16.5158,10.3715 16.4,10.0918 16.4,9.80001 16.4,9.50827 16.5158,9.22848 16.7221,9.02219 16.9284,8.8159 17.2082,8.70001 17.5,8.70001 c 0.2917,0 0.5715,0.11589 0.7778,0.32218 C 18.4841,9.22848 18.6,9.50827 18.6,9.80001 Z"
         fill="url(#paint2_linear_8_790)"
         id="path3"
         style="fill:url(#paint2_linear_8_790)" /></g></g><g
     style="clip-rule:evenodd;fill-rule:evenodd;stroke-linejoin:round;stroke-miterlimit:1.41420996"
     id="22-22-printer"
     transform="translate(32,10)"><rect
       style="fill:#ff0000;fill-opacity:0;stroke-width:0.875348"
       y="-5.6651001"
       x="2.6528168"
       height="22"
       width="22"
       id="rect12" /><g
       style="clip-rule:evenodd;fill:none;fill-rule:evenodd;stroke-linejoin:round;stroke-miterlimit:1.41421"
       id="g2"
       transform="matrix(0.81818182,0,0,0.81818182,3.8346349,-4.4832821)"><path
         d="M 17.6331,1.9669 C 16.6662,1 15.1108,1 12,1 8.88812,1 7.33272,1 6.36582,1.9669 6.0359,2.29683 5.8188,2.69585 5.67565,3.20208 5.51201,3.7808 6.01237,4.3038 6.61378,4.30124 6.90521,4.3 7.20824,4.3 7.52302,4.3 h 8.95618 c 0.3143,0 0.617,0 0.9082,0.00124 0.601,0.00256 1.1012,-0.51982 0.9374,-1.0981 C 18.1813,2.6964 17.9633,2.29706 17.6331,1.9669 Z M 17.6,15.85 c 0.5523,0 1.001,0.4485 0.9987,1.0007 -0.0106,2.5647 -0.1062,4.324 -0.9656,5.1824 C 16.6673,23 15.1108,23 12,23 8.88922,23 7.33272,23 6.36692,22.0331 5.50759,21.1747 5.41199,19.4154 5.40136,16.8507 5.39907,16.2985 5.84774,15.85 6.40002,15.85 Z"
         fill="url(#paint0_linear_8_790)"
         id="path1-7"
         style="fill:url(#paint0_linear_8_790-6)" /><path
         opacity="0.5"
         d="M 16.4,5.40002 H 7.6 c -3.1108,0 -4.6673,0 -5.6331,0.9669 C 1,7.33272 1,8.88922 1,12 c 0,3.1108 0,4.6673 0.9669,5.6331 0.33047,0.3312 0.73011,0.5488 1.23776,0.692 0.58273,0.1644 1.10683,-0.3437 1.1005,-0.9492 C 4.30144,17.0207 4.3004,16.653 4.30011,16.282 4.29993,16.0434 4.07978,15.8576 3.91109,15.6889 v 0 C 3.80795,15.5858 3.75,15.4459 3.75,15.3 3.75,15.1542 3.80795,15.0143 3.91109,14.9111 4.01424,14.808 4.15413,14.75 4.3,14.75 h 15.4 c 0.1459,0 0.2858,0.058 0.3889,0.1611 0.1032,0.1032 0.1611,0.2431 0.1611,0.3889 0,0.1459 -0.0579,0.2858 -0.1611,0.3889 v 0 c -0.1687,0.1687 -0.3888,0.3545 -0.389,0.5931 -3e-4,0.371 -0.0013,0.7386 -0.0051,1.0938 -0.0063,0.6055 0.5179,1.1136 1.1006,0.9492 0.5076,-0.1432 0.9078,-0.3608 1.2388,-0.6919 C 23,16.6673 23,15.1108 23,12 23,8.88922 23,7.33272 22.0331,6.36692 21.0673,5.40002 19.5108,5.40002 16.4,5.40002 Z"
         fill="url(#paint1_linear_8_790)"
         id="path2-3-0"
         style="fill:url(#paint1_linear_8_790-3)" /><path
         d="m 8.69995,10.625 c 0.2188,0 0.42865,-0.0869 0.58336,-0.2416 0.15472,-0.1547 0.24164,-0.3646 0.24164,-0.58339 0,-0.2188 -0.08692,-0.42864 -0.24164,-0.58336 C 9.1286,9.06193 8.91875,8.97501 8.69995,8.97501 h -3.3 c -0.2188,0 -0.42864,0.08692 -0.58336,0.24164 -0.15472,0.15472 -0.24164,0.36456 -0.24164,0.58336 0,0.21879 0.08692,0.42869 0.24164,0.58339 0.15472,0.1547 0.36456,0.2416 0.58336,0.2416 z M 18.6,9.80001 c 0,0.29179 -0.1159,0.57149 -0.3222,0.77779 C 18.0715,10.7841 17.7917,10.9 17.5,10.9 17.2082,10.9 16.9284,10.7841 16.7221,10.5778 16.5158,10.3715 16.4,10.0918 16.4,9.80001 16.4,9.50827 16.5158,9.22848 16.7221,9.02219 16.9284,8.8159 17.2082,8.70001 17.5,8.70001 c 0.2917,0 0.5715,0.11589 0.7778,0.32218 C 18.4841,9.22848 18.6,9.50827 18.6,9.80001 Z"
         fill="url(#paint2_linear_8_790)"
         id="path3-9"
         style="fill:url(#paint2_linear_8_790-2)" /></g></g></svg>
