<?xml version="1.0" encoding="UTF-8" standalone="no"?>
<svg
   viewBox="0 0 22 22"
   id="svg"
   version="1.1"
   inkscape:version="1.3 (0e150ed6c4, 2023-07-21)"
   width="100%"
   height="100%"
   sodipodi:docname="slc.svg"
   xml:space="preserve"
   xmlns:inkscape="http://www.inkscape.org/namespaces/inkscape"
   xmlns:sodipodi="http://sodipodi.sourceforge.net/DTD/sodipodi-0.dtd"
   xmlns:xlink="http://www.w3.org/1999/xlink"
   xmlns="http://www.w3.org/2000/svg"
   xmlns:svg="http://www.w3.org/2000/svg"
   xmlns:rdf="http://www.w3.org/1999/02/22-rdf-syntax-ns#"
   xmlns:cc="http://creativecommons.org/ns#"
   xmlns:dc="http://purl.org/dc/elements/1.1/"><sodipodi:namedview
     pagecolor="#ffffff"
     bordercolor="#666666"
     borderopacity="1"
     objecttolerance="10"
     gridtolerance="10"
     guidetolerance="10"
     inkscape:pageopacity="0.12156863"
     inkscape:pageshadow="2"
     inkscape:window-width="1920"
     inkscape:window-height="1052"
     id="namedview32"
     showgrid="true"
     inkscape:zoom="9.8538752"
     inkscape:cx="19.83991"
     inkscape:cy="6.3934238"
     inkscape:window-x="0"
     inkscape:window-y="0"
     inkscape:window-maximized="1"
     inkscape:current-layer="svg"
     borderlayer="true"
     showguides="true"
     inkscape:guide-bbox="true"
     inkscape:snap-bbox="true"
     inkscape:bbox-nodes="true"
     inkscape:showpageshadow="2"
     inkscape:pagecheckerboard="0"
     inkscape:deskcolor="#d1d1d1"><inkscape:grid
       type="xygrid"
       id="grid3046"
       empspacing="4"
       visible="true"
       enabled="true"
       snapvisiblegridlinesonly="true"
       color="#0000ff"
       opacity="0.0392157"
       empcolor="#0000ff"
       empopacity="0.07843137"
       originx="0"
       originy="0"
       spacingy="1"
       spacingx="1"
       units="px" /></sodipodi:namedview><defs
     id="defs81"><style
       id="current-color-scheme"
       type="text/css">&#10;      .ColorScheme-Text {&#10;        color:#7B7C7E;&#10;      }&#10;      .ColorScheme-Background{&#10;        color:#EFF0F1;&#10;      }&#10;      .ColorScheme-Highlight{&#10;        color:#3DAEE6;&#10;      }&#10;      .ColorScheme-ViewText {&#10;        color:#7B7C7E;&#10;      }&#10;      .ColorScheme-ViewBackground{&#10;        color:#FCFCFC;&#10;      }&#10;      .ColorScheme-ViewHover {&#10;        color:#3DAEE6;&#10;      }&#10;      .ColorScheme-ViewFocus{&#10;        color:#1E92FF;&#10;      }&#10;      .ColorScheme-ButtonText {&#10;        color:#7B7C7E;&#10;      }&#10;      .ColorScheme-ButtonBackground{&#10;        color:#EFF0F1;&#10;      }&#10;      .ColorScheme-ButtonHover {&#10;        color:#3DAEE6;&#10;      }&#10;      .ColorScheme-ButtonFocus{&#10;        color:#1E92FF;&#10;      }&#10;</style><linearGradient
       id="linearGradient1"><stop
         id="stop00"
         offset="0.0"
         style="stop-color:#7c00b5;stop-opacity:1.0" /><stop
         id="stop01"
         offset="1.0"
         style="stop-color:#6916c5;stop-opacity:0.84958178" /></linearGradient><linearGradient
       inkscape:collect="always"
       xlink:href="#linearGradient1"
       id="linearGradient5"
       x1="2"
       y1="11.5"
       x2="20"
       y2="11.5"
       gradientUnits="userSpaceOnUse" /><linearGradient
       inkscape:collect="always"
       xlink:href="#linearGradient1"
       id="linearGradient7"
       x1="2"
       y1="11"
       x2="20"
       y2="11"
       gradientUnits="userSpaceOnUse" /><linearGradient
       id="paint0_linear_54_532"
       x1="22.9395"
       y1="1.12983"
       x2="2.62334"
       y2="21.2137"
       gradientUnits="userSpaceOnUse"><stop
         stop-color="#FE7970"
         id="stop2" /><stop
         offset="1"
         stop-color="#DC3282"
         id="stop3" /></linearGradient><linearGradient
       id="paint1_linear_54_532"
       x1="7.32536"
       y1="16.6888"
       x2="1.02598"
       y2="22.9303"
       gradientUnits="userSpaceOnUse"><stop
         stop-color="#FE7970"
         id="stop4" /><stop
         offset="1"
         stop-color="#DC3282"
         id="stop5" /></linearGradient></defs><metadata
     id="metadata34"><rdf:RDF><cc:Work
         rdf:about=""><dc:format>image/svg+xml</dc:format><dc:type
           rdf:resource="http://purl.org/dc/dcmitype/StillImage" /><dc:title /></cc:Work></rdf:RDF></metadata><g
     style="clip-rule:evenodd;fill-rule:evenodd;stroke-linejoin:round;stroke-miterlimit:1.41420996"
     id="slc-like"
     transform="translate(0,-22)"><path
       inkscape:connector-curvature="0"
       id="path2"
       style="fill:url(#linearGradient5)"
       d="M 9,6 C 9,7.649 7.666,8.989 6.019,9 H 6 v 8.264 C 6.125,17.688 6.54,18 7,18 h 9.2 c 0.525,0 0.761,-0.366 0.936,-0.915 l 1.811,-6.759 h -10e-4 c 0.002,-0.006 0.004,-0.012 0.005,-0.018 l 0.027,-0.099 C 18.992,10.141 19,10.072 19,10 19,9.448 18.552,9 18,9 H 11 V 8 h 7 c 1.104,0 2,0.896 2,2 0,0.086 -0.005,0.171 -0.016,0.255 L 20,10.259 19.951,10.442 c -0.012,0.051 -0.025,0.102 -0.041,0.151 l -1.719,6.415 C 18,18.177 17.301,19 16.2,19 H 7 C 6.593,19 6.208,18.878 5.885,18.668 5.61,19.444 4.87,20 4,20 H 2 V 6 H 4 C 5.104,6 6,6.896 6,8 7.104,8 8,7.104 8,6 V 3 h 2 c 1.104,0 2,0.896 2,2 v 3 c 0,0 -1,0 -1,0 V 5 C 11,4.448 10.552,4 10,4 H 9 Z M 5,16.962 V 8 C 5,7.448 4.552,7 4,7 H 3 c 0,0 0,12 0,12 0,0 1,0 1,0 0.552,0 1,-0.448 1,-1 V 17.383 C 4.975,17.259 4.962,17.131 4.962,17 Z" /><rect
       y="0"
       x="0"
       height="22"
       width="22"
       id="rect817"
       style="fill:#ffffff;fill-opacity:0;stroke-width:0.95112514" /></g><g
     style="clip-rule:evenodd;fill-rule:evenodd;stroke-linejoin:round;stroke-miterlimit:1.41420996"
     id="slc-share"
     transform="translate(22)"><path
       inkscape:connector-curvature="0"
       id="path2-2"
       style="fill:url(#linearGradient7)"
       d="M 7.417,6.777 C 6.871,7.518 5.991,8 5,8 3.344,8 2,6.656 2,5 2,3.344 3.344,2 5,2 6.656,2 8,3.344 8,5 8,5.307 7.954,5.603 7.868,5.882 l 6.469,3.735 C 14.838,8.657 15.843,8 17,8 c 1.656,0 3,1.344 3,3 0,1.656 -1.344,3 -3,3 -1.157,0 -2.162,-0.657 -2.663,-1.617 L 7.868,16.118 C 7.954,16.397 8,16.693 8,17 8,18.656 6.656,20 5,20 3.344,20 2,18.656 2,17 c 0,-1.656 1.344,-3 3,-3 0.991,0 1.871,0.482 2.417,1.223 l 6.61,-3.816 C 14.009,11.274 14,11.138 14,11 c 0,-0.138 0.009,-0.274 0.027,-0.407 z M 5,15 c 1.104,0 2,0.896 2,2 0,1.104 -0.896,2 -2,2 C 3.896,19 3,18.104 3,17 3,15.896 3.896,15 5,15 Z M 17,9 c 1.104,0 2,0.896 2,2 0,1.104 -0.896,2 -2,2 -1.104,0 -2,-0.896 -2,-2 0,-1.104 0.896,-2 2,-2 z M 5,3 C 6.104,3 7,3.896 7,5 7,6.104 6.104,7 5,7 3.896,7 3,6.104 3,5 3,3.896 3.896,3 5,3 Z" /><rect
       y="0"
       x="0"
       height="22"
       width="22"
       id="rect817-7"
       style="fill:#ffffff;fill-opacity:0;stroke-width:0.85659748" /></g><g
     style="clip-rule:evenodd;fill-rule:evenodd;stroke-linejoin:round;stroke-miterlimit:1.41421"
     id="slc-connect"
     transform="translate(-6.3427505,12.525138)"><rect
       y="-12.36028"
       x="6.3443899"
       height="22"
       width="22"
       id="rect817-3"
       style="fill:#ffffff;fill-opacity:0;stroke-width:0.94403"
       inkscape:label="rect817-3" /><g
       style="fill:none"
       id="g1"
       transform="matrix(0.63636424,0,0,0.63641608,9.7080252,-8.9966985)"><path
         fill-rule="evenodd"
         clip-rule="evenodd"
         d="m 16.636,4.12368 3.2627,3.26606 c 2.2148,2.217 3.3222,3.32546 3.0646,4.52096 -0.2587,1.1944 -1.7249,1.7448 -4.6563,2.8467 l -2.031,0.7628 c -0.7849,0.295 -1.1778,0.4425 -1.4806,0.7045 -0.1321,0.1156 -0.252,0.2455 -0.3544,0.3875 -0.2334,0.3269 -0.3446,0.7309 -0.5669,1.5411 -0.5064,1.8405 -0.7596,2.7608 -1.3639,3.1053 -0.2532,0.1454 -0.5416,0.2202 -0.8344,0.2202 -0.6935,0 -1.3683,-0.6759 -2.71788,-2.0255 L 7.34415,17.8374 6.1564,16.6485 4.59987,15.0898 C 3.25911,13.7479 2.58872,13.0764 2.58542,12.3873 2.5831,12.0889 2.66022,11.7952 2.80888,11.5364 3.15343,10.9387 4.06709,10.6866 5.89441,10.1825 6.70569,9.95899 7.11079,9.84781 7.43772,9.61334 7.58303,9.50767 7.71622,9.38548 7.83401,9.24788 8.0938,8.94186 8.2391,8.54667 8.52751,7.7563 L 9.26394,5.74956 C 10.3504,2.78512 10.8931,1.30235 12.0908,1.03816 13.2895,0.773965 14.4047,1.89017 16.636,4.12368 Z"
         fill="url(#paint0_linear_54_532)"
         id="path1"
         style="fill:url(#paint0_linear_54_532)" /><path
         opacity="0.4"
         d="M 2.417,22.7689 7.34415,17.8374 6.1564,16.6485 1.22924,21.5801 c -0.15014,0.1591 -0.23234,0.3706 -0.22915,0.5893 0.00319,0.2188 0.09152,0.4277 0.24624,0.5825 0.15471,0.1547 0.36364,0.243 0.58242,0.2462 0.21878,0.0032 0.42909,-0.079 0.58825,-0.2292 z"
         fill="url(#paint1_linear_54_532)"
         id="path2-3"
         style="fill:url(#paint1_linear_54_532)" /></g></g></svg>
