<?xml version="1.0" encoding="UTF-8" standalone="no"?>
<svg
   viewBox="0 0 32 32"
   id="svg2"
   version="1.1"
   sodipodi:docname="start.svg"
   inkscape:version="1.3 (0e150ed6c4, 2023-07-21)"
   width="32"
   height="32"
   xml:space="preserve"
   xmlns:inkscape="http://www.inkscape.org/namespaces/inkscape"
   xmlns:sodipodi="http://sodipodi.sourceforge.net/DTD/sodipodi-0.dtd"
   xmlns="http://www.w3.org/2000/svg"
   xmlns:svg="http://www.w3.org/2000/svg"
   xmlns:rdf="http://www.w3.org/1999/02/22-rdf-syntax-ns#"
   xmlns:cc="http://creativecommons.org/ns#"
   xmlns:dc="http://purl.org/dc/elements/1.1/"><sodipodi:namedview
     pagecolor="#828282"
     bordercolor="#666666"
     borderopacity="1"
     objecttolerance="10"
     gridtolerance="10"
     guidetolerance="10"
     inkscape:pageopacity="0"
     inkscape:pageshadow="2"
     inkscape:window-width="1920"
     inkscape:window-height="1052"
     id="namedview17"
     showgrid="true"
     inkscape:zoom="1.4788999"
     inkscape:cx="-42.261144"
     inkscape:cy="52.065729"
     inkscape:window-x="0"
     inkscape:window-y="0"
     inkscape:window-maximized="1"
     inkscape:current-layer="svg2"
     fit-margin-top="0"
     fit-margin-left="0"
     fit-margin-right="0"
     fit-margin-bottom="0"
     inkscape:snap-bbox="true"
     inkscape:bbox-nodes="true"
     units="in"
     inkscape:showpageshadow="2"
     inkscape:pagecheckerboard="0"
     inkscape:deskcolor="#d1d1d1"><inkscape:grid
       type="xygrid"
       id="grid938"
       originx="-22"
       originy="32"
       spacingy="1"
       spacingx="1"
       units="in"
       visible="true" /></sodipodi:namedview><metadata
     id="metadata21"><rdf:RDF><cc:Work
         rdf:about=""><dc:format>image/svg+xml</dc:format><dc:type
           rdf:resource="http://purl.org/dc/dcmitype/StillImage" /><dc:title /></cc:Work></rdf:RDF></metadata><defs
     id="defs3051"><style
       type="text/css"
       id="current-color-scheme">&#10;      .ColorScheme-Text {&#10;        color:#31363b;&#10;      }&#10;      </style><linearGradient
       id="linearGradient1"><stop
         id="stop00"
         offset="0.0"
         style="stop-color:#7c00b5;stop-opacity:1.0" /><stop
         id="stop01"
         offset="1.0"
         style="stop-color:#6916c5;stop-opacity:0.84958178" /></linearGradient><linearGradient
       id="paint0_linear_3_2"
       x1="0"
       y1="128"
       x2="256"
       y2="128"
       gradientUnits="userSpaceOnUse"><stop
         stop-color="#7C00B5"
         id="stop1" /><stop
         offset="1"
         stop-color="#6916C5"
         stop-opacity="0.849582"
         id="stop2" /></linearGradient><clipPath
       id="clip0_3_2"><rect
         width="256"
         height="256"
         fill="white"
         id="rect2" /></clipPath><linearGradient
       id="paint0_linear_3_2-6"
       x1="0"
       y1="128"
       x2="256"
       y2="128"
       gradientUnits="userSpaceOnUse"><stop
         stop-color="#7C00B5"
         id="stop1-7" /><stop
         offset="1"
         stop-color="#6916C5"
         stop-opacity="0.849582"
         id="stop2-5" /></linearGradient><linearGradient
       id="paint0_linear_3_2-6-6"
       x1="0"
       y1="128"
       x2="256"
       y2="128"
       gradientUnits="userSpaceOnUse"><stop
         stop-color="#7C00B5"
         id="stop1-7-2" /><stop
         offset="1"
         stop-color="#6916C5"
         stop-opacity="0.849582"
         id="stop2-5-9" /></linearGradient></defs><g
     style="fill:none"
     id="start-here-kde"
     transform="matrix(0.125,0,0,0.125,-0.89860785,0.24660259)"
     inkscape:label="#start-here-kde"><path
       d="m 127.976,0 c -11.397,27.936 -18.27,46.21 -30.959,73.315 7.78,8.245 17.329,17.846 32.837,28.69 C 113.181,95.146 101.809,88.259 93.31,81.113 77.07,114.992 51.63,163.25 0,256 c 40.579,-23.422 72.035,-37.863 101.35,-43.373 -1.324,-5.697 -1.9705,-11.53 -1.926,-17.378 l 0.049,-1.3 c 0.644,-25.992 14.168,-45.98 30.188,-44.624 16.02,1.357 28.473,23.542 27.83,49.535 -0.122,4.89 -0.674,9.596 -1.638,13.96 28.998,5.67 60.117,20.074 100.147,43.18 -7.893,-14.529 -14.938,-27.626 -21.666,-40.1 -10.598,-8.212 -21.652,-18.9 -44.2,-30.47 15.498,4.025 26.595,8.67 35.244,13.863 C 156.973,71.958 151.434,55.038 127.976,0 Z"
       fill="url(#paint0_linear_3_2)"
       id="path1"
       style="fill:url(#paint0_linear_3_2)"
       clip-path="url(#clipPath2)" /></g><g
     style="fill:none"
     id="22-22-start-here-kde"
     transform="matrix(0.0859375,0,0,0.0859375,4.4738976,41.384977)"
     inkscape:label="#22-22-start-here-kde"><path
       d="m 127.976,0 c -11.397,27.936 -18.27,46.21 -30.959,73.315 7.78,8.245 17.329,17.846 32.837,28.69 C 113.181,95.146 101.809,88.259 93.31,81.113 77.07,114.992 51.63,163.25 0,256 c 40.579,-23.422 72.035,-37.863 101.35,-43.373 -1.324,-5.697 -1.9705,-11.53 -1.926,-17.378 l 0.049,-1.3 c 0.644,-25.992 14.168,-45.98 30.188,-44.624 16.02,1.357 28.473,23.542 27.83,49.535 -0.122,4.89 -0.674,9.596 -1.638,13.96 28.998,5.67 60.117,20.074 100.147,43.18 -7.893,-14.529 -14.938,-27.626 -21.666,-40.1 -10.598,-8.212 -21.652,-18.9 -44.2,-30.47 15.498,4.025 26.595,8.67 35.244,13.863 C 156.973,71.958 151.434,55.038 127.976,0 Z"
       fill="url(#paint0_linear_3_2)"
       id="path1-5"
       style="fill:url(#paint0_linear_3_2-6)"
       clip-path="url(#clipPath2)" /></g><g
     style="fill:none"
     id="16-16-start-here-kde"
     transform="matrix(0.0625,0,0,0.0625,6.6084177,71.808844)"
     inkscape:label="#16-16-start-here-kde"><path
       d="m 127.976,0 c -11.397,27.936 -18.27,46.21 -30.959,73.315 7.78,8.245 17.329,17.846 32.837,28.69 C 113.181,95.146 101.809,88.259 93.31,81.113 77.07,114.992 51.63,163.25 0,256 c 40.579,-23.422 72.035,-37.863 101.35,-43.373 -1.324,-5.697 -1.9705,-11.53 -1.926,-17.378 l 0.049,-1.3 c 0.644,-25.992 14.168,-45.98 30.188,-44.624 16.02,1.357 28.473,23.542 27.83,49.535 -0.122,4.89 -0.674,9.596 -1.638,13.96 28.998,5.67 60.117,20.074 100.147,43.18 -7.893,-14.529 -14.938,-27.626 -21.666,-40.1 -10.598,-8.212 -21.652,-18.9 -44.2,-30.47 15.498,4.025 26.595,8.67 35.244,13.863 C 156.973,71.958 151.434,55.038 127.976,0 Z"
       fill="url(#paint0_linear_3_2)"
       id="path1-5-2"
       style="fill:url(#paint0_linear_3_2-6-6)"
       clip-path="url(#clipPath2)" /></g></svg>
